<svg width="720" height="640" viewBox="0 0 720 640" fill="black" xmlns="http://www.w3.org/2000/svg">
  <g xmlns="http://www.w3.org/2000/svg" fill="none" fill-rule="evenodd">
    <rect width="720" height="640"/>
  </g>
<g transform="translate(120, 80)"><path xmlns="http://www.w3.org/2000/svg" d="M393.13 244.9l.01.1-.01-.1zm-276-109.4l.01.1c-.01-.06-.01-.08-.01-.1z"/><path xmlns="http://www.w3.org/2000/svg" d="M253.45 47.52c-3.7-4.7-10.2-5.3-13.7-4.7-3.4.7-7.6 2.1-9.6 6.9 0 0-5.5-1-9.6 2.5-4 3.5-3.7 8.4-2.5 12.4.9 2.95 2.2 5.9 2.84 7.24a5.94 5.94 0 0 0-1.24 3.66c0 3.15 2.37 5.7 5.3 5.7a4.68 4.68 0 0 0 1.07-.13l-6.88 22.43-2.2 5.7s3.2 4.1 10.8 5.7c5.2 1.1 8.7 1.2 11 1 1.9-.2 4.2-.6 3-4.1-1.7-5.2-1.1-8.5-1.1-8.5l2.38-12.97c1.6.3 3.08.33 4.22-.03 3.2-1 5.9-4.4 6.9-10.1s.86-16.07.86-16.07-.65-.1-1.7-.3c2.84.2 4.67-.3 5.35-1.23 1.2-1.5-1.5-10.4-5.2-15.1zM227.6 80.44c.2-.13.42-.28.62-.44-.2.16-.4.3-.62.44zm-.64.33c.13-.06.25-.1.37-.18a2.53 2.53 0 0 1-.37.18zm8.27 6.9a6.52 6.52 0 0 0 .26.12l-.26-.12zm.98.46a2.72 2.72 0 0 0 .25.11c-.1-.04-.17-.08-.25-.1zm1.2.5c.01.01.02.01.04.02-.01-.01-.03-.02-.04-.02zm2.24.83c.02.01.05.02.07.02-.03 0-.05-.01-.07-.02z" fill="#fff"/><path xmlns="http://www.w3.org/2000/svg" d="M217.9 59.57l-.06.32c.02-.01.04-.1.06-.32zm34.66-12.07l-.06-.05c.04.04.06.05.06.05zm-32.64 24.85l-.01-.02-.05-.07z"/><path xmlns="http://www.w3.org/2000/svg" d="M259.83 61.33c.01-.3-.04-.57-.07-.85-.16-1.1-.44-2.12-.73-3.26-.27-1.4-.94-3.32-1.86-5.16-.9-1.85-2.05-3.62-3.05-4.8-1.44-1.68-3.33-3.22-5.52-4.2s-4.63-1.46-6.88-1.24c-.15-.02-.53.05-.52.07-.67.05-1.4.1-2.07.27l-1.97.5-.78.27a13 13 0 0 0-1.88.86c-1.47.77-3.04 2.23-3.82 3.6-.32.55-.55 1.05-.68 1.44-.44-.13-1.03-.23-1.58-.27-.68-.06-1.26-.03-1.26-.03-2.3.05-4.08.65-5.7 1.65-1.6 1.04-3.16 2.5-4.26 5.1-.96 2.28-1 3.88-1 5.4.05 1.53.3 3.1 1.1 5.36.7 2.16 1.67 4.35 2.62 6.32.01.02.03.04.04.06-.5.92-.8 1.98-.8 3.13 0 3.42 2.6 6.2 5.8 6.2.12 0 .24-.02.36-.03l-6.63 21.65-2.3 5.96.17.22c.14.17 3.4 4.26 11.1 5.88 3.44.73 6.48 1.1 9.08 1.1a22.56 22.56 0 0 0 2.07-.09c1.28-.13 2.7-.37 3.4-1.45.5-.8.52-1.88.03-3.3-1.63-5-1.1-8.22-1.08-8.25l2.3-12.5a12.56 12.56 0 0 0 1.88.16c.76 0 1.46-.1 2.08-.28 3.63-1.14 6.27-4.96 7.24-10.5.88-5.02.88-13.45.86-15.64.08-.01.16 0 .2.02l.63-.16c.2 0 .58-.04.26.06.6-.1.62-.17 1.03-.36.23-.05.46-.1.7-.2.3-.15.62-.37.87-.65.23-.2.55-.83.56-1.1a4.79 4.79 0 0 0 .07-.51l.02-.45zm-19.67 41.9c-.03.14-.6 3.5 1.12 8.75.38 1.1.4 1.93.07 2.45-.45.7-1.6.88-2.65 1-2.9.25-6.55-.08-10.85-1-6.34-1.33-9.56-4.47-10.33-5.3l2.1-5.45 6.78-22.15a5.26 5.26 0 0 0 1.53-.69c.08.3.16.6.22.9.53 2.22 2.42 4.1 5.96 5.93 2.53 1.3 5.58 2.52 8.33 3.08l-2.28 12.48zm13.5-23.1c-.9 5.15-3.3 8.7-6.56 9.7-3 .94-8.62-1.07-12.52-3.07-3.2-1.65-5-3.38-5.44-5.27a28.79 28.79 0 0 0-.43-1.65l-.2-.75-.6.5c-.85.73-1.88 1.1-2.95 1.1-2.65 0-4.8-2.33-4.8-5.2s2.15-5.2 4.8-5.2c1.6 0 3.1.87 4 2.32l.3.48.44-.34c.16-.12 3.9-3.1 5.28-6.56 1.5-3.86 1.6-7.15 1.5-8.85 1.5 1.13 4.76 3.3 9.14 4.92 3.78 1.4 7.65 2.1 8.92 2.3.01 2 .01 10.6-.85 15.55zm-28.4-7.6c-1.6 0-2.9 1.35-2.9 3s1.3 3 2.9 3 2.9-1.35 2.9-3-1.3-3-2.9-3zm0 5c-1.05 0-1.9-.9-1.9-2s.85-2 1.9-2 1.9.9 1.9 2-.85 2-1.9 2zm14.2-9.2c.12-.13 1.2-1.8 3.9-1.6.4 0 .8-.3.8-.7s-.3-.8-.7-.8c-3.6-.3-5.2 2.1-5.3 2.2-.2.3-.18.75.15 1 .5.4.92.17 1.15-.1zm11.03-3.6a.73.73 0 0 0-.52.9c.1.4.5.54.9.5.15-.02 1.24-.35 2.1.14.14.08.3.16.4.16.2 0 .5-.1.6-.3a.78.78 0 0 0-.2-1c-1.4-1-3.13-.44-3.28-.4z"/><circle xmlns="http://www.w3.org/2000/svg" cx="242.35" cy="71.92" r="1.4"/><circle xmlns="http://www.w3.org/2000/svg" cx="252.51" cy="71.12" r="1.4"/><path xmlns="http://www.w3.org/2000/svg" d="M248.35 72.32c-.4.1-.6.5-.4.9.5 1.3 1.4 3.8 1.3 4.7s-.85 1-1.2 1.1c-.45.12-.75.45-.65.9.12.58.65.63.95.6.8-.1 2.2-.9 2.3-2.4.1-1.6-1.2-5-1.4-5.4-.1-.4-.5-.6-.9-.4zm-4 10.4c-3.6-.2-4.35-3.17-4.4-3.3-.14-.42-.5-.6-.9-.5s-.6.5-.5.9c.4 1.5 2 4.2 5.8 4.4.4 0 .7-.3.7-.8 0-.3-.3-.7-.7-.7z"/><path xmlns="http://www.w3.org/2000/svg" d="M239.52 416.34l-.4-10.42 28.4-1.44.4 6.95z" fill="#fff"/><path xmlns="http://www.w3.org/2000/svg" d="M239 405.48l.3.02c-.01-.01-.1-.02-.3-.02z"/><path xmlns="http://www.w3.org/2000/svg" d="M167 415.52l2.86-12.67 23.7 2.45-.4 5.93z" fill="#fff"/><path xmlns="http://www.w3.org/2000/svg" d="M168.74 405.8l.07-.17c-.02 0-.04.04-.07.17zm12.5 7.84c-.01.01-.02.01-.04.01.02-.01.04-.01.04-.01zm-7.7-9.66h0-.06.06zm1.7-74.02c.01-.03.01-.05.01-.07l.04-.34-.05.4zm55.27 105.36l-.07-.13c-.02.03 0 .06.07.13zm-36-30.22l-.2.35c.02 0 .08-.1.2-.35zm-11.98 6.66h.02l.1-.03-.13.03zm9.9-.03l-.01.01zm-2.92 3.67l.02.08c.01-.01.01-.03-.02-.08zm.74 3h0-.02zm11.22 1.77l-.04-.01c.01.01.03.01.04.01zm-1.58-.27h0zm5.93 2.82h-.04c.01.01.02.02.04 0zm-1.58.15h0zM217 442.02l-.4-.06c.01.02.1.04.4.06zm9.3-1.3c.01 0 .02-.01.03-.01-.02 0-.03.01-.03.01z"/><path xmlns="http://www.w3.org/2000/svg" d="M233.9 437.63l-.02.18c-.18-.32-.48-.46-.72-.66-.2-.02.06.3-.27.13l-.74-.65c.1-.04.34.2.34.06-.1.01-.46-.32-.5-.16l.1-.13c-.13-.04-.13-.2-.26-.3-.1-.02-.17-.01-.05.13-.3-.17-.77-.35-.92-.6-.27-.2-.1-.26-.1-.4-.1-.05-.26-.08-.3-.03l-.02-.04h-.17c-.43-.56-1.16-.57-1.5-1.06.14.06.33.26.4.15l-.42-.24c.18.08.36.1.35-.02-.6-.33-1.2-.5-1.9-.9.07-.18-.44-.3-.6-.57.02.05.02.07 0 .08.1.08.12.13-.13.02.01-.01.01-.02.01-.03a.33.33 0 0 0-.14 0c-.15-.17-.1-.2 0-.15-.14-.08-.3-.16-.13-.18-.34-.28-.5-.06-.75-.13-.42-.24-.58-.34-1.18-.6l.1.01c-.15-.1-.13-.28-.45-.4-.5.4-.8-.38-1.6-.52.01.2-.3-.01-.33.13-.15-.1-.3-.2-.46-.25-.1-.04-.13-.02-.2-.02-.1.01-.15.04-.3-.1v-.02c-.2-.28-.12.06-.02.16-.05-.08-.1-.1-.14-.12l-.2.94-.2.84-.15.6-.2.73.08.08c-.01.34-.12.34-.2.4l-.18.64c.01 0 .01.01.03.01l-.1.3-.22.8-.16.54c.01.01.01.01.02.03.07.33-.08.43-.2.62-.01.04-.03.08-.04.13l.1-.04-.23.64-.03-.05-.12.4c.03-.03.06-.13.1-.2-.16.46.1.94-.26 1.36l-.1-.1c.03.01.05-.06.05-.1-.01-.1-.03-.13-.04-.15l-.25.82v.03c-.02.14-.05.34.06.33-.24.13-.13.3-.1.33.06-.01.1-.01.1.03-.14.1-.01.08-.1.18.06.08.17-.15.22-.12a.51.51 0 0 0 .03.17c.1-.12.25-.06.35.01.1.08.2.17.5.12.38-.2.88.18 1.45-.04v.12c.44-.1.66.14 1.02.07.1.13-.1.07-.08.23.36-.1-.1.26.15.12.5.16 1-.5 1.5-.47.52-.2.97.3 1.06 0l-.27-.03h.72l.02.1c.3-.07.98.08 1.34-.1 0 .01.02.02.04.04.37-.1.47.07.8-.1l-.04.05c.58-.26 1.85-.17 2.75-.2.03.17.55.1.93.08-.12 0-.13.08-.15.1.52-.2 1.1.22 1.63 0h-.02c.2.1.84-.16.93.13.6-.23 1.17-.2 2.05-.08l-.04.05.74.24.12-.4-.06-.27c-.1-.33-.27-.7-.5-1.07l-.76-.63c-.15-.4-.4-.67-.86-1.03zm2.46 4.72l-.2.02c-1.2.14-2.9.1-2.9.1l-1.62-.05c0 .02-.15.1-.2.06-1.77.35-3.77-.53-5.5-.22-1.23.13-3.36.36-4.5.08-.94-.06-1.7.2-2.6.07l-.24-.14c-.27.06-.3.1-.68.08.22-.05-.02-.1-.1-.13l-.45.1c-.01-.1-.3-.02-.64.06s-.68.15-.6.05c-.01-.05-.01-.1-.01-.15l-.4-.04c.02-.05.03-.1.04-.14l-1.55-.04a46.5 46.5 0 0 0-2.66.05c-3.9.1-10.7.3-14.3-.01-3-.08-5.42.15-8.27.02l-.4-.07c-.2.02-.4.04-.35.1-1.38-.12-2.58-.04-3.9 0-.23.03-.4.04-.5.01a26.05 26.05 0 0 1-1.94-.04l.12-.01c-.65-.15-2.3-.05-2.85.07.34-.13-.84-.2-.4-.3-.5.18-2.63.08-2.63.08-.37-.16-1.7-.05-2.7-.14h-.5l-1.1.18.46-.15a4.98 4.98 0 0 1-.46-.02l-1.4.01c-.94.17-1.1.08-1.4.01l-.97.01c-.04.01-.07.01-.1.01l-.3.17-.15.1.15-.1c-1.24.1-1.02-.1-1.44-.18h-.7c-.07 0-.13.01-.2.02l-.01-.02h-.36c0 .02-.01.02 0 .05-.05 0-.1-.03-.17-.02l-.04.17c-.01.03-.02.12-.04.33-.02.17-.03.34-.05.5-.06.67-.13 1.2-.05 1.53.26.66.02-.28.22.01.2.3.3.46.4.65a1.44 1.44 0 0 0 .47.55l-.08-.2a1.67 1.67 0 0 0 .54.25c.2.05.36.07.73.08l-.27.1 1.3.02c.37-.08-.18-.07-.6-.12 1.4.04 2.58-.3 4-.07l-.17.12c.01-.03-.2-.04-.32-.02-1.42.2 1.04.13 1.1.22.4-.15 1.67-.02 2.2-.23 2.5.3 4.46-.1 6.36.08-.5.1.62.08.57.2.84.1.63-.15 1.38-.12l.7.17c1.77-.23 1.2.24 2.9.14 1.1-.2 2.56.2 4.2-.03l.05.12c1.26-.1 1.92.14 2.94.07.27.13-.25.07-.22.23 1.04-.1-.27.26.43.13 1.46.16 2.92-.5 4.33-.46 1.5-.2 2.8.32 3.07.01l-.78-.03h2.08l.05.1c.84-.07 2.84.1 3.9-.08-.01.01.06.02.12.04 1.07-.1 1.35.07 2.3-.1l-.12.05c1.68-.26 5.34-.16 7.96-.2.08.17 1.58.1 2.68.08-.35 0-.38.08-.44.1 1.5-.2 3.15.23 4.72.01h-.06c.6.1 2.43-.15 2.7.14 1.77-.22 3.38-.2 5.94-.06l-.12.05 1.5.17c.45.07.74.1 1.08.01.65-.14 1.15-.52 1.46-.9.24-.28.4-.54.5-.76a3.17 3.17 0 0 0 .11-.76c0-.52-.06-1.2-.12-1.88z" fill="#fff"/><path xmlns="http://www.w3.org/2000/svg" d="M292.66 442.02l-.4-.06c.01.02.1.04.4.06zm9.3-1.3c.01 0 .02-.01.03-.01-.02 0-.03.01-.03.01z"/><path xmlns="http://www.w3.org/2000/svg" d="M309.54 437.63l-.02.18c-.18-.32-.48-.46-.72-.66-.2-.02.06.3-.27.13l-.74-.65c.1-.04.34.2.34.06-.1.01-.46-.32-.5-.16l.1-.13c-.13-.04-.13-.2-.26-.3-.1-.02-.17-.01-.05.13-.3-.17-.77-.35-.92-.6-.27-.2-.1-.26-.1-.4-.1-.05-.26-.08-.3-.03l-.02-.04h-.17c-.43-.56-1.16-.57-1.5-1.06.14.06.33.26.4.15l-.42-.24c.18.08.36.1.35-.02-.6-.33-1.2-.5-1.9-.9.07-.18-.44-.3-.6-.57.02.05.02.07 0 .08.1.08.12.13-.13.02.01-.01.01-.02.01-.03a.33.33 0 0 0-.14 0c-.15-.17-.1-.2 0-.15-.14-.08-.3-.16-.13-.18-.34-.28-.5-.06-.75-.13-.42-.24-.58-.34-1.18-.6l.1.01c-.15-.1-.13-.28-.45-.4-.5.4-.8-.38-1.6-.52.01.2-.3-.01-.33.13-.15-.1-.3-.2-.46-.25-.1-.04-.13-.02-.2-.02-.1.01-.15.04-.3-.1v-.02c-.2-.28-.12.06-.02.16-.05-.08-.1-.1-.14-.12l-.2.94-.2.84-.15.6-.2.73.08.08c-.01.34-.12.34-.2.4l-.18.64c.01 0 .01.01.03.01l-.1.3-.22.8-.16.54c.01.01.01.01.02.03.07.33-.08.43-.2.62-.01.04-.03.08-.04.13l.1-.04-.23.64-.03-.05-.12.4c.03-.03.06-.13.1-.2-.16.46.1.94-.26 1.36l-.1-.1c.03.01.05-.06.05-.1-.01-.1-.03-.13-.04-.15l-.25.82v.03c-.02.14-.05.34.06.33-.24.13-.13.3-.1.33.06-.01.1-.01.1.03-.14.1-.01.08-.1.18.06.08.17-.15.22-.12a.51.51 0 0 0 .03.17c.1-.12.25-.06.35.01.1.08.2.17.5.12.38-.2.88.18 1.45-.04v.12c.44-.1.66.14 1.02.07.1.13-.1.07-.08.23.36-.1-.1.26.15.12.5.16 1-.5 1.5-.47.52-.2.97.3 1.06 0l-.27-.03h.72l.02.1c.3-.07.98.08 1.34-.1 0 .01.02.02.04.04.37-.1.47.07.8-.1l-.04.05c.58-.26 1.85-.17 2.75-.2.03.17.55.1.93.08-.12 0-.13.08-.15.1.52-.2 1.1.22 1.63 0h-.02c.2.1.84-.16.93.13.6-.23 1.17-.2 2.05-.08l-.04.05.74.24.12-.4-.06-.27c-.1-.33-.27-.7-.5-1.07l-.76-.63c-.14-.4-.38-.67-.86-1.03zm2.48 4.72l-.2.02c-1.2.14-2.9.1-2.9.1l-1.62-.05c0 .02-.15.1-.2.06-1.77.35-3.77-.53-5.5-.22-1.23.13-3.36.36-4.5.08-.94-.06-1.7.2-2.6.07l-.24-.14c-.27.06-.3.1-.68.08.22-.05-.02-.1-.1-.13l-.45.1c-.01-.1-.3-.02-.64.06s-.68.15-.6.05c-.01-.05-.01-.1-.01-.15l-.4-.04c.02-.05.03-.1.04-.14l-1.55-.04a46.5 46.5 0 0 0-2.66.05c-3.9.1-10.7.3-14.3-.01-3-.08-5.42.15-8.27.02l-.4-.07c-.2.02-.4.04-.35.1-1.38-.12-2.58-.04-3.9 0-.23.03-.4.04-.5.01a26.05 26.05 0 0 1-1.94-.04l.12-.01c-.65-.15-2.3-.05-2.85.07.34-.13-.84-.2-.4-.3-.5.18-2.63.08-2.63.08-.37-.16-1.7-.05-2.7-.14h-.5l-1.1.18.46-.15a4.98 4.98 0 0 1-.46-.02l-1.4.01c-.94.17-1.1.08-1.4.01l-.97.01c-.04.01-.07.01-.1.01l-.3.17-.15.1.15-.1c-1.24.1-1.02-.1-1.44-.18h-.7c-.07 0-.13.01-.2.02v-.02h-.36c0 .02-.01.02 0 .05-.05 0-.1-.03-.17-.02l-.04.17c-.01.03-.02.12-.04.33-.02.17-.03.34-.05.5-.06.67-.13 1.2-.05 1.53.26.66.02-.28.22.01.2.3.3.46.4.65a1.44 1.44 0 0 0 .47.55l-.08-.2a1.67 1.67 0 0 0 .54.25c.2.05.36.07.73.08l-.27.1 1.3.02c.37-.08-.18-.07-.6-.12 1.4.04 2.58-.3 4-.07l-.17.12c.01-.03-.2-.04-.32-.02-1.42.2 1.04.13 1.1.22.4-.15 1.67-.02 2.2-.23 2.5.3 4.46-.1 6.36.08-.5.1.62.08.57.2.84.1.63-.15 1.38-.12l.7.17c1.77-.23 1.2.24 2.9.14 1.1-.2 2.56.2 4.2-.03l.05.12c1.26-.1 1.92.14 2.94.07.27.13-.25.07-.22.23 1.04-.1-.27.26.43.13 1.46.16 2.92-.5 4.33-.46 1.5-.2 2.8.32 3.07.01l-.78-.03h2.08l.05.1c.84-.07 2.84.1 3.9-.08-.01.01.06.02.12.04 1.07-.1 1.35.07 2.3-.1l-.12.05c1.68-.26 5.34-.16 7.96-.2.08.17 1.58.1 2.68.08-.35 0-.38.08-.44.1 1.5-.2 3.15.23 4.72.01h-.06c.6.1 2.43-.15 2.7.14 1.77-.22 3.38-.2 5.94-.06l-.12.05 1.5.17c.45.07.74.1 1.08.01.65-.14 1.15-.52 1.46-.9.24-.28.4-.54.5-.76a3.17 3.17 0 0 0 .11-.76c-.01-.52-.06-1.2-.12-1.88z" fill="#fff"/><path xmlns="http://www.w3.org/2000/svg" d="M220.2 433.62h0l.07.07zm-52.5 8.44h0l-.15.08zm128.15-8.44h0l.07.07z"/><path xmlns="http://www.w3.org/2000/svg" d="M312.48 440.2c.02-.02.03-.04.05-.07.05-.22 0-.63-.1-.96l-.2-.54c-.42-.98-.94-1.52-1.5-2.03l-2.1-1.62c-1.42-1.27-1.67-1.8-3.35-2.8-.76-.54-1.65-1.02-2.45-1.45-.47-.04-1.05-.6-1.58-.68l-.12-.2c-.2-.03-.4-.1-.52-.22l.03-.03c-.28-.04-.52-.22-.66-.24l.03-.03-.3-.12.07-.02c-.46-.1-.9-.3-1.27-.5l-.02.15c-.2-.12-.36-.2-.52-.27l-.67-.24c-.43-.14-.8-.27-1.42-.62v-.04c-.04 0-.1 0-.13-.01l-.2-.1-1.18-.63-2.25-1.23s-5.45-3-8.9-4.73c-2.28-1.13-3.7-1.66-2.2-.36l-.75-.42c-1.3-.7-2.1-1.3-2.1-1.3l-.3-1.04.35.84c.02.13.15.17.24.22l.3.14.56.26a7.53 7.53 0 0 0 .85.32c.9.27.94.1.54-.25-.2-.17-.47-.4-.78-.62l-.47-.37-.2-.17c-.03-.03-.02-.03-.03-.05-.02-.02 0-.06 0-.07-.01-.08-.07-.3-.1-.42l-.1-.44-2-6.9-1.15-3.4-.3-.9s-.7-3.88-1.72-4.24c-.34-.12-.87-.66-2.1-.66-.08 0-.2.03-.3.05l.05-.68.17-3.44.7-62.44.16-.85c.22-.37-.25-5.34-.05-6.07l-.07-2.25c.05-.63.1-1.96.14-.84l-.05-3.63.16-2.23c.18-8.2.1-15.17.12-23.85.22-10.4-.55-29.92-1.05-41.16-.37-7.42-.52-15.4-.68-23.47l-.26-12.1-.2-5.97-.28-6.84-2.5.02-1.5.03c-.26-.02-.74-.01-1.14.01l-.52.03h-.22-1-.04l-.3-.06c-.2-.04-.4-.1-.67-.08h-1.2l-3.3.01-6.48.08c-.28-.02-.77-.01-1.2.01-.16.01-.3.02-.44.02h-.17l-9.5.01-6.25-.01s-11.86-.01-22.6.08c-.07-.17-.1-.16-.14 0-11.7.1-22.02.34-14.22.85h-2.57c-.43 1.97-1.04 5.84-1.8 11.15l1.15-10.16c.4-2.88.2-2.68-.25-1.2-.46 1.55-1 4.4-1.45 6.9l-.76 4.58c-1.36 8.37-2.22 14.74-3.12 21.5l-3.24 23.93-5.67 40.43-3.86 26.37c-.5 4.04-1.94 11.08-2.6 15.85l-.44 1.82c-.23 1.64-.52 3.57-.88 5.2l-.02-.1c-.34 2.46-.88 5.2-1.04 6.42l-.02-.1-.5 2.97.04-.52c-.65 4.27-1.42 8.66-2.14 12.52l.2-.3c-1.6 8.24-1.85 11.3-3.35 18.74l-.02-.1a162.34 162.34 0 0 1-1.01 6.48c-.04.26-.1.5-.13.76-.05.35-.04.67.01 1a3.62 3.62 0 0 0 .81 1.79c.44.5 1.03.88 1.67 1.05.15.04.37.08.48.1l.36.04.7.1 1.74.2-.06.36c-.06.4-.1.82-.27 1.24l.02.2-.02.05c.03 0 .03.2.02.34-.1.1-.16-.04-.25.38-.14.32-.18.97-.25 1.42.07-.24.1-.15.1-.04-.05.2-.14.32-.15.5h-.1c.1-.06-.03.58-.01.67-.1.1.02-.34-.02-.4l-.28 1.3c-.03.47.1-.06.14.17-.07.4-.1.8-.26 1.26l.1-.13c-.1.77-.22 1.22-.42 1.7a43.27 43.27 0 0 0-.15 1.75 37.35 37.35 0 0 0-2.33.41l-.67.13c-.25.05-.4.05-.8.17-.66.2-1.32.62-1.85 1.36v-.06c-.27.5-.4 1.07-.4 1.6.02.38.03.7.03 1.06.01.67-.02 1.3-.03 1.94-.04 1.27-.06 2.56.2 4.18-.07-.4-.07.18-.1.15.12 1.5.25 3.1.54 3.1.07 1.1-.02.9-.12 1.05.12-.02.25.93.33 1.78l-.08-.4.26 2.44.2-.5c.05 1.3-.26.35-.1 1.58l.2-.03c.1 1.8-.1 2.86-.08 4.62l.07.73a25.59 25.59 0 0 0 .15 1.14l.04.26c0 .16 0 .3-.01.47l-.05 1.38c-.01.44-.04.86.05 1.44.18 1.1.83 2.1 1.8 2.7.48.3 1.03.48 1.58.54.6.05.93.01 1.38.01l2.52-.04c3.34-.05 6.63-.07 9.68.12l.27.15c.12.22 1.7-.3 1.92-.1l.7-.1c.2.04.62.08.27.13.66.01.67-.02 1.15-.08l.7.14c2.6.12 4.8-.13 7.52-.06 3.27.3 9.43.08 12.98-.05 5-.3 10.78.6 15.9.26.17.03.6-.03.6-.06l4.67.06h3.27l3-.03.77-.02c.26 0 .62-.01.93-.08a3.38 3.38 0 0 0 1.58-.83c.82-.76 1.1-1.7 1.1-2.26.01-.6-.13-.82-.24-.67-.14.14-.22.76-.87 1.53-.32.37-.82.75-1.46.9-.34.08-.63.05-1.08-.01l-1.5-.17.12-.05c-2.56-.13-4.17-.16-5.94.06-.27-.3-2.1-.04-2.7-.14h.06c-1.57.2-3.2-.2-4.72-.01.06-.02.1-.1.44-.1-1.1.03-2.6.08-2.68-.08-2.62.03-6.28-.07-7.96.2l.12-.05c-.96.17-1.24.02-2.3.1-.06-.02-.13-.03-.12-.04-1.05.17-3.04.01-3.9.08l-.05-.1-2.08.01.78.03c-.27.3-1.57-.2-3.07-.01-1.4-.05-2.87.62-4.33.46-.7.14.62-.23-.43-.13-.03-.16.5-.1.22-.23-1.02.07-1.68-.17-2.94-.07l-.05-.12c-1.65.22-3.1-.18-4.2.03-1.7.1-1.14-.38-2.9-.14l-.7-.17c-.76-.03-.54.2-1.38.12.05-.1-1.06-.1-.57-.2-1.9-.18-3.86.2-6.36-.08-.54.2-1.8.07-2.2.23-.07-.1-2.52-.03-1.1-.22.12-.02.34-.01.32.02l.17-.12c-1.43-.24-2.6.1-4 .07.42.04.98.04.6.12l-1.3-.02.27-.1c-.38-.01-.53-.02-.73-.08a1.89 1.89 0 0 1-.54-.25l.08.2c-.26-.18-.36-.37-.47-.55-.1-.2-.2-.35-.4-.65-.2-.3.04.65-.22-.01-.07-.32-.01-.86.05-1.53.02-.17.03-.34.05-.5.02-.2.03-.3.04-.33l.04-.17c.05 0 .12.02.17.02-.02-.03 0-.04 0-.05h.36l.01.02c.08-.01.14-.01.2-.02h.7c.43.06.2.26 1.44.18l.3-.17c.04-.01.07-.01.1-.01l.97-.01c.28.06.45.15 1.4-.01l1.4-.01c.1.01.25.02.46.02l-.46.15 1.1-.18h.5c1 .08 2.32-.02 2.7.14 0 0 2.14.1 2.63-.08-.43.1.75.17.4.3.56-.13 2.2-.22 2.85-.07h-.12c.7.05 1.33.05 1.94.04.1.03.27.02.5-.01 1.3-.04 2.5-.12 3.9 0-.04-.06.14-.08.35-.1l.4.07c2.85.13 5.27-.1 8.27-.02 3.6.3 10.38.12 14.3.01.87-.04 1.76-.06 2.66-.05l1.55.04c-.02.05-.03.1-.04.14.13.01.26.03.4.04 0 .05 0 .1.01.15-.08.1.28.03.6-.05s.63-.16.64-.06l.45-.1c.1.04.33.08.1.13.4.01.4-.02.68-.08l.24.14c.9.1 1.66-.14 2.6-.07 1.13.28 3.26.06 4.5-.08 1.73-.3 3.73.57 5.5.22.06.03.2-.04.2-.06l1.62.05s1.67.03 2.9-.1l.35-.04c.15.74.27 1.25.38 1.6.25.87.37.8.5.33.05-.24.07-.6.1-.97.01-.2.01-.4.02-.6l-.03-1.07c.25-1.08-.2-1.37-.66-1.43.02-.02.03-.04.05-.07.05-.22 0-.63-.1-.96-.1-.3-.2-.54-.2-.54-.42-.98-.94-1.52-1.5-2.03-.6-.5-1.24-.96-2.1-1.62-1.42-1.27-1.67-1.8-3.35-2.8-.76-.54-1.65-1.02-2.45-1.45-.47-.04-1.05-.6-1.58-.68l-.12-.2c-.2-.03-.4-.1-.52-.22l.03-.03c-.28-.04-.52-.22-.66-.24l.03-.03-.3-.12.07-.02c-.46-.1-.9-.3-1.27-.5l-.02.15c-.2-.12-.36-.2-.52-.27-.22-.1-.46-.17-.67-.24-.43-.14-.8-.27-1.42-.62v-.04c-.04 0-.1 0-.13-.01l-.2-.1-1.18-.63-2.25-1.23s-5.45-3-8.9-4.73c-2.28-1.13-3.7-1.66-2.2-.36l-.75-.42c-1.3-.7-2.1-1.3-2.1-1.3l-.3-1.04.35.84c.02.13.15.17.24.22.1.05.2.1.3.14l.56.26a7.53 7.53 0 0 0 .85.32c.9.27.94.1.54-.25-.2-.17-.47-.4-.78-.62-.16-.12-.32-.24-.47-.37l-.2-.17c-.03-.03-.02-.03-.03-.05-.02-.02 0-.06 0-.07-.01-.08-.07-.3-.1-.42l-.1-.44c-.65-2.73-1.27-4.75-2-6.9l-1.15-3.4c-.01-.04-.03-.08-.04-.12l1.63.16.47.05a5.61 5.61 0 0 0 .58 0c.76-.06 1.53-.37 2.1-.9-.5.36-1.1.56-1.67.6 1.13-.25 1.63-.8 1.9-1.1.27-.3.36-.43.44-.55.08-.1.18-.25.3-.57.1-.3.27-.8.55-1.7l-.2-.01c1.7-5.16 2.96-8.1 4.7-13.07L226 342.52c.2 1.36.38 2.84.47 4.15l-.05-.1c.35 2.33.6 4.98.77 6.14l-.05-.1.33 2.84-.1-.48c.55 4.07 1.02 8.28 1.4 12l.1-.32c.72 7.94 1.34 10.8 1.95 18l-.05-.1c.7 4.5 1.03 8.08 1.36 11.7l.55 5.57.17 1.48.1.76c.03.2.07.66.2 1a3.24 3.24 0 0 0 1.54 1.74 3.25 3.25 0 0 0 1.16.34c.2.02.4.02.6 0l.44-.04c-1.17.1.5.05.4.1l1.4-.08c.03.3.08.6.1.88 0-.26.04-.18.07-.07.01.24-.05.37-.02.55l-.1.03c.1-.1.12.6.16.7-.06.14-.07-.36-.13-.42l.07 1.42c.1.5.1-.1.18.14.04.44.12.88.08 1.4l.08-.16c.1.83.1 1.33.04 1.9a35.49 35.49 0 0 0 .3 1.78 3.84 3.84 0 0 0-.4.1c-.66.2-1.32.62-1.85 1.36v-.06c-.27.5-.4 1.07-.4 1.6.02.38.03.7.03 1.06.01.67-.02 1.3-.03 1.94-.04 1.27-.06 2.56.2 4.18-.07-.4-.07.18-.1.15.12 1.5.25 3.1.54 3.1.07 1.1-.02.9-.12 1.05.12-.02.25.93.33 1.78l-.08-.4.26 2.44.2-.5c.05 1.3-.26.35-.1 1.58l.2-.03c.1 1.8-.1 2.86-.08 4.62l.07.73a25.59 25.59 0 0 0 .15 1.14l.04.26c0 .16 0 .3-.01.47l-.05 1.38c-.01.44-.04.86.05 1.44.18 1.1.83 2.1 1.8 2.7.48.3 1.03.48 1.58.54.6.05.93.01 1.38.01l2.52-.04c3.34-.05 6.63-.07 9.68.12l.27.15c.12.22 1.7-.3 1.92-.1l.7-.1c.2.04.62.08.27.13.66.01.67-.02 1.15-.08l.7.14c2.6.12 4.8-.13 7.52-.06 3.27.3 9.43.08 12.98-.05 5-.3 10.78.6 15.9.26.17.03.6-.03.6-.06l4.67.06h3.27l3-.03.77-.02c.26 0 .62-.01.93-.08a3.38 3.38 0 0 0 1.58-.83c.82-.76 1.1-1.7 1.1-2.26.01-.6-.13-.82-.24-.67-.14.14-.22.76-.87 1.53-.32.37-.82.75-1.46.9-.34.08-.63.05-1.08-.01l-1.5-.17.12-.05c-2.56-.13-4.17-.16-5.94.06-.27-.3-2.1-.04-2.7-.14l.06-.02c-1.57.2-3.2-.2-4.72-.01.06-.02.1-.1.44-.1-1.1.03-2.6.08-2.68-.08-2.62.03-6.28-.07-7.96.2l.12-.05c-.96.17-1.24.02-2.3.1-.06-.02-.13-.03-.12-.04-1.05.17-3.04.01-3.9.08l-.05-.1-2.08.01.78.03c-.27.3-1.57-.2-3.07-.01-1.4-.05-2.87.62-4.33.46-.7.14.62-.23-.43-.13-.03-.16.5-.1.22-.23-1.02.07-1.68-.17-2.94-.07l-.05-.12c-1.65.22-3.1-.18-4.2.03-1.7.1-1.14-.38-2.9-.14l-.7-.17c-.76-.03-.54.2-1.38.12.05-.1-1.06-.1-.57-.2-1.9-.18-3.86.2-6.36-.08-.54.2-1.8.07-2.2.23-.07-.1-2.52-.03-1.1-.22.12-.02.34-.01.32.02l.17-.12c-1.43-.24-2.6.1-4 .07.42.04.98.04.6.12l-1.3-.02.27-.1c-.38-.01-.53-.02-.73-.08a1.89 1.89 0 0 1-.54-.25l.08.2c-.26-.18-.36-.37-.47-.55-.1-.2-.2-.35-.4-.65-.2-.3.04.65-.22-.01-.07-.32-.01-.86.05-1.53.02-.17.03-.34.05-.5.02-.2.03-.3.04-.33l.04-.17c.05 0 .12.02.17.02-.02-.03 0-.04 0-.05h.36l.01.02c.08-.01.14-.01.2-.02h.7c.43.06.2.26 1.44.18l.3-.17c.04-.01.07-.01.1-.01l.97-.01c.28.06.45.15 1.4-.01l1.4-.01c.1.01.25.02.46.02l-.46.15 1.1-.18h.5c1 .08 2.32-.02 2.7.14 0 0 2.14.1 2.63-.08-.43.1.75.17.4.3.56-.13 2.2-.22 2.85-.07h-.12c.7.05 1.33.05 1.94.04.1.03.27.02.5-.01 1.3-.04 2.5-.12 3.9 0-.04-.06.14-.08.35-.1l.4.07c2.85.13 5.27-.1 8.27-.02 3.6.3 10.38.12 14.3.01.87-.04 1.76-.06 2.66-.05l1.55.04c-.02.05-.03.1-.04.14.13.01.26.03.4.04 0 .05 0 .1.01.15-.08.1.28.03.6-.05s.63-.16.64-.06l.45-.1c.1.04.33.08.1.13.4.01.4-.02.68-.08l.24.14c.9.1 1.66-.14 2.6-.07 1.13.28 3.26.06 4.5-.08 1.73-.3 3.73.57 5.5.22.06.03.2-.04.2-.06l1.62.05s1.67.03 2.9-.1l.35-.04c.15.74.27 1.25.38 1.6.25.87.37.8.5.33.05-.24.07-.6.1-.97.01-.2.01-.4.02-.6l-.03-1.07c.2-1.27-.26-1.56-.7-1.62zm-94.1-.22c-.1.01-.08-.2-.06-.33v-.03l.25-.82c.02.02.03.06.04.15 0 .04-.02.12-.05.1l.1.1c.35-.42.1-.9.26-1.36-.05.08-.08.17-.1.2l.12-.4.03.05.23-.64-.1.04c.01-.04.03-.08.04-.13.14-.2.28-.3.2-.62 0-.01-.01-.02-.02-.03.05-.18.1-.36.16-.54.08-.26.14-.52.22-.8.04-.1.08-.2.1-.3-.01 0-.02 0-.03-.01l.18-.64c.1-.04.2-.04.2-.4l-.08-.08a19.8 19.8 0 0 0 .2-.73l.15-.6.2-.84.2-.94c.04.02.08.05.14.12-.1-.1-.17-.43.02-.16v.02c.14.13.2.1.3.1.06 0 .08-.02.2.02.16.06.3.14.46.25.03-.15.35.07.33-.13.77.14 1.1.9 1.6.52.32.13.3.3.45.4l-.1-.01c.6.25.76.35 1.18.6.24.07.4-.15.75.13-.17.02-.01.1.13.18-.1-.04-.14-.02 0 .15a.33.33 0 0 1 .14 0c0 .01 0 .02-.01.03.25.1.23.05.13-.02.01-.01.02-.03 0-.08.17.26.68.4.6.57.7.4 1.3.56 1.9.9.01.12-.17.1-.35.02l.42.24c-.08.1-.27-.1-.4-.15.35.5 1.1.5 1.5 1.06h.17v.04c.03-.05.2-.01.3.03 0 .15-.17.2.1.4.14.24.6.42.92.6-.13-.13-.04-.15.05-.13.13.1.13.25.26.3l-.1.13c.05-.16.43.16.5.16-.01.15-.26-.1-.34-.06l.74.65c.33.16.06-.15.27-.13.24.2.53.34.72.66l.02-.18c.47.36.7.64.83 1.05.9.68 1.33 1.2 1.64 1.46.03.03.05.04.08.06-.2.01-.33.04-.3 0-.1 0-.17-.01-.25-.01.02.06.06.13.07.2l.06.27a4.02 4.02 0 0 0-.12.4 10.87 10.87 0 0 0-.74-.24l.04-.05c-.88-.12-1.44-.15-2.05.08-.1-.3-.73-.04-.93-.13l.02-.02c-.54.22-1.1-.2-1.63 0 .02-.02.03-.1.15-.1-.38.03-.9.1-.93-.08-.9.03-2.17-.06-2.75.2l.04-.05c-.33.18-.43.02-.8.1-.02-.02-.05-.03-.04-.04-.36.17-1.05.02-1.34.1l-.02-.1-.72.02.27.03c-.1.3-.54-.2-1.06 0-.5-.04-1 .63-1.5.47-.24.14.2-.23-.15-.12-.01-.16.17-.1.08-.23-.35.07-.58-.17-1.02-.07l-.02-.12c-.57.22-1.07-.17-1.45.04-.3.05-.4-.05-.5-.12-.1-.08-.26-.13-.35-.01a.51.51 0 0 1-.03-.17c-.05-.03-.16.2-.22.12.08-.1-.05-.1.1-.18 0-.05-.03-.05-.1-.03-.02-.01-.06-.1-.04-.17a.37.37 0 0 1 .17-.18zm-50.33-25.68l.12.12c-.06.01-.1.01-.16.02.02-.06.03-.1.04-.14zm26.28 6.04h-.02c-.03-.04-.12-.1-.13-.1-.02-.03-.05-.06-.08-.1.04.04.06.1.08.13-.1-.07-.14.03-.2-.07.1 0-.3-.03-.4.08.08-.07-.14-.1-.1-.17-.08.08-.1.14-.12.08h.01l.01-.01c.1 0-.35-.28-.48-.64-.06.07-.15-.13-.2-.03-.33-.27-.27-.75-.63-.67-.13-.14-.07-.23-.1-.32l.04.03c-.23-.27-.3-.35-.45-.57-.1-.1-.25-.01-.35-.22.1.02.03-.05-.02-.12.04.04.07.04.04-.08-.03 0-.05-.01-.07-.03-.1-.12-.1-.08-.06-.02-.01 0-.02.01-.02.04-.02-.17-.26-.34-.18-.42-.28-.34-.56-.53-.8-.8.02-.07.1-.03.2.05l-.17-.2c.07-.05.13.1.2.15-.08-.33-.48-.44-.6-.8l-.1-.02v-.02c-.03.02-.1-.02-.15-.06.03-.08.13-.1.02-.24-.03-.16-.27-.3-.4-.44.05.1 0 .1-.05.06-.06-.07-.03-.15-.1-.2l.07-.06c-.05.08-.22-.13-.27-.14.03-.08.13.08.2.06l-.33-.43c-.17-.1-.05.08-.17.06-.12-.13-.27-.22-.34-.4l-.03.1c-.24-.22-.35-.38-.4-.6a11.12 11.12 0 0 0-.44-.32l-.37-.5-.87-1.2-3.34.6c-1.3.43-3.67.6-5.2 1.04l-.63-.02c-.53.15-1.16.3-1.7.32l.03-.04c-.8.22-1.7.32-2.1.43l.03-.04-.98.18.16-.08c-1.4.33-2.83.57-4.1.74.02-.07.04-.12.04-.12.68-2.18.7-3.38 1.24-6.03.27-1.12.5-1.83.7-2.55l.3-1.13c.04-.16.08-.34.12-.52 2.86.34 5.9.67 9.53.92-1.23-.08.52.13.4.15 4.53.44 9.36.93 9.46.65 1.33.14 2.02.23 2.4.3-.16.68-.25 1.34-.34 2.06-.05.48-.1.98-.12 1.52 0 .13-.01.27-.02.4v.2a23.71 23.71 0 0 0 .74 2.58s.58 2.04.8 2.34l-.07.14c.01.14.14.07.12.24-.06 0-.01.2-.1.13-.03.36.28.67.2 1.16.14.07.12.32.22.37-.05.02.08.46-.08.23-.01-.02-.02-.06 0-.06l-.08-.02c-.08.3.17.45.2.72.01-.08-.02-.18.04-.12l.04.24-.07-.04.04.36.06-.06c0 .18-.12.27.03.44.08.08.07-.18.13-.01 0 .24-.01.6.03.9.08-.04.1.04.13.1l-.07.02c.16.28-.13.2-.04.23h-.05c.05 0 .1.01.16.03.18.12-.17-.05.07.13-.02-.04.2.08.16.14l-.1-.07c-.03.05 0 .08 0 .1zm3.8-13.7l-2.73-.35 2.7.26v.01l-.93-.06.94.1c.01.01.01.03.02.05zm71.86 13.7c-.05-.04-.14-.1-.15-.1-.02-.03-.05-.06-.08-.1.04.04.06.1.08.13-.1-.07-.14.03-.2-.07.1 0-.3-.03-.4.08.08-.07-.14-.1-.1-.17-.08.08-.1.14-.12.08h.01l.01-.01c.1 0-.35-.28-.48-.64-.06.07-.15-.13-.2-.03-.33-.27-.27-.75-.63-.67-.13-.14-.07-.23-.1-.32l.04.03c-.23-.27-.3-.35-.45-.57-.1-.1-.25-.01-.35-.22.1.02.03-.05-.02-.12.04.04.07.04.04-.08-.03 0-.05-.01-.07-.03-.1-.12-.1-.08-.06-.02-.01 0-.02.01-.02.04-.02-.17-.26-.34-.18-.42-.28-.34-.56-.53-.8-.8.02-.07.1-.03.2.05l-.17-.2c.07-.05.13.1.2.15-.08-.33-.48-.44-.6-.8l-.1-.02v-.02c-.03.02-.1-.02-.15-.06.03-.08.13-.1.02-.24-.03-.16-.27-.3-.4-.44.05.1 0 .1-.05.06-.06-.07-.03-.15-.1-.2l.07-.06c-.05.08-.22-.13-.27-.14.03-.08.13.08.2.06l-.33-.43c-.17-.1-.05.08-.17.06-.12-.13-.27-.22-.34-.4l-.03.1c-.24-.22-.35-.38-.4-.6a11.12 11.12 0 0 0-.44-.32l-.37-.5-.87-1.2-3.34.6c-1.3.43-3.67.6-5.2 1.04l-.63-.02c-.53.15-1.16.3-1.7.32l.03-.04c-.8.22-1.7.32-2.1.43l.03-.04-.98.18.16-.08c-1.4.33-2.84.57-4.13.74l.13.13c-1.38.15-2.3.33-3.2.5l-.4.08c.01-.22.01-.38.01-.38.1-2.46-.2-3.7-.38-6.63-.01-.4-.01-.74-.01-1.07 3.33-.2 6.23-.4 6.4-.62.2-.01.4-.03.58-.04 2.5-.1 2.04 0 2.42.08-.03-.12 2.7-.3 5.16-.44l-1.13.1 7.03-.4-1.05-.13c.1-.02.2-.03.32-.05-.18.04.08.04.07.06a14.17 14.17 0 0 0 .77-.08c1.42.02.13.22 3.03.03l-.06-.2 3.54-.1c.02 0 .05-.01.07-.01l.03.24.08.9.15 1.76.12 1.73.03.67.52 1.55c.1.36.2.65.24.72 0 0 .58 2.04.8 2.34l-.07.14c.01.14.14.07.12.24-.06 0-.01.2-.1.13-.03.36.28.67.2 1.16.14.07.12.32.22.37-.05.02.08.46-.08.23-.01-.02-.02-.06 0-.06l-.08-.02c-.08.3.17.45.2.72.01-.08-.02-.18.04-.12l.04.24-.07-.04.04.36.06-.06c0 .18-.12.27.03.44.08.08.07-.18.13-.01 0 .24-.01.6.03.9.08-.04.1.04.13.1l-.07.02c.16.28-.13.2-.04.23h-.05c.05 0 .1.01.16.03.18.12-.17-.05.07.13-.02-.04.2.08.16.14l-.1-.07c-.02.05 0 .08.01.1zm41.83 19.85c-.1 0-.17-.01-.25-.01.02.06.06.13.07.2l.06.27a4.02 4.02 0 0 0-.12.4 10.87 10.87 0 0 0-.74-.24l.04-.05c-.88-.12-1.44-.15-2.05.08-.1-.3-.73-.04-.93-.13v-.02c-.54.22-1.1-.2-1.63 0 .02-.02.03-.1.15-.1-.38.03-.9.1-.93-.08-.9.03-2.17-.06-2.75.2l.04-.05c-.33.18-.43.02-.8.1-.02-.02-.05-.03-.04-.04-.36.17-1.05.02-1.34.1v-.1l-.72.02.27.03c-.1.3-.54-.2-1.06 0-.5-.04-1 .63-1.5.47-.24.14.2-.23-.15-.12-.01-.16.17-.1.08-.23-.35.07-.58-.17-1.02-.07l-.02-.12c-.57.22-1.07-.17-1.45.04-.3.05-.4-.05-.5-.12-.1-.08-.26-.13-.35-.01a.51.51 0 0 1-.03-.17c-.05-.03-.16.2-.22.12.08-.1-.05-.1.1-.18 0-.05-.03-.05-.1-.03-.02-.01-.06-.1-.04-.17.01-.05.05-.1.14-.16-.1.01-.08-.2-.06-.33v-.03l.25-.82c.02.02.03.06.04.15 0 .04-.02.12-.05.1l.1.1c.35-.42.1-.9.26-1.36-.05.08-.08.17-.1.2l.12-.4.03.05.23-.64-.1.04c.01-.04.03-.08.04-.13.14-.2.28-.3.2-.62 0-.01-.01-.02-.02-.03.05-.18.1-.36.16-.54.08-.26.14-.52.22-.8.04-.1.08-.2.1-.3-.01 0-.02 0-.03-.01l.18-.64c.1-.04.2-.04.2-.4l-.08-.08a19.8 19.8 0 0 0 .2-.73l.15-.6.2-.84.2-.94c.04.02.08.05.14.12-.1-.1-.17-.43.02-.16v.02c.14.13.2.1.3.1.06 0 .08-.02.2.02.16.06.3.14.46.25.03-.15.35.07.33-.13.77.14 1.1.9 1.6.52.32.13.3.3.45.4l-.1-.01c.6.25.76.35 1.18.6.24.07.4-.15.75.13-.17.02-.01.1.13.18-.1-.04-.14-.02 0 .15a.33.33 0 0 1 .14 0c0 .01 0 .02-.01.03.25.1.23.05.13-.02.01-.01.02-.03 0-.08.17.26.68.4.6.57.7.4 1.3.56 1.9.9.01.12-.17.1-.35.02l.42.24c-.08.1-.27-.1-.4-.15.35.5 1.1.5 1.5 1.06h.17l.02.04c.03-.05.2-.01.3.03 0 .15-.17.2.1.4.14.24.6.42.92.6-.13-.13-.04-.15.05-.13.13.1.13.25.26.3l-.1.13c.05-.16.43.16.5.16-.01.15-.26-.1-.34-.06l.74.65c.33.16.06-.15.27-.13.24.2.53.34.72.66l.02-.18c.47.36.7.64.83 1.05.9.68 1.33 1.2 1.64 1.46.03.03.05.04.08.06-.16-.01-.3.02-.26-.02z"/><path xmlns="http://www.w3.org/2000/svg" d="M243.36 442.06h0l-.16.08zm-16.22-11.36h0a.09.09 0 0 0 .05.01l-.05-.01z"/><g xmlns="http://www.w3.org/2000/svg" fill="#fff"><path d="M179.35 425.35c.01-.01 0-.04-.06-.1l.06.1zm-1.47 11.25h0l-.02.07z"/><path d="M181.72 430.38l-.1-1.06c-.06-.2-.2-.2-.26-.53.1.1.04-.04.01-.16.03.08.06.1.06-.08-.02-.02-.04-.05-.06-.08l.01-.01c-.08-.2-.1-.16-.07-.06-.01 0-.02.01-.03.04.01-.23-.2-.58-.1-.64-.28-.6-.6-.94-.95-1.33.01-.08.12-.01.23.1l-.24-.3c.07-.05.17.15.25.23-.16-.45-.66-.67-.97-1.1l-.12-.03-.02-.03c-.02.03-.14-.02-.2-.06-.01-.1.1-.12-.1-.28-.12-.2-.5-.32-.75-.42.12.1.06.1-.01.08-.1-.07-.14-.17-.25-.18l.03-.1c0 .1-.35-.06-.4-.05-.04-.1.2.03.26 0-.48-.22-.24-.12-.73-.3-.28-.03.02.1-.13.13-.23-.07-.48-.05-.73-.18l.07.1c-.45-.02-.7-.08-1-.17-.3.04-.5.1-.7.16a6.27 6.27 0 0 0-.86.09c-.07.01-.13.03-.2.05-.25-.07-.73-.1-1.53.05l.02-.04c-.66.23-1.04.5-1.32.9-.17-.08-.44.36-.6.44v-.02c-.2.4-.67.6-.8 1 0-.02-.04-.06.01-.13-.15.26-.32.63-.42.6-.34.64-.68 1.6-.58 2.1l-.02-.04c.07.27-.05.33-.01.63-.01.01-.02.03-.03.03.07.3 0 .82.06 1.04h-.07l.1.55-.01-.2c.2.04-.06.44.16.8.08.38.58.6.66.97.15.13-.2-.1-.02.13-.08.05-.1-.1-.15.01.15.23.1.45.34.7l-.06.05c.35.3.4.75.7.88.35.3.05.38.5.6l.07.2c.16.14.2-.01.35.17-.05.04.2.22.06.18.4.38.96.45 1.54.84.18-.05.5.12.62.05 0 .06.67.17.26.2-.03 0-.1-.02-.08-.04l-.06.06c.36.23.73.08 1.1.12-.1-.03-.27-.04-.16-.08l.36.03-.08.06c.18.03.36.05.54.05l-.08-.07c.26.02.37.17.66.02.13-.08-.26-.07.01-.13.35.02.9-.01 1.33-.12-.07-.07.05-.1.16-.16l.04.07c.4-.26.23.1.64-.17l.03-.13c.32-.3.3.04.6-.38-.15.1-.16-.1.05-.18l-.01.1c.1-.08.12-.12.2-.16-.04.08.03.1.17-.01l-.05.15.2-.32c.28-.1.52-.48.68-.47 0 0 .45-.4.45-.58-.02.14.2-.1.2.02.04-.17.26-.57.4-.7l-.01.03c.45-.54.44-1.07.74-1.6-.1 0 .04-.3-.1-.25.07-.6.44-1.08.12-1.33 0-.28.1-.32.12-.47l.02.07zm17.2-7.85h0l.03.04z"/><use xmlns:xlink="http://www.w3.org/1999/xlink" xlink:href="#bt-B"/><path d="M206.2 422.2c-.01-.1-.08-.04-.12-.12.02-.06.01-.15.1-.18l-.08-.03c.02-.13.07-.2.2-.2-.01-1.12-.63-.7-.63-.7-.36.17-.27.46-.47.83-.25.27-.44.25-.62.6-.12.14-.2.3-.3.47.05.14-.14.2-.1.33h-.08c.01.05 0 .1-.05.1l-.02-.01c.01.07-.05.1-.04.14h-.02l-.03.06-.02-.03c-.01.1-.06.18-.13.23l.07.05c-.18.08-.08.24-.26.3h-.02c.07.3-.3.16-.26.45-.01-.04-.04-.02-.06-.03-.04.1-.1.18.05.28-.04.05-.08.01-.13-.02.06.04.05.1.02.16v-.04l-.07.14.13.06c-.08.04-.15-.1-.17 0l.1.07c-.1.08-.27.02-.4.06-.3.33-.36.9-.78 1.1l-.08-.04c-.1-.07.08.2-.02.15l.02.07c-.03 0-.06.01-.07-.03-.03.03-.01.05 0 .1h-.1c-.16.1-.12.32-.26.45-.27.08-.4.5-.48.76-.05.4-.7.4-.74.82-.02 0-.01.05.01.06l-.2.25s-.98 1.22.6.9l.02.02c.16-.1.24-.18.2-.36.15.1.1-.1.17-.1h.01c-.04-.17.22-.1.2-.26.01.01.05.04.03.06.03-.07.06-.18.14-.12.1-.16.28-.33.22-.52l.02.02c-.05-.12.04-.08.04-.17.01 0 .02 0 .03.01-.04-.12.1-.18.1-.25l.06.04.07-.12-.04.03c-.14-.13.16-.02.12-.17.08-.06-.2-.4-.06-.4-.04-.1.1.12.08.02.08.06.03.06.1.1.01-.08.15-.03.15-.14l.06.04c-.04-.17.2-.1.15-.25.02-.13.22.07.18-.1l.1.02c.04-.03-.08-.1 0-.12.05.04.08-.03.1.04.16-.04.05-.3.28-.33-.08-.1.03-.13-.02-.2.05.03.1-.13.15.01 0 .01-.01.02-.02.01l.05.05c.17 0 .05-.2.12-.25-.04.01-.05.04-.08-.01l.06-.07.04.05.1-.1-.07-.03c.07-.03.2.03.15-.1-.03-.06-.12-.01-.1-.08.1-.04.24-.1.32-.17-.08-.04-.05-.07-.05-.1l.06.04c-.01-.16.16.06.16-.08l.04.04-.1-.12c-.05-.17.16.05.07-.17-.02.05-.15-.08-.08-.1l.05.05c.01-.03-.01-.06.01-.07.02.04.08.07.1.03l.05.08-.05-.15c.1-.01.1-.15.2-.1 0 0 .13-.1.06-.18.04.07.1.02.16.08-.04-.08-.02-.2.07-.2h0c.17-.08.08-.3.25-.36-.07-.05.01-.08-.1-.13.01-.2.35-.1.1-.34.03-.07.1-.02.15-.04h0a.92.92 0 0 1 .14-.23c0-.06-.12-.16-.04-.2.03.06.05.02.07 0 0 .02.01.04.07.03-.01-.02-.02-.03-.02-.04.02-.05 0-.05-.02-.04-.01-.01-.02-.01-.04-.02.1 0 .1-.13.18-.07.08-.15.06-.3.1-.44.05.02.07.08.07.12l.04-.1c.06.05 0 .07 0 .1.17-.01.04-.27.22-.3l-.03-.06h.01c-.03-.02-.05-.07-.04-.1.07.03.13.1.17.04.1 0 .06-.14.08-.22-.03.02-.06-.01-.07-.04.02-.03.1 0 .08-.04l.08.05c-.08-.04-.02-.13-.05-.16.07.03.02.08.05.12.05-.15.01-.1.1-.2zm3.07 3.23v-.01z"/><path d="M211 424.78c-.03-.1-.08-.04-.14-.1.01-.06-.02-.13.06-.16l-.08-.03c0-.12.03-.17.14-.18-.2-1-.72-.6-.72-.6-.3.16-.18.42-.3.76-.2.25-.38.24-.48.55-.1.13-.14.3-.2.43.07.13-.1.17-.05.3l-.08-.01c.02.04.02.1-.03.1l-.02-.01c.02.07-.03.1-.02.12l-.02-.01-.02.05-.02-.02a.21.21 0 0 1-.08.2l.08.04c-.16.08-.03.22-.2.27l-.02-.01c.1.26-.27.15-.17.4-.01-.03-.04-.01-.06-.03-.02.08-.05.16.1.25-.03.05-.07.01-.13-.01.06.04.07.1.05.14l-.01-.03-.04.13.13.05c-.07.04-.16-.07-.16 0l.1.06c-.07.07-.25.03-.37.06-.24.3-.2.8-.55 1.02l-.08-.03c-.1-.06.1.18 0 .13l.03.07c-.03 0-.06.01-.07-.03-.02.03-.01.04.01.1l-.1-.01c-.13.1-.06.3-.17.4-.24.08-.3.47-.32.7.02.35-.6.38-.56.75-.02 0 0 .04.01.05l-.16.23s-.72 1.12.7.8l.02.02c.14-.1.2-.17.13-.33.16.07.08-.1.14-.1v.01c-.07-.15.2-.1.13-.24.01.01.05.04.04.05.01-.07.03-.16.1-.1.06-.15.2-.3.12-.47l.02.02c-.06-.1.02-.07.01-.15.01 0 .02 0 .03.01-.06-.1.08-.16.06-.23l.06.03.05-.1-.04.03c-.15-.1.15-.02.1-.16.06-.06-.24-.34-.12-.37-.05-.08.1.1.08.02.08.05.04.06.1.08-.01-.07.13-.03.12-.13l.07.04c-.07-.15.18-.1.1-.23 0-.12.22.06.15-.1l.1.02c.04-.03-.1-.1-.02-.1.05.03.08-.03.1.03.14-.05-.01-.27.2-.3-.1-.1.01-.12-.06-.18.05.02.08-.12.14.01 0 .01 0 .02-.02.01l.06.05c.16 0 .01-.17.07-.23-.03.01-.04.04-.08 0l.05-.06.05.05.1-.08-.07-.03c.06-.03.18.02.12-.1-.04-.06-.12-.01-.1-.07.08-.04.2-.1.28-.17-.08-.04-.06-.06-.06-.1l.07.04c-.04-.14.16.05.14-.08l-.08-.07c-.08-.15.16.04.04-.15-.01.04-.15-.07-.1-.1l.06.05c0-.03-.02-.05 0-.06.03.03.1.06.1.02l.06.07-.08-.13c.1-.01.06-.14.16-.1 0 0 .1-.08.03-.16.05.06.1.01.16.07-.05-.07-.06-.18.03-.17h0c.15-.08.02-.27.18-.33-.08-.04 0-.07-.1-.12-.03-.17.32-.1.05-.3.01-.06.1-.02.14-.04l.01.02c.03-.1.05-.14.1-.2-.01-.05-.14-.14-.07-.18.04.05.05.02.06 0 0 .02.02.04.07.03-.01-.01-.02-.03-.03-.04.01-.04-.01-.04-.03-.03-.01-.01-.02-.01-.04-.01.1 0 .06-.12.16-.07.05-.13 0-.28.03-.4.05.02.08.07.08.1l.02-.08c.07.04.02.06.02.1.16-.02-.01-.24.15-.28l-.04-.05h.01c-.03-.02-.06-.06-.06-.08.07.02.14.08.16.03.08 0 .04-.13.03-.2-.03.02-.05-.01-.07-.03.01-.03.08 0 .07-.04l.08.05c-.08-.04-.04-.1-.07-.14.07.02.03.07.07.1.05-.17.03-.12.08-.22zm44 .57c.01-.01 0-.04-.06-.1l.06.1zm-1.46 11.25h0l-.02.07z"/><path d="M257.37 430.38l-.1-1.06c-.06-.2-.2-.2-.26-.53.1.1.04-.04.01-.16.03.08.06.1.06-.08-.02-.02-.04-.05-.06-.08l.01-.01c-.08-.2-.1-.16-.07-.06-.01 0-.02.01-.03.04.01-.23-.2-.58-.1-.64-.28-.6-.6-.94-.95-1.33.01-.08.12-.01.23.1l-.24-.3c.07-.05.17.15.25.23-.16-.45-.66-.67-.97-1.1l-.12-.03-.02-.03c-.02.03-.14-.02-.2-.06-.01-.1.1-.12-.1-.28-.12-.2-.5-.32-.75-.42.12.1.06.1-.01.08-.1-.07-.14-.17-.25-.18l.03-.1c0 .1-.35-.06-.4-.05-.04-.1.2.03.26 0-.48-.22-.24-.12-.73-.3-.28-.03.02.1-.13.13-.23-.07-.48-.05-.73-.18l.07.1c-.45-.02-.7-.08-1-.17-.3.04-.5.1-.7.16a6.27 6.27 0 0 0-.86.09c-.07.01-.13.03-.2.05-.25-.07-.73-.1-1.53.05l.02-.04c-.66.23-1.04.5-1.32.9-.17-.08-.44.36-.6.44v-.02c-.2.4-.67.6-.8 1 0-.02-.04-.06.01-.13-.15.26-.32.63-.42.6-.34.64-.68 1.6-.58 2.1l-.02-.04c.07.27-.05.33-.01.63-.01.01-.02.03-.03.03.07.3 0 .82.06 1.04h-.1l.1.55v-.2c.2.04-.06.44.16.8.08.38.58.6.66.97.15.13-.2-.1-.02.13-.08.05-.1-.1-.15.01.15.23.1.45.34.7l-.06.05c.35.3.4.75.7.88.35.3.05.38.5.6l.07.2c.16.14.2-.01.35.17-.05.04.2.22.06.18.4.38.96.45 1.54.84.18-.05.5.12.62.05 0 .06.67.17.26.2-.03 0-.1-.02-.08-.04l-.06.06c.36.23.73.08 1.1.12-.1-.03-.27-.04-.16-.08l.36.03-.08.06c.18.03.36.05.54.05l-.08-.07c.26.02.37.17.66.02.13-.08-.26-.07.01-.13.35.02.9-.01 1.33-.12-.07-.07.05-.1.16-.16l.04.07c.4-.26.23.1.64-.17l.03-.13c.32-.3.3.04.6-.38-.15.1-.16-.1.05-.18v.1c.1-.08.12-.12.2-.16-.04.08.03.1.17-.01l-.05.15.2-.32c.28-.1.52-.48.68-.47 0 0 .45-.4.45-.58-.02.14.2-.1.2.02.04-.17.26-.57.4-.7l-.01.03c.45-.54.44-1.07.74-1.6-.1 0 .04-.3-.1-.25.07-.6.44-1.08.12-1.33 0-.28.1-.32.12-.47l.02.07zm17.23-7.85h0v.04z"/><use xmlns:xlink="http://www.w3.org/1999/xlink" xlink:href="#bt-B" x="75.65"/><path d="M281.86 422.2c-.01-.1-.08-.04-.12-.12.02-.06.01-.15.1-.18l-.08-.03c.02-.13.07-.2.2-.2-.01-1.12-.63-.7-.63-.7-.36.17-.27.46-.47.83-.25.27-.44.25-.62.6-.12.14-.2.3-.3.47.05.14-.14.2-.1.33h-.08c.01.05 0 .1-.05.1v-.01c.01.07-.05.1-.04.14h-.02l-.03.06-.02-.03c-.01.1-.06.18-.13.23l.07.05c-.18.08-.08.24-.26.3h-.02c.07.3-.3.16-.26.45-.01-.04-.04-.02-.06-.03-.04.1-.1.18.05.28-.04.05-.08.01-.13-.02.06.04.05.1.02.16l-.01-.04-.07.14.13.06c-.08.04-.15-.1-.17 0l.1.07c-.1.08-.27.02-.4.06-.3.33-.36.9-.78 1.1l-.08-.04c-.1-.07.08.2-.02.15l.02.07c-.03 0-.06.01-.07-.03-.03.03-.01.05 0 .1h-.1c-.16.1-.12.32-.26.45-.27.08-.4.5-.48.76-.05.4-.7.4-.74.82-.02 0-.01.05.01.06l-.2.25s-.98 1.22.6.9l.02.02c.16-.1.24-.18.2-.36.15.1.1-.1.17-.1h0c-.04-.17.22-.1.2-.26.01.01.05.04.03.06.03-.07.06-.18.14-.12.1-.16.28-.33.22-.52l.02.02c-.05-.12.04-.08.04-.17.01 0 .02 0 .03.01-.04-.12.1-.18.1-.25l.06.04.07-.12-.04.03c-.14-.13.16-.02.12-.17.08-.06-.2-.4-.06-.4-.04-.1.1.12.08.02.08.06.03.06.1.1.01-.08.15-.03.15-.14l.06.04c-.04-.17.2-.1.15-.25.02-.13.22.07.18-.1l.1.02c.04-.03-.08-.1 0-.12.05.04.08-.03.1.04.16-.04.05-.3.28-.33-.08-.1.03-.13-.02-.2.05.03.1-.13.15.01 0 .01-.01.02-.02.01l.05.05c.17 0 .05-.2.12-.25-.04.01-.05.04-.08-.01l.06-.07.04.05.1-.1-.07-.03c.07-.03.2.03.15-.1-.03-.06-.12-.01-.1-.08.1-.04.24-.1.32-.17-.08-.04-.05-.07-.05-.1l.06.04c-.01-.16.16.06.16-.08l.04.04-.1-.12c-.05-.17.16.05.07-.17-.02.05-.15-.08-.08-.1l.05.05c.01-.03-.01-.06.01-.07.02.04.08.07.1.03l.05.08-.05-.15c.1-.01.1-.15.2-.1 0 0 .13-.1.06-.18.04.07.1.02.16.08-.04-.08-.02-.2.07-.2h0c.17-.08.08-.3.25-.36-.07-.05.01-.08-.1-.13.01-.2.35-.1.1-.34.03-.07.1-.02.15-.04h0a.92.92 0 0 1 .14-.23c0-.06-.12-.16-.04-.2.03.06.05.02.07 0 0 .02.01.04.07.03-.01-.02-.02-.03-.02-.04.02-.05 0-.05-.02-.04-.01-.01-.02-.01-.04-.02.1 0 .1-.13.18-.07.08-.15.06-.3.1-.44.05.02.07.08.07.12l.04-.1c.06.05 0 .07 0 .1.17-.01.04-.27.22-.3l-.03-.06h.01c-.03-.02-.05-.07-.04-.1.07.03.13.1.17.04.1 0 .06-.14.08-.22-.03.02-.06-.01-.07-.04.02-.03.1 0 .08-.04l.08.05c-.08-.04-.02-.13-.05-.16.07.03.02.08.05.12.06-.15.02-.1.1-.2zm3.07 3.23v-.01h-.01z"/><path d="M286.65 424.78c-.03-.1-.08-.04-.14-.1.01-.06-.02-.13.06-.16l-.08-.03c0-.12.03-.17.14-.18-.2-1-.72-.6-.72-.6-.3.16-.18.42-.3.76-.2.25-.38.24-.48.55-.1.13-.14.3-.2.43.07.13-.1.17-.05.3l-.08-.01c.02.04.02.1-.03.1l-.02-.01c.02.07-.03.1-.02.12l-.02-.01v.05-.02a.21.21 0 0 1-.08.2l.08.04c-.16.08-.03.22-.2.27l-.02-.01c.1.26-.27.15-.17.4-.01-.03-.04-.01-.06-.03-.02.08-.05.16.1.25-.03.05-.07.01-.13-.01.06.04.07.1.05.14l-.01-.03-.04.13.13.05c-.07.04-.16-.07-.16 0l.1.06c-.07.07-.25.03-.37.06-.24.3-.2.8-.55 1.02l-.08-.03c-.1-.06.1.18 0 .13l.03.07c-.03 0-.06.01-.07-.03-.02.03-.01.04.01.1l-.1-.01c-.13.1-.06.3-.17.4-.24.08-.3.47-.32.7.02.35-.6.38-.56.75-.02 0 0 .04.01.05l-.16.23s-.72 1.12.7.8l.02.02c.14-.1.2-.17.13-.33.16.07.08-.1.14-.1l.01.01c-.07-.15.2-.1.13-.24.01.01.05.04.04.05.01-.07.03-.16.1-.1.06-.15.2-.3.12-.47l.02.02c-.06-.1.02-.07.01-.15.01 0 .02 0 .03.01-.06-.1.08-.16.06-.23l.06.03.05-.1-.04.03c-.15-.1.15-.02.1-.16.06-.06-.24-.34-.12-.37-.05-.08.1.1.08.02.08.05.04.06.1.08-.01-.07.13-.03.12-.13l.07.04c-.07-.15.18-.1.1-.23 0-.12.22.06.15-.1l.1.02c.04-.03-.1-.1-.02-.1.05.03.08-.03.1.03.14-.05-.01-.27.2-.3-.1-.1.01-.12-.06-.18.05.02.08-.12.14.01 0 .01 0 .02-.02.01l.06.05c.16 0 .01-.17.07-.23-.03.01-.04.04-.08 0l.05-.06.05.05.1-.08-.07-.03c.06-.03.18.02.12-.1-.04-.06-.12-.01-.1-.07.08-.04.2-.1.28-.17-.08-.04-.06-.06-.06-.1l.07.04c-.04-.14.16.05.14-.08l-.08-.07c-.08-.15.16.04.04-.15-.01.04-.15-.07-.1-.1l.06.05c0-.03-.02-.05 0-.06.03.03.1.06.1.02l.06.07-.08-.13c.1-.01.06-.14.16-.1 0 0 .1-.08.03-.16.05.06.1.01.16.07-.05-.07-.06-.18.03-.17h0c.15-.08.02-.27.18-.33-.08-.04 0-.07-.1-.12-.03-.17.32-.1.05-.3.01-.06.1-.02.14-.04l.01.02c.03-.1.05-.14.1-.2-.01-.05-.14-.14-.07-.18.04.05.05.02.06 0 0 .02.02.04.07.03-.01-.01-.02-.03-.03-.04.01-.04-.01-.04-.03-.03-.01-.01-.02-.01-.04-.01.1 0 .06-.12.16-.07.05-.13 0-.28.03-.4.05.02.08.07.08.1v-.08c.07.04.02.06.02.1.16-.02-.01-.24.15-.28l-.04-.05h.01c-.03-.02-.06-.06-.06-.08.07.02.14.08.16.03.08 0 .04-.13.03-.2-.03.02-.05-.01-.07-.03.01-.03.08 0 .07-.04l.08.05c-.08-.04-.04-.1-.07-.14.07.02.03.07.07.1.06-.17.03-.12.08-.22zm-16.63-174.25l.02.3-.02-.3zm-13.34-22.76l.1-.03-1.3 3.64-.01-.1-1.07 4.43c-.22.16-.42 1.56-.6 2v-.05c-.17 1.2-.73 2.36-.9 3.5 0-.05-.04-.08.02-.34-.2.82-.45 1.94-.57 1.98l-1.44 5.94v-.1c-.1.74-.23.92-.4 1.73-.02.04-.05.1-.05.08-.1.8-.6 2.26-.72 2.9l-.08.02-.4 1.54.17-.57c.12.25-.43 1.13-.62 2.28-.3 1.04-.2 2.22-.6 3.28-.06.54-.01-.5-.16.3-.1 0 .04-.38-.1-.2-.17.77-.44 1.22-.63 2.17h-.08c-.2 1.26-.73 2.28-.83 3.12-.3 1.27-.45.78-.67 2.13l-.24.48c-.17.56.01.43-.2 1.04-.05-.05-.27.77-.22.4-.48 1.38-.65 2.9-1.32 4.7.01.44-.32 1.35-.3 1.68-.07.04-.52 1.87-.35.8.02-.1.06-.25.08-.23l-.04-.15c-.42 1.02-.46 1.94-.76 2.98.1-.3.22-.72.2-.43l-.28.97v-.22l-.43 1.44.13-.18c-.23.7-.43.9-.54 1.74-.04.38.28-.64.1.1l-1.13 3.54c.1-.1.02.23-.05.57h-.08c-.25 1.3-.3.43-.56 1.72l.04.25c-.17 1.2-.32.58-.48 1.9.13-.5.22-.2.02.42l-.03-.18c-.08.35-.08.47-.16.7.02-.22-.07-.14-.2.37l.01-.36-.14 1c-.28.72-.5 1.9-.7 2.2 0 0-.5 1.57-.48 1.97.02-.34-.25.53-.25.26-.04.43-.3 1.66-.52 2.13l.02-.1-1.28 4.7c.1-.05-.18.8-.01.6-.35 1.7-1.06 3-.9 3.68-.2.76-.33.88-.45 1.27l.03-.2-.77 2.9c-.1.54.02.66-.28 1.6.02-.32-.07.07-.17.42.05-.23.05-.3-.12.15 0 .07-.02.17-.03.27-.01 0-.01.02-.02.01-.14.6-.1.5-.01.23.01.02.02 0 .06-.08-.25.6-.46 1.7-.6 1.76l-1.07 4.57c-.1.15-.05-.2.04-.64l-.3 1.06c-.08-.03.12-.6.2-.94-.47 1.2-.58 2.6-1.1 4.04l-.02.32-.03.08c.03 0-.01.34-.06.56-.12.2-.15-.06-.35.67-.22.55-.42 1.64-.6 2.4.12-.4.12-.26.1-.08-.1.36-.22.55-.27.84h-.1c.13-.12-.17.97-.17 1.12-.12.2.1-.58.07-.68l-.6 2.18c-.14.8.12-.12.1.28l-.56 2.14.15-.23c-.3 1.3-.5 2.07-.83 2.9-1.98 9.76.35 2.26.35 2.26 1.22-3.72 1.52-5.73 2.7-10.24 1.13-3.93 1.57-4.94 2.63-9.04l1.6-5.95c.13-.94.7-2.5.88-3.6l.18-.4c.07-.38.16-.82.3-1.18l.01.03c.1-.57.3-1.18.35-1.46l.01.03.18-.67v.12c.2-.98.48-1.97.74-2.83l-.1.05c.6-1.84.62-2.57 1.2-4.22l.01.03c.36-2.2 1.08-3.32 1.47-5.58-.05.28.08-.1.1-.08.25-1.02.54-2.1.38-2.16.2-.74.22-.6.3-.66-.07-.02.07-.66.23-1.24l-.04.27.43-1.65-.23.3c.28-.86.23-.18.42-1.02l-.12-.02c.35-1.2.72-1.86 1.13-3 1.4-4.85 2.54-10.15 3.98-14.62l.14-.18c.15-.05.16-1.3.32-1.44l.1-.54c.06-.14.17-.45.13-.18.14-.48.12-.5.18-.86l.22-.5c.6-1.9.9-3.57 1.5-5.6.83-2.38 1.94-7 2.57-9.65.82-3.75 2.47-7.93 3.25-11.8.05-.12.1-.45.08-.45l.92-3.48s1.1-4.22 1.63-6.88l.22-1.24.3-.1c5.3-2 5.8-4.1 5.9-4.6.2-2.1.3-15.8.3-16.4v-.1h-6.9l-.18 21.38zm1.5-20.6h4.2c0 2.9-.1 13.9-.3 15.6-.1 1-2.2 2.2-4.1 3.1l.2-18.7z"/><path d="M230.04 324.8c-.02 0-.05.07-.1.3l.1-.3zm4.16-10.86c0 .05-.01.07-.01.1v-.1zm5.5-25.5h0l-.02-.12z"/></g><defs xmlns="http://www.w3.org/2000/svg"><path id="bt-B" d="M200.05 421.6c-.06-.06.03-.08-.05-.15.06-.18.37 0 .2-.3.05-.06.12.01.16 0v.02a1.14 1.14 0 0 1 .2-.19c.02-.06-.07-.2.02-.2.02.07.04.04.06.02-.01.02 0 .04.06.05-.01-.02-.01-.03-.01-.05h.01c.03-.05.01-.06-.01-.05 0-.01-.01-.02-.03-.03.1.03.13-.1.2-.02.12-.12.15-.3.23-.4.05.03.05.1.03.14l.07-.08c.05.06-.02.07-.03.1.17.03.12-.25.3-.24l-.02-.07h.01c-.02-.03-.02-.08-.01-.1.06.04.1.13.15.08.08.02.1-.12.14-.2-.04.01-.05-.02-.05-.05.03-.02.08.02.1-.02l.06.07c-.06-.06.01-.13 0-.17.06.04-.01.08.02.13.1-.1.05-.05.16-.14.02-.1-.07-.06-.1-.15.04-.05.05-.15.14-.15l-.07-.05c.06-.13.12-.16.24-.15.3-1.1-.42-.86-.42-.86-.4.07-.4.38-.7.7-.32.2-.5.13-.77.4-.16.1-.3.25-.42.38.01.15-.2.15-.2.3l-.08-.03c-.01.05-.02.1-.08.1l-.01-.02c-.01.08-.08.1-.08.12l-.01-.02-.04.05-.01-.03c-.04.1-.1.16-.2.2l.06.07c-.2.03-.14.2-.34.22h-.01c-.02.3-.35.07-.38.37 0-.04-.04-.03-.05-.05-.06.08-.13.15-.03.3-.06.04-.08-.01-.13-.05.05.06.02.12-.02.16v-.04l-.1.12.1.1c-.1.02-.12-.12-.16-.05l.07.1c-.1.05-.27-.05-.4-.05-.4.24-.6.78-1.08.88l-.07-.06c-.08-.1.02.22-.06.14v.08c-.03-.01-.06-.01-.06-.05-.04.02-.03.04-.03.1l-.1-.03c-.18.06-.2.28-.38.37-.28.01-.54.4-.68.62-.16.37-.8.2-.95.6-.02-.01-.02.04-.01.06l-.27.2s-1.3.93.3 1.04l.01.03c.18-.06.28-.1.3-.3.12.13.13-.08.2-.06l.01.01c.01-.17.25-.05.26-.2.01.01.03.05.01.07.05-.06.1-.16.17-.08.13-.13.36-.25.36-.45l.01.03c-.01-.13.06-.07.1-.16.01.01.02.01.02.02-.01-.13.16-.14.18-.22l.04.05.1-.1-.05.02c-.1-.16.16.02.17-.13.1-.04-.07-.43.06-.42-.01-.1.05.14.07.04.06.07.01.07.07.12.03-.08.15.01.18-.1l.05.06c.01-.18.23-.06.22-.2.06-.12.2.13.2-.06l.1.05c.05-.02-.04-.12.03-.12.04.05.1-.01.1.06.17 0 .13-.28.37-.25-.04-.12.07-.12.04-.2.04.04.15-.1.14.05 0 .01-.01.02-.03 0l.03.07c.16.05.1-.17.2-.22-.04 0-.07.03-.08-.03l.08-.05.02.06.13-.06-.06-.05c.08-.01.18.08.17-.05-.01-.07-.1-.04-.07-.1.1-.01.26-.03.36-.08-.06-.06-.03-.08-.02-.1l.05.06c.03-.16.14.1.18-.04l-.05-.1c0-.18.14.1.1-.15-.03.04-.12-.12-.05-.13l.03.07c.02-.03.01-.06.03-.06.01.04.06.1.1.05l.03.1-.01-.16c.1.02.13-.13.22-.06 0 0 .15-.05.1-.16.02.07.1.04.13.12-.02-.1.04-.2.12-.17v.01c.2-.02.17-.26.36-.27z"/></defs><path xmlns="http://www.w3.org/2000/svg" d="M343.94 182.55s.48-.7.23-1.48c-.25-.82-2.87-.83-5.36-.78-2.06.04-7.58-.04-8.58-.04s1.77-1.35 3.27-2.15 2.83-3.15-.07-2.45c-3 .7-6.02 1.03-6.82 1.23l-3.98 1.67c-1.3.7-1.4.9-1.4.9s-1.34-.01-4.3.13c-.9.04-4.12-.33-8.36-.9l.12-2.73-4.06-.55-.1 2.72c-10.3-1.48-23.6-3.63-26.5-4.26-1.96-.54-6.45 1.56-11.32 4.7-1.15-13.45-2.48-27.67-3.38-33.1-1.9-11.4-12.3-48-35-47.2-3.8.1-7.5.3-11.1 2.7-.1 0-2.1 1.5-2.3 1.8-1.6 1.4-7.1 14.2-11.5 39.7-2 11.3-9 64.9-9 64.9h49.97v1.28l11.3.02 8.37-.02 2.97-.02c.05.26.17.5.24.9.01.56-.14.73-.02 1.3.01.28.1.57.14.84.14.1.04.36.17.5l-.06.07c.04.05.08.1.04.16h-.02c.06.07.04.16.07.2h-.02v.1l-.03-.01c.08.13.1.27.1.4l.08-.02c-.06.28.13.35.06.6h-.02c.28.26-.08.5.2.78-.03-.03-.04.02-.06.02.05.14.1.3.26.26.02.1-.04.1-.1.12.07-.01.12.07.14.15l-.04-.03.07.23.13-.07c-.01.13-.16.07-.1.18l.1-.02c.01.17-.14.3-.2.5.1.7.58 1.36.6 2.04l-.08.05c-.12.05.24.1.13.17l.08.05c-.02.03-.02.08-.06.05.02.07.04.06.1.1l-.05.1c.04.28.26.45.33.74-.02.4.37.95.62 1.26.4.4.26 1.2.78 1.57 0 .03.06.04.07.03.1.15.2.3.3.43 0 0 .4.52.86.68.2.08.45.07.45-.08 0-.16-.07-.4-.18-.87h.03c-.12-.2-.2-.33-.42-.37.12-.13-.1-.17-.1-.25h.01c-.2-.04-.1-.32-.27-.38.01 0 .06-.03.08 0-.08-.08-.2-.18-.1-.24-.15-.2-.3-.55-.5-.63h.03c-.14-.04-.07-.1-.17-.18.01-.01.01-.02.02-.02-.14-.05-.14-.27-.22-.33l.06-.03-.1-.2v.08c-.18.05.04-.2-.13-.3-.03-.14-.46-.13-.44-.3-.1-.04.15.01.05-.07.1-.04.07.02.14-.03-.08-.08.03-.2-.08-.3l.07-.03c-.2-.1-.02-.33-.18-.4-.12-.14.17-.18-.03-.3l.07-.1c-.01-.08-.13-.01-.1-.1.06-.01.02-.12.1-.1.04-.2-.26-.33-.17-.63-.13-.02-.1-.16-.2-.18.05-.02-.06-.25.1-.14.01.01.02.03 0 .03h.08c.1-.17-.14-.23-.16-.38-.01.05.01.1-.05.08l-.02-.13.07.01v-.2l-.07.04c.02-.1.13-.17 0-.25-.07-.03-.08.1-.13.02.02-.14.05-.35.04-.52-.08.03-.1-.01-.1-.05h.07c-.14-.15.15-.1.03-.25h.05l-.16-.01c-.18-.13.13-.1-.1-.25.02.07-.16.06-.14-.03l.07.01c-.02-.04-.06-.05-.05-.1.04.02.1 0 .08-.07l.1.03-.15-.1c.06-.1-.07-.26.03-.32 0 0 .01-.23-.1-.26.08.03.08-.1.17-.07-.1-.04-.18-.2-.1-.28h.01c.04-.26-.18-.4-.1-.64-.08.02-.05-.1-.16-.06-.14-.22.16-.45-.2-.5-.03-.1.06-.14.07-.2l.02.02c-.05-.2-.06-.25-.07-.4-.04-.07-.2-.06-.18-.2.07.04.05-.02.04-.07.01.03.04.04.07-.03-.02-.01-.03-.02-.05-.03-.01-.08-.03-.06-.03-.02-.01 0-.02 0-.04.02.07-.1-.03-.24.07-.26-.05-.24-.18-.4-.25-.6.05-.03.1.01.14.07l-.04-.14c.08-.01.05.08.08.12.1-.2-.17-.35-.07-.56l-.07-.04v-.01c-.03 0-.08-.04-.1-.07.07-.04.16-.01.15-.1.06-.1-.05-.22-.1-.33-.01.06-.05.04-.07.02-.01-.05.06-.1.03-.12l.1-.01c-.1.03-.1-.12-.15-.14.07-.03.07.07.12.08-.03-.2-.01-.1-.04-.3-.08-.1-.1.03-.17-.02-.03-.1-.1-.18-.05-.3l-.08.04c-.02-.04-.01-.06-.02-.1h.06l-.05-.23c.01-.02.01-.04.02-.06-.02-.03-.03-.05-.05-.08l-.2-.87h1.27l-.6-7.77c3.25-.1 6.82-.34 10.8-.63 6.5-.47 16.16-1.6 24.6-2.66l-.18 4.77 3.95-.33.22-4.95 13.62-1.83s6.2 1 13.2-1.7 7.5-3.6 8.4-4.2-.3-1.7-.3-1.7 2.3-1 2.4-2.4c.02-1.3-1.18-1.4-1.18-1.4zm-162 71.5l-3.65-.64c9.77.93-2.4-.96-2.43-.97l.44.62-9.83-1.73v-.05c-.04-.3-.08-.6.02-.68l-.06-.48c.05-.13.1-.4.14-.17.01-.45-.03-.46-.1-.78a2.66 2.66 0 0 0 .1-.49c-.05-1.2-.42-2.24-1.03-3.23l.01-2s.8 3.2 2.1 4.5c.8.9 1.6.5 1.6.5l.9-8.7c.2-1.7-2.2-4.7-2.8-6s-1.2-3.7-1.2-4.9c0-.2.1-.97.24-2.07a1.04 1.04 0 0 0 .66-.83l.3-2.8c.35-.52.22-1-.27-1.14l.9-5.83 3.84.73.95-3.07-4.3-.84.58-3.7-17.4-3.73-.58 4.02-7.15-1.4-.6 3.3 7.3 1.4-.88 7.5c-.53.07-.9.48-1 .98l-.3 2.7c-.1.68.38 1.17.95 1.28l-.15 2.72c-.1 2.5-.64 10.2.54 14.88-.3.23-.58.47-.84.73-.63.7-1.14 1.48-1.42 2.3-.1.1-.13.38-.1.4-.2.42-.35.9-.48 1.3-.02.1-.04.16-.06.23l-16.73-2.94c-4.9-.8-9.6 2.4-10.4 7.3l-5 28.6c-.8 4.9 2.4 9.6 7.3 10.4l47.2 8.3a10.06 10.06 0 0 1-1.09-.11l-33.63-5.9 39.23 6.9c4 .65 7.8-1.37 9.56-4.8a9.49 9.49 0 0 0 .94-2.6l5-28.6c.78-4.9-2.42-9.6-7.32-10.4zm-16.8-5.5c-.05.14-.12.26-.2.37.08-.1.16-.23.2-.37zm.37-2.65v-.06.06zm-.28 2.37c.01-.03.01-.06.02-.1-.01.03-.01.07-.02.1zm.07-.32c.01-.04.01-.08.02-.1 0 .03-.01.07-.02.1zm.06-.37c.01-.04.01-.1.02-.13 0 .05-.01.1-.02.13zm.06-.4c0-.04.01-.1.01-.13-.01.04-.01.08-.01.13zm.04-.42c0-.04.01-.08.01-.13-.01.04-.01.1-.01.13zm.03-.43c0-.04 0-.07.01-.1-.01.03-.01.07-.01.1zm-15.32-2.03a13.68 13.68 0 0 1-.23-.76l.23.76zm-1.48 3.6v.04c.06-.93.83-1.6 1.13-2.38 0 .04.06.1-.04.26.16-.3.4-.64.6-.85 1.2 3.15 2.52 3.08 3.14 3.08.4 0 .8-.4 1.2-.5.5 0 1.1.1 1.3.5.3.7 1.2 1.3 2.1 1.3 1.6 0 1.5-1.3 2.2-1.3.5 0 .9.7 1.5 1.2.87.63 2.1.63 2.84-.04a2.11 2.11 0 0 0 .07.48c-.05.13-.12.25-.18.38-.06.42.2.32.05.8-.03-.02-.07.05-.1.13l-15.94-2.8c.03-.17.06-.2.1-.3z" fill="#fff"/><path xmlns="http://www.w3.org/2000/svg" d="M121.46 246.46c.05-.08.08-.15.12-.23l-.12.23zm33.44-21.43l1.14-.63c.04.04.07.1.12.13.08.06.18.1.27.12l-.13 2.4c0 .32.15.5.35.5.2.1.37-.17.37-.37l.07-2.46a1.21 1.21 0 0 0 .74-.47 1.2 1.2 0 0 0-.28-1.67 1.2 1.2 0 0 0-1.67.28c-.2.27-.26.6-.2.9l-1.3.7c-.23.2-.2.36-.12.52.15.24.5.1.63.04z"/><path xmlns="http://www.w3.org/2000/svg" d="M345.57 183.7c-.03-.27-.12-.55-.28-.8-.08-.12-.18-.24-.3-.33-.1-.1-.25-.18-.26-.2-.07-.04-.15-.06-.23-.07-.02 0 .01-.02.01-.03-.01.01-.05.04-.04.05.04.03.1.1.17.17h0c-.1-.06-.18-.08-.24-.1-.01-.02-.01-.04-.02-.05.1-.16.14-.22.18-.25.02-.03.04-.03.07-.14.02-.18.1-.4-.04-.98v-.03l-.1.07c-.1-.4-.53-.62-.8-.72a5.7 5.7 0 0 0-.8-.22c-.5-.1-.98-.16-1.45-.2l-3-.18-3.57-.02-2.57.01-.28.01c-.03 0-.13.01-.1-.05.02-.03.06-.06.1-.08.14-.1.3-.2.46-.28l1.4-.75a4.28 4.28 0 0 0 1.47-1.43c.23-.4.4-.9.27-1.32-.12-.45-.58-.7-1.05-.72-.46-.06-.82.04-1.12.1l-.87.2-3.45.64-1.72.26-.9.16-.84.3-3.17 1.3-.4.1c-.05-.01-.2.08-.43.2l-.36.25c-.12.1-.32.25-.3.25-.01.03-.03.02-.05.03.04.01-.17.02-.28.04l-.36.03c-.22.01-.38.01-.45-.01l-1.03.1c-.3-.01-.9-.02-.4-.06l-1.65.1-.95-.12-7.1-.8-.27-1.88c.3-.04.32-.15-.12-.37-.05-.08-.1-.1-.13-.06-.37-.16-.96-.37-1.87-.65l.05-.02-.5-.1-.4-.07c-.1-.26-.2-.35-.16-.12-.27-.66-1-.83-1.66-.9l-.66-.1-.58-.1-2.1-.43c-1.28-.27-2.3-.45-2.96-.28-1.56-.26-1.82-.48-2.62-.66l.38.04-5.9-1.15c-1.08-.18-1.3.05-3.2-.46.64.05-.15-.12-.84-.3.45.1.6.1-.3-.2-.14 0-.32-.05-.5-.1 0-.01-.04-.03-.02-.03-1.08-.36-.9-.3-.42-.06-.03 0 0 .05.15.13-.53-.28-1.3-.6-1.85-1.03-.57-.4-1-.8-.97-.9-1.28-1.15-2.17-2.43-3.02-3.65l-2.32-3.8c-.08-.35.33.25.78 1l-1.04-1.9c.13-.04.64 1.08 1 1.65-1.03-2.38-2.66-4.64-3.78-7.48l-.37-.52-.06-.17c-.05.03-.4-.55-.62-.96-.08-.44.26-.1-.4-1.45-.4-1.13-1.48-3.05-2.2-4.45.33.77.16.55-.03.24-.32-.7-.4-1.13-.68-1.64l.1-.13c-.01.33-.96-1.73-1.14-1.96-.07-.44.58 1.03.74 1.16l-1.9-4.13c-.77-1.42-.01.33-.46-.32l-1.87-4.05.08.53c-1.2-2.4-1.83-3.88-2.44-5.58l-1.17-2.27-1.1-3.42-1.03-3.08-.5-1.6-.58-1.6c-.8-2.15-1.83-4.3-3.1-6.3-2.5-4.02-6.06-7.42-9.78-9.76a4.73 4.73 0 0 0-.87-.53c-.55-.38-2.2-1.02-2.4-1.08-1.23-.44-2.62-1.08-3.6-1.52-.05-.03-.1-.07-.14-.1-.38-.28-1-.5-1.92-.88.7.34.84.5.6.43-.13-.03-.35-.1-.65-.23l-.5-.23c-.2-.06-.4-.14-.62-.2l.5.04c-1.02-.3-1.37-.36-2.03-.6.3.06.4.05.23-.04-.1-.04-.24-.1-.46-.2-.23-.06-.53-.1-.92-.17.35.02.7 0 1.06.05-.98-.13-1.96-.2-2.93-.3a16.95 16.95 0 0 0-1.57-.16l.84.66a20.08 20.08 0 0 0-3.62-1.16c-4.48-.95-9.44-.72-15.68 1.23-5.47 1.77-8.7 3.5-11.87 5.3-3.16 1.84-6.24 3.97-10.74 7.7-4.33 3.55-8.7 7.65-12.36 11.73-.8 1.04-1.95 2.4-3.17 3.82-1.15 1.46-2.35 2.96-3.2 4.25l-.78.9c-.55.9-1.26 1.94-1.9 2.8l.01-.08c-.77 1.4-1.77 2.87-2.15 3.57v-.08l-.93 1.68.12-.3c-.64 1.23-1.33 2.45-1.9 3.7-.6 1.23-1.25 2.4-1.76 3.55l.22-.13c-.58 1.2-1.08 2.22-1.46 3.15l-1.02 2.6c-.33.82-.6 1.64-.92 2.53l-1.12 2.98-.01-.07c-1.54 5.9-3.06 9.14-4.28 15.3.15-.77-.15.3-.17.24-.67 2.8-1.35 5.8-1.08 5.9-.48 2.04-.48 1.64-.65 1.88.12.02-.23 1.8-.6 3.4l.12-.74-.98 4.6.43-.85c-.6 2.4-.42.56-.86 2.9l.2.01c-.76 3.35-1.46 5.27-2.26 8.5l-.97 4.84-.7 3.8-.2 1.06-.1.53-.05.26c-.01.08-.07.2.06.2l.78.14c-.08.2-.17.43-.25.67-.04.13-.1.26-.14.4-.05.16-.1.23-.17.52l-.01-.08-.25 1.15.78.16.64.1c.28.04.56.06.84.06.08.2.86.18 1.1.3l-.03.01c.67-.01 1.3.36 1.95.36-.03.01-.05.05-.2.03.46.06 1.08.15 1.1.25a16.52 16.52 0 0 1 .83.15l-.62 6.73c-.44.24-.77.68-.87 1.26l-.3 2.68c-.1.62.17 1.2.66 1.54-.1 1.17-.17 2.5-.23 4.3a82.74 82.74 0 0 0-.08 6.1c-.14.05-.27.1-.42.14l-.2.2h-.08c.03.05-.2.23-.37.33-.2-.03-.1-.25-.7.02-.48.18-1.2.8-1.7 1.24.3-.2.24-.08.14.04-.24.2-.45.24-.6.44l-.13-.1c.2.03-.52.66-.56.8-.22.04.3-.4.3-.5-.5.42-.58.55-.68.67s-.2.24-.62.73c-.35.58.2 0 .1.33-.34.5-.56 1.02-1 1.53.07-.04.15-.08.23-.1-.45 1-.75 1.56-1.15 2.18a13.1 13.1 0 0 0-.3 1.7l-.03.12-1.03-.16c.58.14 1.36.27.82.26l-1.83-.34.4-.03-2.72-.54.35.2c-1.33-.3-1.76-.6-3.3-.68-.7-.02 1.24.4-.18.18-.9-.2-1.94-.47-3.2-.7-1.32-.2-2.75-.14-4 .2.27.08-.4.23-1.05.54l-.12-.1c-1.22.64-1.43.77-1.7.83-.24.08-.54.12-1.5 1.1-.08.16-.17.3-.23.47l-.76 1.04c-.17.23-.3.34-.42.5-.2.3-.53.6-.86 1.95.3-.82.37-.55.15.23-.03.04-.07.1-.1.16-.03.06-.06.14-.1.2 0-.04-.01-.07-.01-.1-.02.1-.04.16-.05.24-.2.45-.37 1.04-.5 1.62l-.02-.4-.03.62c-.18.77-.27 1.44-.27 1.44-.08.55-.13 1.07-.17 1.58-.18 1.03-.33 2-.5 2.35 0 0-.6 2.98-.54 3.7-.01-.62-.34 1.02-.4.53-.01.8-.3 3.1-.6 4l.01-.18c-.73 3.37-.82 5.83-1.52 8.85.17-.1-.2 1.48.06 1.1-.2 1.6-.53 3-.78 4.18-.26 1.27-.2 2.38.15 2.95l.26 1.6c.05.37.1.65.24 1.04l-.17-.34c.55 1.4 1.1 2.2 1.66 2.86.56.66 1.1 1.23 2 1.87.97.54 1.2.5 3.02 1.14-.46-.06-.17.05.3.16l-.04.48 3.43.7c-.18-.17.35-.08.94 0 .04.01.08.01.12.02l.05.13c2.45.25.84.43 3.26.7l.45-.1c2.2.14 1.12.46 3.6.55-.4-.06-.53-.14-.45-.18l.92.15h-.03c.1.02.2.02.3.03l.92.15c-.25.02-.03.15.82.28l-.66.04 1.84.1c1.37.37 3.6.6 4.14.87 0 0 2.98.6 3.7.54-.62.01 1.02.34.53.4.68.01 2.45.22 3.5.47a.74.74 0 0 0 .19.05c.1.03.2.05.3.08h-.18c3.37.74 5.83.83 8.84 1.53-.05-.07.22-.05.52-.01l4.7.72c.68.15 1.27.26 1.78.3l.9.16a80.4 80.4 0 0 0 4.05.83l2.37.42 1.24.2a11.71 11.71 0 0 0 1.38.14c.94.04 1.9-.08 2.8-.3.9-.25 1.75-.58 2.52-1.02 1.43-.82 2.5-1.95 3.23-3.03.88-1.12 1.4-2.28 1.7-3.4.2-.75.25-1.33.34-1.96.08-.62.14-1.23.2-1.86.35-.34.54-2.93.78-3.76l.01.08a7.18 7.18 0 0 1 .05-.46c.64-3.05 1.26-6.1 1.72-9.07.03-.1.06-.17.1-.18.53-3.26 1.35-7.64 1.63-10.25l.06-.34.24-1.46.1-.97c0-.34.02-.7 0-1.05a10.07 10.07 0 0 0-1.3-4.43c-.32-.56-.7-1.06-1.13-1.53l.02-.08a9.59 9.59 0 0 0-2.46-2.02c.35.2.66.45.98.68a.43.43 0 0 1-.22-.07c-.1-.07-.2-.15-.3-.2-.07-.05-.14-.08-.22-.12-.2-.14-.4-.3-.67-.45-.7-.43-1.73-.9-2.87-1-1.3-.25-2.67-.2-4.03-.3l-1.54-.4-.24-.2c-.04-.13-.53-.13-1-.14a21.1 21.1 0 0 1-1.51-.32c.12-.4.22-.86.33-1.37.06-.55.18-1.14.16-1.7-.14.1-.15-.2-.2-.48l.12-.04c-.24-1.14.25-.45-.05-1.6l-.2-.17c-.2-.5-.2-.63-.18-.8.01-.16 0-.34-.33-.84.15.43-.2.3-.3-.26l.15.1c-.1-.3-.2-.36-.27-.55.14.14.2.02-.01-.4l.27.22-.57-.7c-.04-.17-.1-.34-.2-.53-.1-.17-.22-.33-.33-.5-.22-.3-.4-.6-.42-.75 0 0-.05-.08-.12-.2-.08-.12-.18-.3-.32-.42-.2-.2-.43-.43-.6-.55l.07-.5c.02-.14.04-.37.04-.57-.02-.2-.02-.4-.06-.56l.02-.27c.05-.07-.1-.45-.3-.78-.2-.34-.42-.66-.4-.78l-.34-.5c-.06-.16-.22-.48-.05-.24-.28-.48-.3-.48-.54-.8l-.24-.54c-.27-.46-.55-.9-.76-1.3-.2-.4-.4-.85-.55-1.3-.32-.9-.6-1.9-.7-2.95-.02-.33 0-.62.06-1l.18-1.26c.01-.04.01-.08.02-.13.28-.24.48-.58.55-1l.3-2.7c.25-.44.3-.92.1-1.3-.06-.1-.15-.2-.24-.3l.36-2.9c.06-.6.15-1.25.25-1.88.27.02.53.02.8.1-.17-.06-.4-.1-.24-.1l.54.1-.12.04.8.2-.1-.1c.4.1.5.27.97.25.2.01-.01-.06-.05-.1-.05-.03-.13-.06.14-.02l1.17.3.64-1.77c-.1.04-.04-.14 0-.33h.08c.06-.36.12-.4.18-.46.03-.03.06-.05.1-.1a1.33 1.33 0 0 0 .04-.11c.03.01.07.01.1.02l.57-1.64.4-1.13.32-.5c.28-.16.85-3.45 1.2-3.84l.4-1.44c.18-.38.52-1.2.3-.48.47-1.3.45-1.34.74-2.3l.64-1.34c2-5.06 3.45-9.46 5.8-14.66 1.52-3.07 3.56-7.6 6.12-11.82 1.13-1.85 2.4-3.65 3.64-5.34-.23 1.14-.47 2.3-.78 3.5l-.08.9-.07.25c.06 0-.07.95-.18 1.57-.24.57-.25-.1-.7 1.97-.46 1.6-.93 4.65-1.32 6.8.26-1.15.25-.76.18-.26-.2 1.03-.45 1.6-.57 2.4l-.14.05c.08.17-.45 2.78-.47 3.14-.24.56.24-1.62.2-1.9l-1.3 6.22c-.35 2.24.23-.37.14.7-.38 1.96-.67 3.9-1.24 6.1l.3-.68c-.66 3.7-1.14 5.88-1.8 8.32l-.97 5.97-1.5 7.22c-.06.6-.01 1.15.12 1.66.08.54.3 1.2.8 1.87 1.4 1.9 4.8 3.3 9.46 3.97l-.26.02c2.8.35 5.1.38 7.15.36a48.75 48.75 0 0 0 5.8-.44c.63.26 4.56-.36 5.86-.43l-.12.04c3.34-.6 6.95-.72 10.14-1.47-.12.04-.18.13-.92.26 2.35-.4 5.56-1.2 5.76-1.12 2.8-.7 6.13-1.84 8.92-3.6.67-.48 1.36-.9 1.95-1.4.57-.53 1.18-.97 1.63-1.53.97-1.03 1.66-2.08 2.1-2.92l-.1.25c.48-.98.82-1.6 1.1-2.26.33-.65.6-1.36.93-2.5.06-.12.1-.28.1-.25.53-2.27 1.37-6.5 1.45-8.4l.12-.1.3-4.5-.13 1.68c-.27-.6.42-3.38.37-6.65.2-3.04-.36-6.2-.1-9.35-.1-1.5.2 1.33.15-.92.16-.07.07 1.06.2.48-.01-2.2.3-3.62.26-6.35l.13-.1c-.12-3.57.34-6.7.18-9.1-.02-3.67.42-2.45.25-6.28l.2-1.48c.06-1.64-.2-1.18-.08-3 .1.1.1-2.3.2-1.23.22-4.1-.15-8.34.1-13.75-.2-1.17-.12-3.9-.28-4.78.1-.14-.1-5.47.18-2.4.02.26.03.73-.01.7l.13.36c.17-3.1-.25-5.62-.37-8.7 0 .9.07 2.12-.05 1.32-.03-.95-.08-1.9-.17-2.87l.15.6-.16-2.15-.2-2.08-.06.6c-.15-2.05.01-2.8-.4-5.1-.2-1.04.03 1.97-.23-.2-.2-2.76-.57-6.97-1.68-10.5-.06.38-.27-.58-.72-1.5l.07-.16-.5-1.1-.35-.67c-.17-.35-.23-.52-.28-.7s-.1-.35-.28-.7c-.1-.17-.26-.4-.46-.67 1.22.97 2.25 1.8 2.53 2.16l3 5.22c1.57 2.66 3.53 5.93 4.53 8.66 1.02 2.72 1.4 4.73 1.58 4.2.04-.17.07-.6 0-1.34l.25 1.3 1.05 5.73c-3.5-14-1.25.3-1.25.3 1.25 8.54 2.45 12.84 4.4 22.92 1.55 8.9 1.72 11.3 3.5 20.47l2.5 13.34c.58 2 1.03 5.63 1.65 8l.05.95c.2.82.43 1.8.52 2.63l-.04-.05c.32 1.22.52 2.63.68 3.24l-.04-.05.3 1.5-.1-.25c.5 2.15.9 4.37 1.22 6.34l.1-.2c.66 4.23 1.05 5.68 1.75 9.6l-.05-.04c.4 1.2.8 2.3 1.4 3.33.6 1.02 1.65 1.9 2.84 2.22.3.06.6.15.88.17l.87.04c.56-.04 1.12-.07 1.72-.23a5.04 5.04 0 0 0 1.83-.83c.6-.44 1.08-1.1 1.37-1.83-.3.72.22-.27.2-.2.5-1.34.48-2.65.44-3.6-.05-.96-.2-1.6-.33-1.6-.14-1.7-.04-1.4.05-1.63-.12.02-.35-1.44-.55-2.75l.13.6a71.92 71.92 0 0 0-.66-3.75l-.1.78c-.3-2 .2-.57-.24-2.44l-.2.06a43.05 43.05 0 0 1-.41-2.51l1.92.1-.42-.13c1.5.08 2.02.33 3.7.13.76-.1-1.4-.16.16-.2 2 .1 4.98.12 7.52.01-.25-.13.44-.16 1.14-.23l.1.12c2.68-.36 1 .2 3.66-.14l.46-.2c2.38-.46 1.3.15 3.97-.46-1.08.13-.5-.22.75-.3l-.3.15.78-.12c.28-.04.6-.08.96-.2-.3.13-.4.2-.17.17a1.35 1.35 0 0 0 .53-.18 1.49 1.49 0 0 0 .69-.76c-.07.27-.23.5-.42.7.22-.2.4-.43.5-.7l.02.05c.7-.16.27.14.92.01l.1-.1c.57-.2.33.13.96-.13-.26.03-.13-.15.18-.15l-.07.08c.2-.03.2-.06.4-.06-.16.05-.08.1.37.06l-.28.1.8-.2h.2c.03-.3.04-.68.06-1 0-.08.01-.15.01-.23l.01-.12a.43.43 0 0 1 .05-.16s.1-.8-.02-1c.06.17.1-.28.18-.15-.07-.2-.1-.84-.01-1.08l.01.05c.06-.44.05-.83.04-1.2l1.78-.27.8-.03c.7-.13 1.54-.27 2.26-.32l-.04.03c1.06-.2 2.26-.33 2.78-.42l-.04.03 1.3-.18-.22.06 2.78-.43 1.36-.2.17-.02c.03 0 .03-.01.04 0l.3.04c.23.02.45.05.67.07l-.14-.1c1.85.2 3.12.1 4.33.01 1.2-.1 2.37-.27 4.02-.56l-.04.03a52.65 52.65 0 0 0 5.19-1.66c1.56-.58 3.14-1.16 5.03-2.26-.47.27.23-.07.2-.03.9-.47 1.8-1.14 2.37-1.62.22-.16.45-.43.5-.68.07-.25.04-.5-.01-.67-.13-.4-.24-.44-.27-.42-.08-.14-.17-.23-.2-.28.2-.1.25-.08.3-.07.05-.1 1.14-.68 1.7-1.74a3.03 3.03 0 0 1-.3.53c.28-.4.55-.94.48-1.55zm-196.34 37.74c.05-.3.27-.6.65-.6a.41.41 0 0 1 .11.01l1.12.1c-.58 1.28-.7 2.7-.4 4l-1.2-.1c-.33-.05-.65-.3-.58-.75l.3-2.68zm.37 23.26l-.06-.1c.01-.01.01-.02.02-.02.01.03.02.08.04.12zm-.06-.1c.4 1.03.86 2.1 1.57 3l.01-.13c.05.07.1.13.17.2a30.85 30.85 0 0 1-2.21-.49c-.25.02-.6-.01-.98-.06.28-.78.74-1.68 1.44-2.5zm11 4.24c.2.16.44.44.72.7l-.6-.2c-.35-.07-.55-.08-.7-.1.05-.05.1-.1.15-.16.23-.3.16-.24.23-.3.05-.04.13-.04.22 0-.08-.04.01.06-.01.07zm5-.07c.05.6.05 1.18 0 1.7-.85-.12-1.27-.23-1.6-.35.3-.1.8-.3 1.16-.7-.07.1-.17.18-.25.27.3-.23.54-.56.68-.92zm-10.07-.45l-.8-.12c.06-.03.1-.06.13-.06.03-.01.06-.01.08-.01.08.01.16.01.24.03.15.02.32.1.34.14h-.02c.01 0 .01.01.02.01zm26.5 27.37c.18-.37.26.07.5-1.3.3-1.06.48-3.08.67-4.5-.15.76-.17.5-.16.17.12-.68.3-1.06.34-1.6l.17-.04c-.1.12-.06-.33 0-.84.04-.1.07-.2.1-.3-.01.15-.02.28-.01.32.03-.2.06-.4.1-.55a21.08 21.08 0 0 0 .71-2.62c.36-1.85.3-3.67-.1-5.48-.2-.9-.53-1.8-1.04-2.6-.24-.43-.55-.82-.9-1.17.12.03.24.05.37.08.73.2 1.4.5 2.06.9a8.51 8.51 0 0 1 1.69 1.4c.6.65 1.04 1.37 1.37 2.08.03.1.07.16.1.25l-.1-.12c.58 1.55.63 2.93.52 4.13-.04.57-.17 1.25-.24 1.85-.08.62-.14 1.23-.2 1.85-.35.34-.54 2.93-.78 3.75v-.08c-.01.15-.03.3-.05.45-.64 3.05-1.26 6.1-1.72 9.06-.03.1-.06.17-.1.18-.53 3.25-1.35 7.62-1.63 10.24l-.06.34c-.07.4-.15.92-.26 1.43-.1.48-.27 1.02-.5 1.57-.46 1.1-1.24 2.2-2.22 3.1-1 .88-2.17 1.5-3.26 1.83-.65.2-1.24.3-1.76.35l-1.32-.05c.23-.07.07-.18-.3-.32a5.54 5.54 0 0 0 .9-.67c.32-.28.74-.6 1.47-1.23-.4.5.2-.02.68-.58-.3.36-.37.5.33-.18.1-.15.18-.32.27-.48.01 0 .04-.03.04-.01.67-1.03.48-.9.2-.4 0-.03-.04 0-.17.12.42-.47.83-1.26 1.1-1.96.26-.7.4-1.28.5-1.34.6-3.4.8-5.8 1.22-8.6.15-.3.1.37.01 1.18l.3-1.98c.13.04-.12 1.15-.2 1.76.62-2.3.63-4.88 1.3-7.6v-.6l.05-.16c-.07.01-.04-.62.02-1.03zm-7.55-.4c1.03-.2.86-.1 1.02-.02-.03-.1.85-.4 1.62-.72l-.34.2c.74-.3 1.5-.64 2.16-1.12l-.52.06c1.1-.66.46.1 1.4-.73l-.14-.14c.57-.48 1.02-.9 1.44-1.33-1.07 5.58-1.68 7.9-2.78 14.73l-.97 5.63c-.14.85-.37 1.6-.73 2.34-.36.72-.85 1.37-1.4 1.93-.45.6-1.3 1.26-2.3 1.68-.88.38-1.84.57-2.67.7l-1.1-.23c-7.05-1.56-10.8-1.8-19.27-3.18-7.42-1.38-9.35-2-17.08-3.24l-11.1-1.9c-.75-.08-1.75-.46-2.6-1.1-.88-.63-1.6-1.48-2.15-2.2-.1-.2-.17-.44-.23-.67a4.43 4.43 0 0 1-.69-1.83l.04.03c-.32-.88-.24-1.95-.25-2.4l.03.04c.04-.37.06-.72.14-1.17l.01.23a69.04 69.04 0 0 1 .87-5.33l-.17.1c.78-3.5.7-4.83 1.45-7.97l.03.05c.17-2.1.52-3.7.88-5.36a10.35 10.35 0 0 0 1.43 2.48c.84 1.08 2.06 2.1 3.65 2.8.68.3 1.36.53 1.93.7l1.56.4 2.65.67c1.7.4 3.43.8 6.2 1.27 2.63.52 5.46.98 8.04 1.4 1.26.01 3.38.6 4.86.7l.54.22c.5.03 1.1.1 1.6.25l-.04.03c.76.04 1.6.25 1.97.27l-.04.03.9.15-.16.02c1.32.14 2.66.37 3.83.62l-.07-.16c2.5.6 3.47.47 5.7 1.08l-.04.03c2.94.18 4.68 1.04 7.8.6-.4.06.17.07.14.1 1.45-.1 3-.4 2.96-.7zm-7.14-40.8c.8 1.2.32.93 1.2 2.1l.2.53c.27.54.33.32.57.94-.06-.01.25.77.07.45.1.34.2.67.2.97v.2l-.02.3c-.01.2-.03.42-.05.64-.06.86-.14 1.78-.33 2.8.08.46-.1 1.5-.05 1.84-.06.05-.22 2.08-.22.9 0-.1.02-.28.04-.26l-.06-.15c-.13.58-.17 1.12-.2 1.66l-.01.2c0 .07.01.04.01.06.01.02.01.05.02.08.02.08-.08.08-.13.07.08.05.2-.01.15.07-.1.02-.2 0-.3-.08.05.01.06-.01.1-.02-.12-.05-.56-.52-.77-.9.01.07.03.14.05.2-.37-.6-.36-.9-.8-1.63-.2-.33.18.7-.15-.03-.2-.57-.43-1.36-.6-2.15l-1.27.17v.14c-.06.01-.05.01 0 0l-.05 1.5c.1-.12.08.24.08.6l-.08.04c.01 1.4-.17.52-.25 1.85l-.03-.12.1.36c-.05.57-.15.62-.25.7-.1.08-.14.18-.54.47.34-.2.28.1-.28.2.04-.03.08-.07.12-.1-.28.07-.4.1-.6.07.18-.04.1-.06-.32-.15.1 0 .2-.02.3-.03-.26.02-.54-.03-.8-.14-.2-.15-.53-.55-.92-.92-.27-.26-.62-.47-.92-.5a1.47 1.47 0 0 0-.67.09s-.17.07-.38.3c-.25.3-.32.42-.44.54-.2.23-.52.3-.7.36.25-.07-.46-.1-.24-.17-.15.03-.5 0-.8-.17-.3-.16-.53-.45-.55-.6.01.02.02.03.04.05-.02-.04-.04-.1-.06-.13-.18-.4-.64-.7-.94-.77-.33-.1-.56-.13-.88-.13-.2-.02-.4.05-.58.13-.15.07-.25.13-.35.2-.18.1-.33.2-.38.2-.46.08-1.06-.08-1.46-.7-.03.13-.47-.6-.45-.36-.98-1.45-1-3.1-1.5-3.6-.2-.8-.13-.97-.18-1.4l.05.2c-.27-1.53-.3-2-.37-3.16-.06-.58-.24-.66-.23-1.72.07.34.05-.1.04-.48.02.25.04.33.07-.2-.02-.07-.03-.18-.05-.3 0 0 .01-.03.02-.01-.03-.66-.05-.54-.05-.24-.01-.02-.02.01-.04.1.07-.68 0-1.9.1-1.98v-5.05c.06-.18.1.2.1.7l.03-1.18c.08.01.02.68.02 1.04.13-1 .1-2.03.14-3.13l1.26.12c.44 1.04 1.16 1.98 2.15 2.7a6.29 6.29 0 0 0 3.64 1.16c1.97 0 3.92-.92 5.15-2.65.04-.06.08-.12.12-.2l3.65.33c.1.01.18.02.26.02.04 0 .08-.02.12-.02-.01.34-.03.68-.1 1.02.03.6-.1-.54-.1.36-.1.03-.03-.43-.12-.2-.01.92-.02 1.48.26 2.52l-.06.06c.43 1.3.6 2.56 1.22 3.36zm-14.73-14c1.7-2.38 5-2.95 7.4-1.25 2.38 1.7 2.94 5 1.25 7.4s-5 2.95-7.4 1.25c-2.38-1.7-2.94-5-1.25-7.4h0zm14.4 2.4l-.07.1-.3 2.9c-.03.17-.1.3-.22.4-.1.08-.25.12-.44.1l-3.25-.3a6.32 6.32 0 0 0 .34-3.97l3.82.36h.05c.12 0 .18.03.2.05.02.05.02.2-.1.38zm.35-5.02c-.02.05-.04.1-.04.1-.02.87-.36 2.5-.42 3.2l-.07.03-.04.26-4.08-.4a6.29 6.29 0 0 0-2.13-2.64 6.31 6.31 0 0 0-8.78 1.49h0c-.02.03-.04.07-.06.1l-1.54-.15c.04-.24.1-.42.1-.65l.1-.03c-.1.15.02-1.06 0-1.2.1-.22-.01.63.03.74l.27-2.42c.04-.87-.1.15-.14-.28.08-.76.1-1.5.28-2.37l-.12.26c.01-.15.03-.3.04-.43.62.1 1.2.2 1.56.17l-.05.02c.4-.03.5.08.96.1.02.02.05.03.05.03.45-.02 1.26.22 1.6.24v.07l.86.15-.32-.08c.15-.16.63.24 1.27.24.58.13 1.25-.15 1.83.05.3-.03-.28.1.16.1 0 .1-.2.02-.12.12.43.04.67.23 1.2.26v.08c.7 0 1.26.34 1.74.3.7.07.43.3 1.18.3l.26.15c.3.08.25-.08.58.04-.03.06.43.13.2.15.76.25 1.62.16 2.6.53.25-.08.75.1.94.03.01.02.1.04.22.07-.04.4-.1.7-.17 1.26zm4.5-2.36l-.2.36-.1.2-.05.05-.04.12-3.38-.55c-1.3-.2-2.58-.44-3.74-.76l-.1-.1c-.02-.14-.73.05-.8-.08h-.3c-.08-.04-.25-.1-.1-.1-.27-.06-.28-.04-.48-.04l-.28-.13c-1.06-.26-2-.3-3.1-.53-1.32-.42-3.9-.76-5.37-.95-2.1-.2-4.4-1.16-6.54-1.35-.06-.03-.25-.02-.25-.01l-1.92-.4a20.77 20.77 0 0 0-1.06-.19l.16-1.28a5.96 5.96 0 0 0 .04-.42l19.1 3.5 4.73.92 4.08.83c-.01.02-.01.03-.02.07l.1.03c-.12.34-.25.58-.38.82zm136.1-38.27c-.27 1.9-.07 2.92-.1 5.2-.13 2-.32 2.54-.34 4.62-.06 1-.07 2.06-.1 3.03.1.47-.05 1.28.03 1.83l-.08.2c.03.2.04.4 0 .6l-.02-.01c.04.28 0 .6.02.74l-.02-.01-.01.34-.03-.06a7.61 7.61 0 0 1-.03 1.44l.1-.03c-.14.95.03 1.3-.13 2.16l-.02-.01c.1.55.03.98-.03 1.4-.03.22-.06.43-.07.67-.01.12-.01.24 0 .36.01.1.01.32.04.32-.03-.04-.05.01-.07 0l.02.16c-.05.03-.1.08-.08.18h-.1c-.05 0-.08-.01-.1-.02-.04-.02-.03-.05-.06-.08.01.07-.3.13-.6.16l.13-.04-.84.1.18.13c-.45 0-.13-.16-.55-.1l.02.12c-.15.01-.26 0-.35 0l-.01-.28-.04-.5c.2-1.55.12-4.02.3-4.66 0 0 .2-3.35.05-4.1.1.67.2-1.18.32-.67-.1-.86-.1-3.4.07-4.45l.01.2c.28-3.82.05-6.46.34-9.9-.04.04-.06-.04-.07-.18l.64.07c.64.06 1.28.1 1.75.1-.1.4-.17.95-.17.95zm34.85 10.33c-.01.02-.02.03-.05.06l-.16.14c-.6.44-1.28.9-2 1.3-.7.38-1.34.68-1.63.75l-1.48.64c-.78.34-1.65.7-1.96.88.55-.3-1.04.3-.62.05-.7.38-2.86 1.18-3.8 1.27l.17-.05c-1.66.37-3.1.6-4.5.75s-2.8.2-4.3.02c.07.05-.3.03-.63 0l-.32-.03a1.93 1.93 0 0 0-.26.05c-.1.03-.12.05-.01.06-3.2.56-5.9.58-7 1.08-1.46.2-1.74.15-2.5.23l.35-.06-3.46.48c-.07-.01-.02-.4-.13-.3-.07-.86.3-1.54-.03-1.87 0-.4.1-.46.13-.65l.01.1a20.62 20.62 0 0 1 .04-1.48c-.02-.27-.18-.32-.12-.8.06.16.05-.04.06-.22 0 .12.03.15.08-.08-.02-.03-.03-.1-.04-.13.01 0 .01-.01.02-.01-.01-.3-.03-.25-.05-.1-.01-.01-.02 0-.04.05.1-.3.03-.87.14-.9.01-.9-.07-1.56-.08-2.3.06-.08.1.1.1.32v-.54c.08.01.03.3.04.47.16-.63-.07-1.32.08-2.06l-.06-.16.01-.04c-.03 0-.07-.17-.08-.28.07-.1.16.01.17-.36.08-.3 0-.83-.02-1.22-.02.2-.06.14-.08.05.01-.18.08-.3.06-.43h.1c-.1.07-.07-.5-.1-.56.07-.1.05.3.1.34l.04-1.1c-.05-.4-.1.07-.17-.12 0-.35-.05-.7.02-1.1l-.1.12c-.01-.26-.02-.47-.01-.67 1.98.22 3.72.6 5.1.63 1.22.12 1.64.18 2.06.27.4.07.95.15 2.18.02l1 .07c1.1-.02.76-.15 1.98-.14-.03.01.06.02.22.02.08-.04.22-.08.32-.16a.88.88 0 0 1 .1-.06c.04-.01.1.01.14-.02l.1-.08c.08-.04.14-.08.2-.1.1-.05.12-.05-.05.08 1.1-.66 2.33-1.22 3.7-1.77l1.06-.42c.04-.02.3-.07.47-.1.2-.03.4-.06.6-.1.8-.12 1.65-.23 2.55-.34.76-.25 2.57-.53 3.13-.76.03.01.25-.03.52-.07.23-.02.35-.02.43.04.08.07.05.17.03.18-.03.02.01-.05-.1-.1-.04-.02-.1-.02-.1-.04-.04.02-.03.04-.1.07.12.02.1.08.1.12.06-.06-.23.4-.48.65-.3.3-.53.47-.98.7l-1.67.9 1.15-.6c.2-.1.25-.1.03.04l-1.23.65c-.46.25-.93.52-1.2.77a2.04 2.04 0 0 1 .33-.33c-.3.2-.46.35-.6.5-.3 0-.5.2-.5.4 0 0-.4 2-1.9 3.4s-4.5 1.3-4.5 1.3c-.2 0-.4.2-.4.4s.2.4.4.4c.1 0 3.4.1 5.1-1.5 1.2-1.1 1.7-2.53 1.94-3.3v.01c.05.05.2.1.3.14-.07-.07-.2-.14-.2-.2.03.03.1.06.2.1.07.03.13.06.24.08.2.04.46.03.68.04l1.33.05.96.02c.3 0 .6-.01 1-.04.7-.06-1.3-.1.15-.13 1.83.08 4.64.13 6.92.18-.2-.1.4-.08 1.02-.03l.06.08c.75.04 1.05.2 1.08.24.03.04 0 .08-.01.1-.01.01-.01.01-.01.1 0 .04-.01.1-.01.15-.01.04 0 .04-.02.12-.02.1-.05.2-.12.32.01.02.02.04.02.05l-7.73 1.26c-.04.01-.07.03-.1.04a8.86 8.86 0 0 0-.87-1.29c-.2-.1-.4-.2-.6 0-.1.2-.2.4 0 .6 2.8 3.2 1.3 7 1.2 7.2s0 .4.2.5.4 0 .5-.2c.1 0 .2-.3.3-.8.1-.44.18-1 .22-1.67l5.75-1 .24.26c.1.1.2.27.2.28.06.08.06.07.07.12-.01.06-.01.1-.03.15zm-.14-.4c-.1-.13-.24-.26-.37-.4l.1-.02.02.02c.08.1.2.23.3.37a.76.76 0 0 1 .09.15c.02.04.02.05.03.06-.03-.01-.02-.01-.16-.18zm1.9-3.2c-.1.16-.05.38-.83 1.14.34-.27.42-.32.35-.2-.04.06-.12.16-.26.28-.07.06-.15.13-.25.2a5.42 5.42 0 0 1-.42.26l.2-.15.1-.1a7.4 7.4 0 0 1-.38.24c-.01.01-.02.01-.03.02-.04 0-.1-.01-.13 0l-6.36 1.12a7.58 7.58 0 0 0-.52-2.4l7.96-1.3c.04.06.07.1.1.16l.17.06c.04.02.04.02.07.03.04.02.06.04.08.05.04.03.07.07.1.1a.48.48 0 0 1 .09.21c.01.07.02.13.01.2 0 .06-.02.06-.04.1z"/><g xmlns="http://www.w3.org/2000/svg" fill="#fff"><path d="M198 163.94l.1-.07c-.02 0-.05.01-.1.07zm22.76-21.1l.02-.02c-.02.01-.02.02-.02.02zm-18.64 18.43h0l-.02.03z"/><path d="M197.8 165.77c1.14-1.17 1.56-1.38 2.67-2.66l1.66-1.82c.17-.36.7-.76.94-1.15l.17-.07a1.28 1.28 0 0 1 .32-.37l.01.02c.12-.2.32-.37.38-.47l.01.02.2-.2-.01.06a4.78 4.78 0 0 1 .8-.87l-.08-.04c.6-.5.68-.82 1.25-1.24v.02c.46-.8 1.1-.9 1.57-1.7-.06.1.07 0 .07.02.28-.3.6-.64.47-.76.22-.2.2-.14.3-.12-.05-.05.1-.26.28-.43l-.06.1.47-.5h-.2c.3-.22.2.06.4-.2l-.1-.08c.38-.33.7-.4 1.12-.7 1.48-1.36 2.88-3.02 4.47-4.04h.12c.1.08.28-.47.4-.43l.13-.18c.06-.02.18-.08.1.01.16-.12.15-.14.24-.26l.22-.07c.66-.45 1.1-.98 1.78-1.46.9-.48 2.32-1.73 3.16-2.44 1.13-1.06 2.88-1.67 4.05-2.74.05-.01.14-.12.13-.13l1.2-.8 2.28-1.67c.83-.7 1.05-1.15-1.46-.1l.01-.04c-.7.4-1.1.65-1.48 1.08-.17-.1-.55.35-.73.4l.01-.02c-.32.38-.88.47-1.2.84.01-.02-.01-.07.07-.13-.27.2-.62.5-.7.44-.65.5-1.6 1.1-1.92 1.54l.01-.04c-.18.26-.3.24-.54.47-.02 0-.05.01-.05 0-.2.27-.75.56-.93.76l-.05-.04-.5.4.2-.13c.04.2-.46.2-.76.57-.36.24-.48.83-.9 1.03-.12.2.07-.23-.15.02-.07-.07.08-.14-.03-.15-.22.23-.47.24-.74.53l-.06-.05c-.32.42-.82.5-1 .82-.37.37-.4.04-.75.5l-.23.05c-.2.13-.05.2-.3.33-.03-.06-.3.17-.2.03-.52.3-.84.86-1.53 1.24-.05.2-.4.4-.43.55-.05-.03-.6.52-.34.14.02-.03.07-.08.08-.06l-.01-.1c-.42.2-.55.6-.9.88.1-.07.24-.2.2-.08l-.3.27.02-.1-.47.4h.1c-.24.17-.4.15-.58.46-.07.15.27-.12.06.1-.33.23-.8.6-1.18.92.1.03-.01.12-.1.23l-.06-.04c-.3.45-.26.02-.58.45v-.07l.01.2c-.24.44-.3.07-.53.6.14-.16.2.05-.02.2v-.1c-.1.1-.1.17-.18.22.03-.1-.04-.1-.18.05l.04-.16-.2.38c-.27.16-.55.57-.7.6 0 0-.5.44-.53.62.04-.14-.23.1-.22-.03-.06.18-.37.58-.58.67l.02-.03c-.6.48-.8 1-1.35 1.4.08.04-.2.26-.06.27-.4.57-1.04.76-.97 1.18-.2.24-.32.22-.44.32l.04-.07-.8.9c-.13.18-.04.32-.33.58.04-.14-.06-.01-.16.1.06-.08.06-.1-.1 0 0 .03-.02.07-.04.1-.16.18-.12.17-.03.1 0 .01.02.01.06 0-.23.13-.5.52-.58.47-.5.56-.77 1.02-1.16 1.5-.1.01-.03-.13.08-.27l-.28.33c-.06-.06.14-.2.22-.32-.45.3-.64.87-1.14 1.23l-.04.14-.03.02c.03.02-.03.15-.1.23-.1.02-.1-.1-.32.1-.2.13-.44.52-.62.77.12-.12.1-.05.08.02-.1.1-.2.13-.27.23l-.08-.05c.1.02-.2.35-.2.42-.1.02.1-.2.1-.28l-.6.67c-.17.3.1.02.06.2-.18.22-.32.47-.58.67l.13-.02c-.3.44-.54.67-.84.87-2.18 3.4.12 1.25.12 1.25 1.18-1.06 1.55-1.82 2.77-3.23zM275.63 193v-.17c-.02 0-.03.05 0 .17zm-9.58-40.43c-.01-.01-.01-.03-.02-.04.01.03.02.04.02.04zm9.25 33.96c.01.02.01.04.02.05l-.02-.05z"/><path d="M277.14 194.7l-1.03-4.95-.8-3.2c-.24-.46-.32-1.36-.56-1.9l.02-.24c-.08-.2-.16-.42-.17-.63l.02.01c-.12-.3-.17-.63-.23-.77h.02l-.1-.36.04.06a10.38 10.38 0 0 1-.4-1.52l-.08.06c-.14-1.03-.4-1.36-.5-2.3l.02.01c-.5-1.1-.28-1.86-.77-3 .06.14.03-.07.05-.07-.15-.54-.3-1.12-.47-1.1-.1-.4-.02-.34.03-.4-.07.02-.18-.32-.26-.63l.06.14-.24-.9-.1.2c-.07-.48.14-.16 0-.6l-.1.03c-.13-.66-.05-1.1-.12-1.74l-1.92-7.9.06-.13c.1-.08-.35-.63-.25-.75l-.12-.27c0-.1-.01-.26.05-.12-.06-.26-.08-.27-.16-.45l.01-.3c-.2-1.06-.55-1.9-.77-3-.15-1.35-.88-3.8-1.3-5.2-.66-1.96-.7-4.4-1.4-6.4a.57.57 0 0 0-.09-.23l-.43-1.88s-2.1-9.12-1.5-1.96l-.04-.04c.18 1.04.32 1.7.62 2.37-.14.15.18.85.18 1.1v-.02c.28.6.2 1.32.46 1.9-.02-.02-.07-.02-.1-.16.13.44.3 1.03.22 1.1l.9 3.16-.04-.04c.2.36.13.5.3.9-.01.03-.01.06-.01.05.2.4.3 1.22.43 1.55l-.06.04.2.83-.06-.3c.2.07.04.66.3 1.23.1.57.64 1.06.7 1.67.15.26-.2-.2-.03.2-.1.04-.1-.18-.15-.06.14.4.06.7.25 1.2l-.07.04c.3.63.2 1.27.43 1.68.22.67-.1.5.2 1.2l-.03.3c.06.3.17.2.2.54-.07-.01.05.44-.05.25.08.8.5 1.52.58 2.56.17.2.22.7.35.85-.05.04.23 1.02-.02.47-.02-.05-.04-.13-.02-.13l-.1-.05c0 .6.32 1.02.43 1.6-.02-.17-.08-.4.01-.26l.1.53-.1-.1.15.8.05-.13c.05.4-.04.56.17.97.1.18.01-.4.13.01l.3 1.97c.07-.08.1.1.17.27l-.07.04c.27.67-.1.3.14.96l-.06-.05.2.15c.3.6-.07.37.3 1.02-.08-.27.13-.17.18.18l-.1-.07c.06.18.1.24.12.37-.06-.1-.12-.03-.04.24l-.13-.16.25.5c.02.42.26 1.03.2 1.22 0 0 .16.87.3 1.04-.1-.16-.02.32-.13.2.13.2.35.85.33 1.13l-.02-.05c.15 1 .5 1.64.6 2.54.07-.06.14.4.22.27.32.88.17 1.7.58 1.95.12.4.04.5.07.72l-.04-.1.4 1.56c.1.28.27.3.35.8-.1-.15-.04.06.01.25-.04-.12-.07-.15-.05.1.03.03.05.08.07.13.1.32.1.26.07.1.01.01.02-.01.03-.06 0 .35.22.92.13 1l.75 2.4c-.03.1-.13-.07-.2-.3l.15.56c-.08.01-.12-.32-.18-.5.03.7.46 1.36.53 2.2l.1.15v.05c.03-.01.12.16.16.27-.04.13-.16.03-.06.42.01.33.24.87.37 1.27-.04-.22.01-.16.06-.07.05.2.01.33.07.47l-.1.04c.07-.1.22.5.27.55-.04.13-.13-.3-.2-.33l.3 1.18c.17.4.07-.1.2.08.1.37.26.7.3 1.15l.05-.15c.23.68.32 1.1.35 1.6 1.9 5.03 1.17.88 1.17.88-.32-2.1-.8-3.1-1.44-5.52zm-74.97 35.33l.16.03c0-.01-.04-.03-.16-.03zm37.5-9.8c.01-.01.01-.02.02-.03-.02.02-.02.03-.02.03zm-31.3 10.86h0c-.02 0-.03.01-.05.01h.05z"/><path d="M200.24 231.1c2.13.07 2.7.23 4.9.14l3.2-.14c.48-.14 1.35-.06 1.93-.2l.23.06c.2-.05.43-.1.63-.06l-.01.02c.3-.07.63-.06.78-.1l-.01.02.36-.04-.06.04c.5-.1 1.05-.15 1.52-.16l-.05-.08c1.02.02 1.36-.23 2.28-.2l-.01.02c1.12-.35 1.83-.08 2.98-.47-.14.05.07.03.06.06.54-.1 1.1-.23 1.1-.4.4-.07.33-.01.4.05-.02-.07.32-.17.62-.23l-.14.06.87-.2-.2-.1c.47-.05.15.15.6.02l-.03-.1c.64-.13 1.05-.05 1.7-.12 2.57-.6 5.18-1.7 7.56-2.34l.13.05c.1.1.57-.4.7-.33l.25-.16c.08-.01.25-.05.13.03.25-.1.25-.12.4-.23l.3-.03c1-.34 1.75-.87 2.74-1.37.62-.26 1.47-.76 2.23-1.42.78-.63 1.42-1.44 1.85-2.04l1.8-2.7c.6-.93 1.14-1.93 1.4-2.94a.53.53 0 0 0 .05-.24l.62-1.8.34-1.3c.17-.74.32-1.66.37-2.38.05-.7-.01-1.23-.17-1.12s-.4.82-1 2.42l-.02-.05c-.28.97-.45 1.57-.5 2.27-.2.06-.26.78-.4 1l-.01-.03c-.07.62-.54 1.14-.65 1.72 0-.03-.04-.06.01-.18-.14.4-.36.95-.46.93l-1.4 2.77v-.05c-.12.37-.24.42-.45.77-.02.01-.05.03-.05.02-.15.4-.72.92-.92 1.18l-.06-.03-.56.56.23-.2c.06.22-.53.3-.9.77-.45.3-.7.96-1.24 1.18-.2.22.14-.25-.18.02-.06-.08.13-.15 0-.16-.3.26-.62.23-1.03.52l-.05-.06c-.5.43-1.14.43-1.48.73-.6.32-.5-.03-1.1.36l-.3.01c-.28.1-.15.2-.48.26 0-.07-.4.1-.25-.03-.73.17-1.38.65-2.38.8-.16.2-.66.27-.8.4-.04-.04-.96.28-.46.01.04-.02.12-.05.13-.02l.04-.1c-.58.03-.96.37-1.5.5.17-.02.38-.1.25 0l-.5.13.1-.1-.76.18.12.04c-.38.07-.54-.02-.92.2-.17.1.37 0-.01.13l-1.88.3c.08.07-.1.1-.26.17l-.04-.07c-.64.26-.27-.1-.92.12l.05-.06-.14.2c-.57.26-.35-.1-.98.24.26-.06.16.14-.18.17l.07-.1c-.18.05-.23.1-.35.1.1-.06.04-.1-.22-.05l.16-.12-.48.23c-.4-.01-1 .17-1.18.1 0 0-.84.08-1.02.2.16-.1-.3-.05-.2-.15-.2.12-.84.25-1.1.2l.05-.01c-.96.02-1.62.32-2.5.28.05.08-.4.07-.3.18-.88.18-1.64-.08-1.94.27-.4.04-.5-.05-.7-.06l.1-.02-1.55.12c-.28.05-.32.2-.83.2.16-.07-.05-.05-.24-.04.12-.01.16-.04-.1-.07-.03.02-.1.04-.14.05 0 0-.01-.01-.01-.02-.32.03-.26.05-.1.06-.01.01.01.02.05.04-.33-.07-.92.04-.96-.07l-2.42.23c-.1-.05.1-.1.32-.13l-.56.03c0-.08.32-.05.5-.07-.67-.1-1.38.14-2.16.02l-.16.06-.05-.01c0 .03-.17.08-.3.1-.1-.07.01-.16-.38-.16-.3-.07-.87.02-1.28.06.22.01.15.05.05.08-.2 0-.3-.07-.46-.04l-.02-.1c.07.1-.5.08-.58.12-.1-.07.3-.05.35-.1l-1.17-.02c-.42.06.07.1-.13.17-.37.01-.73.06-1.15-.01l.13.1c-.7.04-1.1.01-1.57-.1-2.6.2-2.88.4-2.52.58.37.18 1.4.3 1.4.3 2.05.26 3.1.06 5.54.04z"/></g></g></svg>