<svg width="209" height="259" viewBox="0 0 209 259" fill="none" xmlns="http://www.w3.org/2000/svg">
<g filter="url(#filter0_d_10_387)">
<mask id="path-1-inside-1_10_387" fill="white">
<path fill-rule="evenodd" clip-rule="evenodd" d="M96 7C96 3.13401 92.866 0 89 0H7C3.13401 0 0 3.13401 0 7V14V21V248C0 251.866 3.13401 255 7.00001 255H198C201.866 255 205 251.866 205 248V21C205 17.134 201.866 14 198 14H103C99.134 14 96 10.866 96 7Z"/>
</mask>
<path fill-rule="evenodd" clip-rule="evenodd" d="M96 7C96 3.13401 92.866 0 89 0H7C3.13401 0 0 3.13401 0 7V14V21V248C0 251.866 3.13401 255 7.00001 255H198C201.866 255 205 251.866 205 248V21C205 17.134 201.866 14 198 14H103C99.134 14 96 10.866 96 7Z" fill="white"/>
<path d="M7 1H89V-1H7V1ZM1 14V7H-1V14H1ZM1 21V14H-1V21H1ZM1 248V21H-1V248H1ZM198 254H7.00001V256H198V254ZM204 21V248H206V21H204ZM103 15H198V13H103V15ZM103 13C99.6863 13 97 10.3137 97 7H95C95 11.4183 98.5817 15 103 15V13ZM-1 248C-1 252.418 2.58173 256 7.00001 256V254C3.6863 254 1 251.314 1 248H-1ZM206 21C206 16.5817 202.418 13 198 13V15C201.314 15 204 17.6863 204 21H206ZM89 1C92.3137 1 95 3.68629 95 7H97C97 2.58172 93.4183 -1 89 -1V1ZM198 256C202.418 256 206 252.418 206 248H204C204 251.314 201.314 254 198 254V256ZM7 -1C2.58172 -1 -1 2.58172 -1 7H1C1 3.68629 3.68629 1 7 1V-1Z" fill="black" mask="url(#path-1-inside-1_10_387)"/>
</g>
<defs>
<filter id="filter0_d_10_387" x="0" y="0" width="209" height="259" filterUnits="userSpaceOnUse" color-interpolation-filters="sRGB">
<feFlood flood-opacity="0" result="BackgroundImageFix"/>
<feColorMatrix in="SourceAlpha" type="matrix" values="0 0 0 0 0 0 0 0 0 0 0 0 0 0 0 0 0 0 127 0" result="hardAlpha"/>
<feOffset dx="4" dy="4"/>
<feComposite in2="hardAlpha" operator="out"/>
<feColorMatrix type="matrix" values="0 0 0 0 0 0 0 0 0 0 0 0 0 0 0 0 0 0 1 0"/>
<feBlend mode="normal" in2="BackgroundImageFix" result="effect1_dropShadow_10_387"/>
<feBlend mode="normal" in="SourceGraphic" in2="effect1_dropShadow_10_387" result="shape"/>
</filter>
</defs>
</svg>
