<svg width="720" height="640" viewBox="0 0 720 640" fill="black" xmlns="http://www.w3.org/2000/svg">
  <g xmlns="http://www.w3.org/2000/svg" fill="none" fill-rule="evenodd">
    <rect width="720" height="640"/>
  </g>
<g transform="translate(120, 80)"><path xmlns="http://www.w3.org/2000/svg" d="M393.13 244.9l.01.1-.01-.1zm-276-109.4l.01.1c-.01-.06-.01-.08-.01-.1z"/><path xmlns="http://www.w3.org/2000/svg" d="M258.55 48.7c-3.5-4.6-12.1-.9-12.1-.9s-1.3-2.5-5.7-2.7c-1.8 0-3.9.3-6.1.4s-4.4-.2-7.1 1.1c-5.5 2.6-4.8 7.6-4.8 7.6s-1.6-.1-3.2 1.1c-1.6 1.3-3.4 3.3-2.3 6.7.7 2 2.56 10.3 2.56 10.3s.5-.66 1.36-1.33l.1.54c-1 1.04-1.6 2.48-1.6 4.1 0 3.15 2.37 5.7 5.3 5.7.37 0 .72-.05 1.07-.13l-6.87 22.43-2.2 5.7s3.2 4.1 10.8 5.7c5.2 1.1 8.7 1.2 11 1 1.9-.2 4.2-.6 3-4.1-1.7-5.2-1.1-8.5-1.1-8.5l2.4-13.1c1.63.3 3.14.35 4.3-.01 3.2-1 5.9-4.4 6.9-10.1.5-3.3.8-9.2.8-13.4 0-1.1-.1-3.4-.3-5.4-.1-.64-.2-1.25-.32-1.84 4.3-1.87 7.3-6.74 4.1-10.87zm-30.2 31.3c.01.03.02.06.02.1l-.08-.05c.02-.01.04-.02.06-.04z" fill="#fff"/><path xmlns="http://www.w3.org/2000/svg" d="M232.3 77.83c-.17.05-.34.07-.5.07.01.01.15.05.5-.07zm-8.63-9.23h.02l.1-.03-.12.03zm-1.95 2.5l-.1-.47a8.73 8.73 0 0 0-.88.69l.14.65a5.25 5.25 0 0 1 .83-.87zm3.56 1.5c-1.6 0-2.9 1.35-2.9 3s1.3 3 2.9 3 2.9-1.35 2.9-3-1.3-3-2.9-3zm0 5c-1.05 0-1.9-.9-1.9-2s.85-2 1.9-2 1.9.9 1.9 2-.86 2-1.9 2zm18.08-10.68c.4 0 .8-.3.8-.9 0-1-.7-1.2-1.1-1.2-3.6-.3-5.2 2-5.3 2.1-.3.4-.27 1.2.3 1.66.44.36 1.13.17 1.4-.06.1-.1 1.2-1.8 3.9-1.6zm10.5-2.2c-1.42-.98-3.2-.44-3.3-.4-.42.17-.86.57-.57 1.38a1.01 1.01 0 0 0 .97.56c.1-.01 1.2-.18 2.1.2.46.2.9-.1 1.02-.33.38-.7.08-1.2-.22-1.4z"/><circle xmlns="http://www.w3.org/2000/svg" cx="242.41" cy="71.92" r="1.4"/><circle xmlns="http://www.w3.org/2000/svg" cx="252.42" cy="71.12" r="1.4"/><path xmlns="http://www.w3.org/2000/svg" d="M248.4 72.32c-.4.1-.6.5-.4.9.5 1.3 1.4 3.8 1.3 4.7s-.85 1-1.2 1.1c-.45.12-.75.45-.65.9.12.58.65.63.95.6.8-.1 2.2-.9 2.3-2.4.1-1.6-1.2-5-1.4-5.4-.1-.4-.5-.6-.9-.4zm-2.73 11c-3.6.14-4.63-2.75-4.7-2.9-.18-.4-.55-.54-.94-.4s-.55.55-.4.94c.54 1.46 2.38 4 6.2 3.84.4-.04.67-.36.62-.86-.04-.3-.38-.67-.77-.63zm-23.7-32h0l-.03-.16z"/><path xmlns="http://www.w3.org/2000/svg" d="M260.28 50.9c-.15-.7-.46-1.3-.65-1.63l.06-.1-.55-.8c-.2-.26-.45-.5-.67-.74l.5.56c-.2-.01-.4-.3-.73-.73-.38-.35-.9-.84-1.6-1.03-1.26-.58-2.65-.14-3.9-.24-.6.14.53-.22-.38-.1-.04-.14.43-.1.18-.2-.9.1-1.52-.03-2.6.27l-.07-.1c-.6.2-1.2.35-1.73.48l-.78.2-.33.1-.15.06a.94.94 0 0 0-.18.12c-.02.01-.04.03-.05 0l-.15-.2-.06-.1-.12-.18-.2-.3c-.16-.2-.4-.44-1.05-.72-.16-.16-.34-.3-.52-.44-.66-.3-.54-.06-1.27-.36.08-.1-.95-.3-.48-.3-.85-.26-1.82-.34-2.77-.24l-2.98.16c-.45.22-1.53.2-1.86.35-.07-.06-2.12.06-.94-.14.1-.02.28-.02.27.01l.14-.1c-1.17-.15-2.2.1-3.5.2.4 0 .9-.03.56.06l-1.2.1.24-.12c-.6.05-1.2.15-1.8.3l.27.04c-.87.2-1.27.1-2.12.7-.37.28.82-.23 0 .2l-.9.4-1 .6c-.65.47-1.32 1.03-1.8 1.67.2-.03-.1.28-.3.67l-.12.01c-.38.76-.44.9-.6 1-.12.1-.26.23-.46 1.06l.07.33c-.05.65-.1.88-.17 1.07-.03.1-.06.18-.08.3l-.01.1c0 .02.01.04.02.07l.1.17c-.02-.13.16-.03.2.2-.03 0-.08.01-.14 0 0-.03 0-.07-.01-.1-.07.01-.1.04-.15.06a.39.39 0 0 1-.13.02c.05-.04.05-.08.01-.1-.03-.01-.01-.03-.12-.01-.1.02-.24.04-.4.1.13-.1.27-.16.42-.24-.42.16-.8.35-1.18.58-.47.14-1.04.48-1.48.84l-.93.76s-.38.35-.73.83c-.36.47-.65 1.08-.66 1.34.07-.45-.42.66-.4.3-.04.3-.16.86-.18 1.44-.04.58 0 1.15-.02 1.5l-.03-.12c.03.6.18 1.18.34 1.65l.4 1.22c.26.8.5 1.6.65 2.54.1-.1.27.86.37.6.3.92.43 1.8.56 2.52.06.36.13.68.22.94l.18.47c.07.17.15.3.24.4.32 1.27.27 1.7.42 2.5l-.1-.3.13.53c.02.04.03.05.05.08a6.77 6.77 0 0 0-.23 1.7c0 3.42 2.6 6.2 5.8 6.2.12 0 .24-.02.36-.03l-6.63 21.65-2.3 5.96.17.22c.14.17 3.4 4.26 11.1 5.88 3.44.73 6.48 1.1 9.08 1.1a22.56 22.56 0 0 0 2.07-.09c1.28-.13 2.7-.37 3.4-1.45.5-.8.52-1.88.03-3.3-1.63-5-1.1-8.22-1.08-8.25l2.32-12.6c.68.1 1.35.18 1.96.18.76 0 1.46-.1 2.08-.28 3.63-1.14 6.27-4.96 7.25-10.5.52-3.45.8-9.52.8-13.47 0-1.18-.1-3.5-.3-5.47-.05-.37-.13-.72-.2-1.08 1.1-.53 2.32-1.35 3.25-2.35.95-1 1.54-2.15 1.74-2.93l-.01.1c.17-.9.4-1.12.43-2.15.02-.05.03-.13.04-.1-.05-.52-.1-1.25-.26-1.93zm-20.1 52.4c-.03.14-.6 3.5 1.12 8.75.38 1.1.4 1.93.07 2.45-.45.7-1.6.88-2.64 1-2.9.25-6.55-.08-10.85-1-6.34-1.33-9.56-4.47-10.33-5.3l2.1-5.45 6.78-22.16c.58-.16 1.13-.4 1.63-.75.08.3.16.6.22.88.53 2.22 2.42 4.1 5.96 5.93 2.5 1.3 5.52 2.5 8.25 3.06l-2.3 12.6zm13.6-23.2c-.9 5.15-3.3 8.7-6.56 9.7-3 .94-8.62-1.07-12.52-3.07-3.2-1.66-5-3.38-5.44-5.27a24.44 24.44 0 0 0-.35-1.35l-.24-1.26c-.88 1.16-2.2 1.92-3.7 1.92-2.65 0-4.8-2.33-4.8-5.2s2.15-5.27 4.8-5.2c1.97.05 2.87.33 4.1 1.63l.5.17a.7.7 0 0 1 .08.1 12.01 12.01 0 0 1 .11.49c.48.86.77 1.86.77 2.94a5.81 5.81 0 0 1-.2 1.52c.01.04.02.08.04.12a.85.85 0 0 0 .26.33c.17.12.32.18.48.24.18.01.36 0 .52-.03h.15c-.01-.04.53-.2.8-.42.16-.06.2-.01.3-.05.08-.05.35-.17.54-.8.18-.5.14-.92.16-1.43l-.01-1.48c-.05.47-.1.32-.12.1.03-.42.15-.66.12-1l.14-.04c-.14.16-.06-1.12-.1-1.27.12-.24.04.66.1.77l.08-1.28c.01-.1.01-.22.02-.4-.02-.22-.03-.38.03-.75.06-.8-.16.12-.2-.28.14-.73.36-1.48.84-2.24l-.24.2 1.37-3.15c.5-2.8.24-4.35.1-5.08-.04-.15-.07-.26-.1-.35l.55-.15c.2.25 1.65.92 5.3 1.9l-.1.02c2.2.44 3.6.6 5.16.5.23.27 1.85.1 2.38.15h-.05c1.36-.22 2.9-.02 4.2-.58-.05.03-.05.1-.36.2.46-.13.98-.32 1.42-.48.05.3.12.6.16.9.2 1.93.3 4.2.3 5.35.02 3.9-.26 9.9-.78 13.3z"/><path xmlns="http://www.w3.org/2000/svg" d="M248.14 308.25s-3.7 23.7 1.2 45l10.7 47.8 4.9 25.2 14 7.9 17-9.1s-4.6-5.8-5-11.4l-5.1-90.5.6-20.3-38.3 5.4zm-49.7-4.8s-8.9 22.1-8.8 44.1l-.2 49.1c-.3 10.5-1.44 32.08-1.44 32.08l12.44 4.82 18.6-4.5s-3.2-6.8-2.3-12.3l15.2-89.2 5.1-19.6-38.6-4.5z" fill="#fff"/><path xmlns="http://www.w3.org/2000/svg" d="M198.33 419.7h0l.02-.05z"/><path xmlns="http://www.w3.org/2000/svg" d="M328.25 440.73c.1.4.05-.2.1-.16-.24-1.5-.72-3.1-1-3.04-.32-1.07-.2-.9-.14-1.07-.06.02-.18-.2-.34-.5-.18-.33-.32-.7-.68-1.2l.32.4c-.6-.96-1.3-1.4-1.96-1.9l.25.5c-1.02-.84-.1-.45-1.17-1.1l-.1.17-3.7-2.7c-6.3-3.4-13.5-5.95-19.47-8.82l-.2-.25c-.04-.25-1.8-.4-1.96-.68l-.75-.2c-.2-.12-.6-.33-.22-.23-.66-.28-.68-.25-1.18-.38l-.66-.4-.95-.4-.47-.2c-.2-.07-.44-.16-.66-.2-.18-.03-.35-.04-.53-.04-.55-1.32-.98-2.7-1.15-4.1-.3-3.36-.5-6.86-.75-10.27l-1.2-19.82.05-.56c.1-.25-.4-3.43-.3-3.92l-.15-1.45c0-.4-.03-1.27.04-.55-.08-1.34-.1-1.38-.2-2.34l-.01-1.45-.97-15.38c-.23-6.7-1.1-19.32-1.5-26.58-.14-2.27-.25-4.62-.3-7.02-.01-1.18.02-2.4.08-3.62l.15-3.68v-.08c.18-.04.37-.07.55-.1.58-.13 1.07-.2 1.7-.37.66-.2 1.25-.47 1.78-.84 1.05-.74 1.82-1.77 2.2-2.87.4-1.08.42-2.26.23-3.17-1.88-9.47-3.1-20.64-5.42-30.26-.03-.32-.26-1.12-.3-1.1l-1.8-8.85-1.36-6.18c-.8-3.5-1.84-7.8-2.76-11.1-.9-3.28-1.66-5.52-1.75-4.9-.03.2 0 .67.12 1.48l-.36-1.4-1.34-6.33c1.95 7.06 2.34 7.65 2.25 6.14-.12-1.82-1.05-6.66-1.05-6.66-1.77-9.67-3.35-14.53-5.97-25.9-.53-2.5-.93-4.56-1.24-6.38l-.33-1.94c.16-1.17-1.04-.7-1.75-.82l-2.74-.05-5.22-.07h-3.1-2.98c-.05-.02-.07 0-.07.04l-2.8-.05-6.88-.14c-4.58-.08-9.12-.1-13.44.03a5.74 5.74 0 0 0-.82.01c-.3.02-.53.04-.53.05l-10.64-.03s-35.46-.06-25.23.94h-1.75l-.5 7.7c.3-19.2-1.3.13-1.3.13-1.05 11.52-1.03 17.5-1.8 31.25l-2.02 27.78-1.1 18.18c.03 2.78-.5 7.66-.52 10.95l-.2 1.26c-.01 1.13-.06 2.46-.2 3.6l-.03-.07c-.02 1.7-.2 3.6-.2 4.43l-.03-.07-.12 2.05-.03-.36-.08 2.3c0 .92.25 1.84.68 2.63.85 1.6 2.5 2.7 4.17 2.9-.08-.06-.17-.1-.25-.18.2.05.42.06.62.08.17.02.34.03.5.05a17.4 17.4 0 0 1 .78.07l-.4 1.82c-.86 4.2-1.66 8.65-2.27 14.94-.55 5.52-.54 9.08-.6 12.6l-.08 12.85-.02 16.6c.12 2.53-.03 7 .07 10l-.08 1.16c.03 1.03.05 2.24.01 3.28l-.02-.07c.02.77.03 1.6.02 2.3l-.06 1.73-.02-.06-.07 1.87-.02-.32a229.62 229.62 0 0 1-.32 7.89l.1-.2c-.33 5.2-.24 7.13-.56 11.83l-.02-.07c-.01 2.1-.1 3.9-.2 5.6-.63-.28-1.37-.3-1.97.02-.34.18-.64.45-.85.78-.2.3-.32.82-.37.97-.25.9-.42 1.8-.53 2.68-.06.18-.08.66-.05.66-.3 1.7-.45 3.42-.52 5.14 0 0-.07 1.56.03 3.6.05 1.02.14 2.16.28 3.27l.23 1.64c.05.27.1.53.13.78.05.26.07.48.17.8.34 1.18 1.32 1.88 2 1.98.34.07.6.04.72-.01s.14-.1.06-.16c-.1-.08-.44-.16-.83-.45a1.98 1.98 0 0 0 .82.2l3.67-.01c-9.1.96.1 1.28.1 1.28 5.5.3 8.33-.12 14.87-.25 5.75.05 7.27.32 13.23.2 2.84.01 5.87-.06 8.65-.1 1.32-.22 3.65-.01 5.2-.2l.6.12c.54-.06 1.17-.1 1.7-.04l-.03.03c.8-.1 1.7-.04 2.1-.1l-.03.04.98-.02-.17.05c1.4-.1 2.84-.1 4.1-.07l-.1-.14c2.72.15 3.7-.15 6.17.03l-.03.04a14.54 14.54 0 0 1 1.12-.1c.52-.03 1.02-.18 1.44-.45.84-.53 1.3-1.4 1.4-2.3.08-1.4.07-2.63-.33-4.26.1.4.05-.2.1-.16-.24-1.5-.72-3.1-1-3.04-.32-1.07-.2-.9-.14-1.07-.06.02-.18-.2-.34-.5-.18-.33-.32-.7-.68-1.2l.32.4c-.6-.96-1.3-1.4-1.96-1.9.1.16.17.33.25.5-1.02-.84-.1-.45-1.17-1.1l-.1.17c-1.48-1-2.25-1.76-3.7-2.7-6.3-3.4-13.52-5.95-19.47-8.82l-.2-.25c-.04-.25-1.8-.4-1.96-.68l-.75-.2c-.2-.12-.6-.33-.22-.23-.66-.28-.68-.25-1.18-.38l-.66-.4-.95-.4-.47-.2c-.03-.01-.06-.02-.1-.03.01-.23.02-.46.02-.7.05-.42.08-.8.15-1.25l1.2-7.73 3.27-19.77.18-.54c.17-.22.38-3.48.58-3.93l.18-1.46c.1-.4.26-1.26.17-.53.23-1.34.2-1.38.33-2.35l.32-1.43 2.5-15.4c1.3-6.67 3.3-19.3 4.5-26.55.42-2.55.9-5.2 1.47-7.88.4-1.7.87-3.42 1.35-5.15l3.64.2-.98-.3c2.67.25.66.33 3.23.45l-.02-.2.68.06.5 1.44.08.22c.04.05.02.2.12.14l.45-.08.9-.16 1.28-.23 2.7-.45-.01 3.75a136.27 136.27 0 0 0 1.04 14.9c.66 5.44 1.36 8.9 2.14 12.3l6.55 28.38c.67 2.4 1.5 6.76 2.2 9.63l.17 1.14c.24 1 .5 2.16.68 3.17l-.03-.06c.36 1.48.65 3.17.83 3.9l-.03-.06.36 1.82-.1-.3c.56 2.6 1.1 5.3 1.53 7.66l.05-.2c.9 5.1 1.43 6.9 2.2 11.5l-.03-.06.46 2.05.12.57c-.6-.22-1.27-.2-1.83.1-.34.18-.64.45-.85.78-.2.3-.32.82-.37.97-.25.9-.42 1.8-.53 2.68-.06.18-.08.66-.05.66-.3 1.7-.45 3.42-.52 5.14 0 0-.07 1.56.03 3.6.05 1.02.14 2.16.28 3.27l.23 1.64c.05.27.1.53.13.78.05.26.07.48.17.8.34 1.18 1.32 1.88 2 1.98.34.07.6.04.72-.01s.14-.1.06-.16c-.1-.08-.44-.16-.83-.45a1.98 1.98 0 0 0 .82.2l3.67-.01c-9.1.96.1 1.28.1 1.28 5.5.3 8.33-.12 14.87-.25 5.75.05 7.27.32 13.23.2 2.84.01 5.87-.06 8.65-.1 1.32-.22 3.65-.01 5.2-.2l.6.12c.54-.06 1.17-.1 1.7-.04l-.03.03c.8-.1 1.7-.04 2.1-.1l-.03.04.98-.02-.17.05c1.4-.1 2.84-.1 4.1-.07l-.1-.14c2.72.15 3.7-.15 6.17.03l-.03.04a14.54 14.54 0 0 1 1.12-.1c.52-.03 1.02-.18 1.44-.45.84-.53 1.3-1.4 1.4-2.3.06-1.4.04-2.63-.36-4.27zm-95.93-116.96h-.3l.3.02-.77 3.06c-.3 1.25-.52 2.4-.64 3.25l.02-.24c-.28 1.97-.48 2.53-.83 4.72-.04.12-.07.27-.07.24-.3 2.15-1.1 6.2-1.36 7.94l-.1.1-.72 4.24.3-1.58c.08.58-.67 3.2-1.08 6.28-.5 2.88-.62 5.9-1.2 8.88-.16 1.44.07-1.28-.22.86-.1.05.1-1-.06-.47-.3 2.1-.68 3.42-1.05 6l-.1.1c-.43 3.4-1.16 6.34-1.4 8.6-.52 3.5-.6 2.3-1.06 5.94l-.33 1.4c-.27 1.55-.06 1.13-.4 2.84-.05-.1-.4 2.16-.3 1.15-.74 3.87-1.16 7.92-2.16 13-.06 1.13-.55 3.7-.6 4.54-.08.13-.85 5.17-.5 2.25.03-.25.1-.7.12-.66l-.02-.36c-.6 2.9-.8 5.32-1.28 8.2.16-.85.34-2 .27-1.22l-.44 2.68.03-.57c-.1.68-.24 1.3-.33 2.02a13.6 13.6 0 0 0-.11 1.27c-.7.01-1.4.24-1.94.6a3.9 3.9 0 0 0-.51.4 2.69 2.69 0 0 0-.44.49c-.2.25-.4.5-.6.75-.43.5-.9.98-1.42 1.44-1.33 1.06-3.3 2.48-5.53 3.5s-4.7 1.6-6.54 1.73c-3.25.35-7-.02-10.08-1.5a81.58 81.58 0 0 1 .16-4.44c.5.04.9-.12 1.6-.18.76.04.96.2 1.75.14.38.01.78-.02 1.14-.04.17-.13.48 0 .7-.1l.08.07c.07-.04.15-.06.23-.02v.02c.1-.05.23-.02.28-.05h0 .13l-.02.03a1.27 1.27 0 0 1 .54-.04l-.01-.1c.36.1.5-.08.82.03v.02c.4-.23.65.16 1.07-.06-.05.03.02.04.02.07.2-.02.4-.04.4-.2.14 0 .12.05.13.12 0-.07.12-.1.23-.1l-.05.03.32-.03-.06-.14c.17.04.04.17.2.14v-.12c.23.02.37.2.6.3.94.05 1.94-.25 2.8-.04l.04.1c.02.13.24-.2.27-.07l.1-.06c.03.02.1.05.04.08.1.01.1-.02.16-.05l.1.08c.37.06.68-.1 1.07-.06.47.16 1.35.01 1.85-.07.7-.2 1.54.32 2.27.1.02.02.1-.02.08-.04h.67s3.24.05.78-1.02l.02-.03c-.37-.07-.6-.08-.85.06-.04-.17-.3-.02-.4-.07l.01-.01c-.22.13-.46-.1-.67.01.01-.01.01-.06.06-.06-.16.02-.37.06-.38-.04-.37.03-.9-.02-1.14.14l.02-.03c-.14.1-.18.02-.33.07-.01-.01-.02-.02-.02-.03-.15.1-.43.02-.55.06l-.01-.07h-.3l.1.01c-.04.18-.22-.12-.44 0-.2-.02-.4.38-.62.3-.1.1.1-.14-.06-.07 0-.1.07-.06.03-.14-.15.05-.24-.1-.42-.03l-.01-.07c-.24.14-.44-.1-.6.03-.24.06-.16-.22-.42-.08l-.1-.1c-.1-.02-.08.12-.2.07.01-.06-.15-.05-.08-.1-.27-.1-.55.14-.9-.03-.08.12-.26.05-.32.14-.01-.05-.36-.01-.16-.13.02-.01.05-.01.05.01l.02-.07c-.2-.14-.37.08-.57.05.06.02.14.02.1.07l-.2-.01.04-.06-.28-.04.04.08c-.14-.04-.18-.17-.34-.06-.07.06.13.1-.01.13-.18-.05-.46-.13-.7-.15.02.1-.04.08-.1.1l-.01-.07c-.25.1-.1-.16-.34-.08l-.04.1c-.22.15-.12-.16-.37.05.1-.01.05.16-.07.13l.03-.07c-.07.02-.1.05-.13.03.04-.04.02-.1-.08-.1l.07-.1-.18.13c-.14-.08-.37.02-.43-.08 0 0-.3-.05-.38.06.06-.07-.1-.1-.06-.18-.08.08-.3.14-.4.06l.02-.01c-.35-.1-.6.12-.9.01.01.1-.15.04-.1.15-.32.1-.6-.23-.7.12-.15.02-.17-.08-.25-.1h.03c-.27.03-.35.03-.56.02-.1.03-.12.2-.3.15.06-.06-.02-.05-.08-.05.04-.01.06-.03-.03-.08-.01.02-.03.03-.05.04-.1 0-.1.02-.04.03 0 .01 0 .02.02.04-.12-.08-.33.01-.34-.1-.34.03-.6.14-.87.18-.03-.06.03-.1.12-.13h-.2c0-.08.12-.05.18-.06-.24-.13-.5.13-.78.01l-.06.06-.02-.01c0 .03-.06.08-.1.1-.04-.07 0-.16-.14-.16-.1-.07-.3.03-.46.07.08.01.05.05.02.08-.07 0-.1-.07-.16-.04v-.1c.03.1-.18.1-.2.13-.04-.07.1-.06.13-.1-.28.01-.14 0-.42.01-.15.07.03.1-.04.17-.13.02-.26.08-.4.03l.05.08c-.2.06-.35.05-.5-.01.27-4.7.25-8.18.54-12.5-.1.2.06-2.18-.08-1.6.1-4.67.63-8.5.3-10.2-.01-2.13.1-2.52.1-3.62l.02.5v-8.1c-.03-1.48-.2-1.7-.14-4.36.06.86.05-.22.06-1.22.01.63.03.83.08-.47-.02-.18-.03-.47-.04-.73 0-.01.01-.06.02-.04-.02-1.65-.04-1.37-.05-.6-.01-.04-.02.03-.04.26.1-1.7.01-4.78.12-5l-.13-12.66c.06-.46.1.5.12 1.7v-2.93c.08.03.04 1.7.05 2.6.14-3.5-.1-7.2.04-11.3l-.06-.85.01-.24c-.03.01-.08-.9-.08-1.5.08-.58.16.04.2-1.98l.3-6.62c-.12 1.12-.12.76-.1.27.1-1 .23-1.58.3-2.36l.08-.07c-.02-.07.01-.62.07-1.24l.2-1.8c.15-.56-.17 1.56-.14 1.82l.42-3c.07-.5.13-1 .48-3 .3-2.14-.16.37-.06-.66.15-.94.3-1.87.5-2.84.2-.96.37-1.96.66-3.02l-.24.66.5-2.24.97.07 2.98.17c1.88.1 3.7.2 6.27.46l-.07.03c6.54.05 10.3.95 17.03 1.04-.84-.01.35.1.28.13 3.1.17 6.4.37 6.47.08 2.25.16 1.83.2 2.12.34-.01-.1 1.6-.06 3.22.03-.05.1-.05.1-.05.1zm58.34 95.13a3.9 3.9 0 0 0-.51.4 2.69 2.69 0 0 0-.44.49 20.08 20.08 0 0 1-.61.75c-.43.5-.9.98-1.42 1.44-1.33 1.06-3.3 2.48-5.53 3.5s-4.7 1.6-6.54 1.73c-3.25.35-7.02-.02-10.1-1.5h0l-.08-.4-.15-.8-.2-1.27.06.25-.46-2.44c.66.14 1.05-.08 1.87-.14.76.04.96.2 1.75.14.38.01.78-.02 1.14-.04.17-.13.48 0 .7-.1l.08.07c.07-.04.15-.06.23-.02v.02c.1-.05.23-.02.28-.05v.02l.13-.01-.02.03a1.27 1.27 0 0 1 .54-.04l-.01-.1c.36.1.5-.08.82.03v.02c.4-.23.65.16 1.07-.06-.05.03.02.04.02.07.2-.02.4-.04.4-.2.14 0 .12.05.13.12 0-.08.12-.1.23-.1l-.05.03.32-.03-.06-.14c.17.04.04.17.2.14v-.12c.23.02.37.2.6.3.94.05 1.94-.25 2.8-.04l.04.1c.02.13.24-.2.27-.07l.1-.06c.03.02.1.05.04.08.1.01.1-.02.16-.05l.1.08c.37.06.68-.1 1.07-.06.47.16 1.35.01 1.85-.07.7-.2 1.54.32 2.27.1.02.02.1-.02.08-.04l.67.02s3.24.05.78-1.02l.02-.03c-.37-.07-.6-.08-.85.06-.04-.17-.3-.02-.4-.07l.01-.01c-.22.13-.46-.1-.67.01.01-.01.01-.06.06-.06-.16.02-.37.06-.38-.04-.37.03-.9-.02-1.14.14l.02-.03c-.14.1-.18.02-.33.07-.01-.01-.02-.02-.02-.03-.15.1-.43.02-.55.06l-.01-.07-.3.02.1.01c-.04.18-.22-.12-.44 0-.2-.02-.4.38-.62.3-.1.1.1-.14-.06-.07 0-.1.07-.06.03-.14-.15.05-.24-.1-.42-.03l-.01-.07c-.24.14-.44-.1-.6.03-.24.06-.16-.22-.42-.08l-.1-.1c-.1-.02-.08.12-.2.07.01-.06-.15-.05-.08-.1-.27-.1-.55.14-.9-.03-.08.12-.26.05-.32.14-.01-.05-.36-.01-.16-.13.02-.01.05-.01.05.01l.02-.07c-.2-.14-.37.08-.57.05.06.02.14.02.1.07l-.2-.01.04-.06-.28-.04.04.08c-.14-.04-.18-.17-.34-.06-.07.06.13.1-.01.13-.18-.05-.46-.13-.7-.15.02.1-.04.08-.1.1v-.07c-.25.1-.1-.16-.34-.08l.02-.05-.06.16c-.22.15-.12-.15-.37.05.1-.01.05.16-.07.13l.03-.07c-.07.02-.1.05-.13.03.04-.04.02-.1-.08-.1l.07-.1-.18.13c-.14-.08-.37.02-.43-.08 0 0-.3-.05-.38.06.06-.07-.1-.1-.06-.18-.08.08-.3.14-.4.06l.02-.01c-.35-.1-.6.12-.9.01.01.1-.15.04-.1.15-.32.1-.6-.23-.7.12-.15.02-.17-.08-.25-.1l.03-.02c-.27.03-.35.03-.56.02-.1.03-.12.2-.3.15.06-.06-.02-.05-.08-.05.04-.01.06-.03-.03-.08-.01.02-.03.03-.05.04-.1 0-.1.02-.04.03 0 .01 0 .02.02.04-.12-.08-.33.01-.34-.1-.34.03-.6.14-.87.18-.03-.06.03-.1.12-.13l-.2.02c0-.08.12-.05.18-.06-.24-.13-.5.13-.78.01l-.06.06-.02-.01c0 .03-.06.08-.1.1-.04-.07 0-.16-.14-.16-.1-.07-.3.03-.46.07.08.01.05.05.02.08-.07 0-.1-.07-.16-.04l-.01-.1c.03.1-.18.1-.2.13-.04-.07.1-.06.13-.1-.28.01-.14 0-.42.01-.15.07.03.1-.04.17-.13.02-.26.08-.4.03l.05.08c-.25.07-.4.06-.56-.03-.18.07-.32.13-.44.18l-1.9-9.53c-.05.22-.45-2.1-.45-1.5-1-4.5-1.38-8.3-2.05-9.9-.43-2.06-.4-2.46-.62-3.53l.12.5-1.7-7.83c-.34-1.42-.55-1.6-1.08-4.17.24.8 0-.23-.2-1.18.15.6.2.8-.03-.47-.06-.17-.13-.44-.2-.7 0-.01 0-.06.01-.04-.38-1.6-.34-1.3-.18-.57-.02-.04-.02.03.02.26-.3-1.67-1.05-4.6-1-4.83l-2.98-12.15c-.05-.46.2.46.5 1.6l-.68-2.82c.08.01.42 1.6.64 2.48-.65-3.4-1.74-6.9-2.55-10.87l-.25-.8-.04-.24c-.03.02-.3-.85-.4-1.44-.05-.57.17 0-.24-1.95-.06-.4-.15-.86-.26-1.37l-.3-1.67c-.2-1.16-.46-2.38-.57-3.4.12 1.1.04.76-.04.28-.12-1-.12-1.57-.24-2.33l.06-.08c-.1-.1-.34-2.64-.4-2.98.02-.57.2 1.54.26 1.78-.32-4-.22-2-.43-6-.18-2.13-.07.4-.2-.63-.1-1.9-.22-3.73-.15-5.9l-.1.7c-.03-1.65-.03-3 0-4.2l.8-.13.54.05c.26.17 3.14-.9 3.62-.8l1.33-.35c.4-.03 1.2-.14.53.03 1.25-.22 1.27-.26 2.16-.5l1.36-.12c4.94-.82 9.07-1.85 14.25-2.76 3.13-.45 7.6-1.28 12.15-2.17l1.73-.34v.1c-.07 2.97-.16 5.7-.02 7.46l-.04-.24c.17 1.96.1 2.55.24 4.73-.01.12-.01.28-.01.25.2 2.13.3 6.23.44 7.95l-.06.12.24 4.25-.07-1.6c.2.54.06 3.22.34 6.3.14 2.9.7 5.83.8 8.83.17 1.42-.2-1.25-.02.88-.1.08-.12-1-.16-.44.17 2.1.1 3.44.32 6.02l-.07.1c.34 3.36.28 6.37.54 8.6.27 3.47-.08 2.34.28 5.96l-.01 1.4c.08 1.55.2 1.1.25 2.82-.07-.1.08 2.17-.04 1.17.14 3.9.63 7.88.78 13 .2 1.1.28 3.7.43 4.5-.05.14.32 5.17.02 2.28-.03-.25-.05-.7-.03-.66l-.1-.34c.05 2.93.4 5.3.57 8.2-.03-.86-.1-2-.01-1.24l.16 2.7-.1-.55c.1 1.35.1 2.64.26 4.04l.01-.6c.08 1.03.17 1.72.33 2.43a11.49 11.49 0 0 0 .78 2.33c-.3.14-.57.27-.8.43zm.86-.4c-.1-.34-.23-.7.05-.02-.02.01-.03.01-.05.02z"/><g xmlns="http://www.w3.org/2000/svg" fill="#fff"><path d="M291.15 311.03l-.13-.87c.1-.4-.32-1.72-.36-2.6l-.43-1.07.22.37c-.13-.58-.05-.72.06-.5-.03-.27-.1-.4-.2-.8l.15.16c-.1-.73-.44-1-.3-.4-.15-.34-.23-.58-.26-.74-.01-.03.01-.06.03-.1.04-.06.08-.2-.02-.23l-.04.03a1.14 1.14 0 0 0-.19.3c.01-.03.03-.06.05-.1-.17.17.18-.35-1.17.08l-.07-.1c-.38.1-.76.17-.6.28l-4.2.52c-.86.2.35.05-.05.22-.9.35-1.23.2-2.06.28l.26.08-1.7.25.22-.15-1.13.2c-.3.14.17.04.54.02-1.22.2-2.16.73-3.43.73l.12-.15c-.01.04.18.01.28-.03 1.18-.42-.92.05-1-.03-.32.22-1.43.3-1.86.6-2.2.13-3.82.83-5.5.98.4-.18-.55.02-.52-.1-.74.05-.5.25-1.17.34l-.62-.05c-1.48.52-1.08-.03-2.53.34-.9.4-2.24.24-3.6.73l-.07-.1c-1.07.3-1.68.18-2.54.42-.25-.08.2-.1.15-.26-.88.28.18-.3-.4-.05-1.3.1-2.4.98-3.63 1.17-1.26.44-2.47.16-2.65.5l.67-.1-1.78.36-.07-.1c-.6.17-1.87.32-2.8.56l-.93 5.8-.54 2.42c-.07.34-.2.87-.4 1.25a4.59 4.59 0 0 1-.74 1.08c-.6.63-1.32 1.1-2.16 1.37-.42.14-.87.23-1.35.25-.5.02-.9-.04-1.35-.07.46.36.94.58 1.34.7l.8.16a3.9 3.9 0 0 0 .67-.11l2.93-.54 2.37-.72c1.03-.05 1.93-.2 3.4-.58l-.3-.08c.93-.08 1.7-.33 2.48-.5.4-.22-.67-.05.2-.33l2.53-.5c-.1.1-.98.25-.72.32.14-.1 1.4-.34 1.2-.45l.07.15c.32-.1.58-.04 1-.12.2-.08.33-.17-.14-.1.86-.22 2.05-.6 2.74-.63.84-.16.6.03.88.1.25-.06.62-.2.6-.26h.1l.33-.17c1.74-.12 3.2-.83 4.7-.88-.37.1-1.07.17-1.06.3l1.2-.26c-.5.13-.88.28-.67.34l5.2-1.26c.12.16 1.37-.22 2.1-.2-.1-.01-.14-.03-.12-.04-.32.04-.45.03.23-.13-.01.01.01.02.02.02l.3-.12c.55-.03.48.02.22.1.4-.08.86-.18.52-.01 1.1-.14 1.16-.42 1.76-.6l3.36-.66-.2.07c.46-.06.66.08 1.54-.12.6-.7 2.3-.44 4.2-.97-.28-.14.72-.24.6-.37a11.4 11.4 0 0 0 1.36-.2l.65-.14c.22-.05.44-.1.56-.16.62-.22 1.22-.62 1.8-1.17l-.04.07c.2-.12.47-.42.62-.78.15-.35.23-.72.2-.9.1.26.3-.5.35-.2-.13-.18-.1-.62-.14-1.03zm-84.08-74.43c1.48-.37 1.92-.33 3.4-.96l1.07-.45 1.02-.52c.27-.25.87-.44 1.18-.73l.18-.01c.1-.1.24-.2.4-.24h0c.16-.15.4-.24.46-.32h0l.2-.15-.02.05c.28-.25.6-.46.9-.62l-.07-.06c.67-.3.75-.64 1.35-.93h.01c.53-.66 1.12-.7 1.62-1.4-.06.1.06 0 .07.03.28-.27.6-.56.46-.7.2-.2.2-.13.27-.1-.05-.05.1-.25.25-.4l-.05.1.43-.47-.2-.01c.26-.2.18.06.4-.2l-.1-.08c.35-.3.65-.4 1-.7a13.58 13.58 0 0 0 1.67-2.34l1.48-2.34.12-.03c.13.03.08-.5.2-.5l.03-.2c.04-.04.12-.14.1-.03.08-.17.07-.18.1-.32l.16-.15c.38-.64.5-1.28.8-2 .25-.4.5-1.04.66-1.7.2-.66.3-1.35.38-1.85.16-1.4.92-2.98.8-4.47.02-.05-.01-.17-.02-.17a14.83 14.83 0 0 0 .08-1.34v-.94c-.01-.53-.07-1.2-.18-1.7-.1-.5-.25-.84-.38-.73s-.24.64-.46 1.84l-.03-.03c-.05.7-.06 1.14.06 1.63-.18.07-.03.58-.1.74l-.01-.02c.1.44-.17.87-.1 1.3-.01-.02-.06-.03-.05-.13-.01.3-.03.72-.13.73-.04.72-.3 1.7-.2 2.18l-.02-.04c.06.28-.06.34-.07.64-.02.01-.03.03-.03.03.04.3-.18.82-.2 1.06h-.07l-.15.55.08-.2c.15.12-.24.38-.25.8-.13.36.13.88-.12 1.23.01.2-.07-.2-.1.1-.1-.02-.01-.15-.1-.1-.06.28-.26.4-.32.75l-.07-.01c-.03.48-.43.75-.44 1.07-.14.45-.33.2-.4.7l-.17.13c-.1.18.05.2-.1.37-.05-.04-.2.23-.18.08-.34.4-.4 1-.88 1.5.03.2-.23.44-.22.58-.06-.01-.4.57-.28.18.01-.03.05-.08.06-.07l-.04-.08c-.33.24-.34.63-.57.94.08-.08.17-.2.15-.1l-.2.3-.01-.1-.35.4h.1c-.2.18-.36.17-.46.47-.04.14.24-.13.08.1l-.95.93c.1.02.02.12-.06.22l-.07-.04c-.26.4-.24.01-.5.4l-.01-.07.03.2c-.2.4-.27.05-.46.53.12-.14.18.05-.01.2l-.01-.1c-.08.1-.1.15-.16.2.03-.08-.04-.1-.17.04l.03-.15a2.16 2.16 0 0 1-.17.34c-.26.12-.52.48-.67.48 0 0-.47.35-.5.52.04-.13-.22.06-.2-.06a1.14 1.14 0 0 1-.58.52l.02-.03c-.6.32-.82.8-1.4 1.02.07.06-.22.2-.1.24-.47.42-1.06.42-1.1.82-.24.15-.33.1-.47.15l.05-.05-.93.54c-.16.12-.12.27-.45.4.08-.1-.05-.03-.17.02.07-.05.1-.08-.1-.04-.01.03-.04.06-.07.08-.2.1-.16.1-.06.07 0 .01.01.02.05.02-.24.02-.57.28-.64.2-.6.28-1 .56-1.5.8-.08-.03.03-.12.17-.2l-.36.16c-.02-.08.2-.12.3-.18-.48.05-.86.44-1.42.5l-.1.1h-.03c.01.03-.1.1-.17.14-.1-.05-.04-.16-.3-.08-.22-.01-.57.2-.83.3.15-.03.1.02.06.06-.13.03-.22-.02-.32.04l-.04-.1c.07.07-.32.18-.36.23-.1-.05.2-.1.2-.17l-.8.2c-.27.13.07.08-.05.2-.25.07-.48.18-.78.18l.1.06c-.46.15-.76.18-1.1.15-1.74.57-1.97.73-1.7.9.3.14 1.04.13 1.04.13 1.5 0 2.22-.37 3.9-.85z"/><path d="M200.2 320.67l-.3-.16c.93.15 1.74.1 2.56.1.45-.1-.64-.2.3-.27l2.6.13c-.1.08-1.03.01-.8.14.16-.05 1.47.01 1.3-.15l.03.16c.34-.03.58.1 1 .12.2-.03.37-.08-.1-.13.9-.01 2.17-.1 2.85.05.87.04.6.18.83.3.26 0 .66-.06.66-.1l.1.02.37-.08c1.74.3 3.35-.03 4.83.27-.4 0-1.1-.1-1.1.04l1.26.04c-.5.01-.93.06-.74.17l5.43.02c.08.2 1.4.12 2.12.3-.1-.04-.13-.06-.1-.07-.33-.03-.45-.07.26-.07-.01.01.01.02.01.03.1-.01.24-.02.32-.05.55.1.46.14.2.14.42.03.9.03.5.12 1.13.13 1.24-.13 1.88-.15l3.46.17-.22.02c.47.06.63.23 1.54.26.76-.53 2.37.13 4.37.07-.24-.2.77-.06.7-.2.96.14 1.83.15 2.72.16l1.38.03.73.04.3.02c.08 0 .15.01.23 0-.02.01-.04.02-.06.02.18.06.5-.02.75-.2s.4-.46.4-.6c.03.24.37-.3.37-.05 0-.2.03-.4.1-1.04l.18-1c.22-.33.28-1.74.55-2.6l-.04-1.17.1.42c.07-.6.2-.7.23-.45.07-.27.04-.4.08-.82l.1.2c.17-.73-.07-1.1-.15-.5-.05-.78.03-1 .1-1.2.04-.1.1-.2.12-.34.03-.14.01-.14-.04-.22a.61.61 0 0 0-.28.07.3.3 0 0 1 .1-.04c-.02-.01-.03-.01-.02-.03 0-.02.23-.3-.1-.17.01-.04-.01-.08-.03-.13-.4.01-.8-.02-.66.13l-4.26-.48c-.9-.01.33.13-.1.2-.97.13-1.25-.1-2.1-.2l.23.14-1.73-.15.25-.1-1.16-.08c-.33.07.16.08.53.14-1.25-.1-2.3.2-3.56-.1l.16-.1c-.01.03.18.05.28.04 1.26-.13-.92-.17-.97-.26-.37.14-1.48-.05-1.97.13-2.2-.4-3.96-.1-5.63-.35.44-.08-.55-.1-.5-.2-.74-.12-.56.12-1.23.06l-.6-.2c-1.58.16-1.06-.3-2.57-.26-.98.16-2.26-.3-3.73-.15l-.04-.13c-1.13.05-1.7-.22-2.6-.2-.23-.14.23-.06.2-.22-.93.06.25-.25-.37-.14-1.3-.22-2.6.4-3.85.28-1.34.13-2.47-.43-2.73-.14l.7.06-1.84-.07-.04-.1c-.75.04-2.5-.2-3.45-.08.01-.01-.06-.02-.1-.05-.95.04-1.2-.13-2.05.01l.1-.04c-1.5.2-4.74-.06-7.06-.14-.06-.17-1.4-.18-2.37-.2.3.01.34-.07.4-.1-.44.04-.9.02-1.34-.03l-.58-.12c-.02.1-.03.2-.03.3a.86.86 0 0 0 .01.16c.01.06.02.07.03.22v-.05c-.13.52.03 2.15-.27 2.38a15.43 15.43 0 0 1 .03 2.36l-.1 1.33a3.58 3.58 0 0 0 .17 1.2l-.08-.06c.17.78.58 1.4 1 1.88a5.2 5.2 0 0 0 1.27 1.02 6.78 6.78 0 0 0 .7.36c.24.05.48.1.72.1l3 .18 2.5-.13c1 .23 1.9.3 3.45.3zm2-100.85l-.64 7.9-.28 5.17c.08.8-.14 2.18-.1 3.12l-.1.36a4.36 4.36 0 0 1-.04 1.02l-.02-.02c.02.48-.04 1.02-.03 1.26l-.02-.02-.03.58-.02-.1-.12 2.46.1-.06c-.2 1.62-.06 2.22-.26 3.68l-.02-.02c.1 1.87-.34 2.92-.24 4.84-.01-.24-.05.1-.07.08-.03.88-.08 1.82.1 1.84-.04.64-.1.52-.16.6.08 0 .07.56.04 1.06l-.01-.23-.06 1.43.16-.27c-.1.76-.18.18-.2.9h.12c-.1 1.05-.3 1.65-.46 2.67-.32 4.23-.3 8.8-.76 12.7l-.1.17c-.13.07.12 1.1-.01 1.24l.03.46c-.03.13-.07.4-.1.17-.03.42-.01.43.01.74l-.1.44c-.17 1.67-.1 3.1-.24 4.85-.3 2.1-.4 6.08-.45 8.38-.01 3.23-.76 6.94-.75 10.25-.03.1 0 .4.01.38l-.2 3s-.97 14.62.8 3.58l.02.08c.17-1.65.25-2.68.18-3.83.18-.17.1-1.35.18-1.74l.01.04c-.07-1.02.24-2.07.18-3.04.01.04.06.06.05.3.02-.7.05-1.68.15-1.72.08-1.7.28-4.04.18-5.14l.02.08c-.07-.62.03-.8.02-1.5.02-.04.03-.1.03-.08-.06-.68.1-1.96.1-2.5l.07-.03.07-1.34-.05.5c-.17-.18.18-1 .12-1.98.08-.9-.26-1.87-.12-2.8-.06-.46.1.4.1-.27.1-.02.04.32.13.15 0-.66.17-1.08.15-1.9l.08-.03c-.07-1.07.22-2 .14-2.7.01-1.1.27-.72.2-1.87l.13-.44c.05-.5-.1-.36-.02-.9.06.04.1-.68.13-.36.18-1.22.02-2.5.3-4.1-.1-.36.02-1.17-.05-1.43.06-.04.1-1.63.17-.7 0 .08-.01.22-.03.2l.07.1c.2-.9.03-1.68.1-2.58-.04.27-.06.63-.1.38l.06-.84.05.18.12-1.26-.1.17c.08-.6.22-.82.16-1.52-.04-.32-.14.58-.12-.07l.35-3.1c-.1.1-.07-.2-.07-.48l.08-.03c-.03-1.12.2-.4.18-1.5l.05.1-.14-.3c-.08-1 .2-.53.06-1.65-.02.44-.18.2-.1-.34l.06.14c0-.3-.02-.4.01-.6.03.18.1.1.1-.34l.07.3-.08-.84c.12-.64.08-1.66.2-1.92 0 0 .14-1.38.05-1.7.05.28.13-.48.2-.26-.06-.36-.05-1.42.06-1.84v.08c.18-1.56.05-2.68.24-4.08-.1.06 0-.68-.12-.5-.02-1.46.4-2.63.08-3.18.02-.66.13-.78.17-1.12l.01.16c.05-1.24.07-1.6.14-2.52 0-.46-.16-.54-.07-1.36.05.27.06-.07.08-.37 0 .2.02.26.08-.14-.02-.06-.02-.15-.03-.23.01 0 .01-.02.02-.01.01-.5-.02-.43-.04-.2-.01-.01-.02.01-.04.08.12-.53.1-1.5.2-1.54.07-1.55.03-2.66.07-3.94.06-.14.1.16.1.54l.04-.9c.08.01.01.53.01.8.2-1.08.01-2.25.2-3.5l-.05-.27v-.08c-.03 0-.06-.3-.06-.48.08-.18.16.02.2-.6.1-.5.06-1.42.06-2.07-.03.35-.07.24-.08.08.02-.32.1-.5.08-.74l.1-.02c-.1.12-.04-.83-.08-.95.08-.17.03.5.08.57l.1-1.9c-.03-.68-.1.12-.16-.2.02-.6-.01-1.18.1-1.86l-.1.2c.01-1.12.06-1.8.2-2.54-.16-8.37-.82-1.8-.82-1.8-.4 3.23-.25 4.94-.43 8.84z"/><path d="M249.2 291.43c.13.68.01.9.25 1.57.07.33.2.68.3 1 .16.12.1.42.26.58l-.05.1c.05.05.1.12.07.2H250c.08.08.07.2.1.23h-.02l.04.1h-.03a.96.96 0 0 1 .15.47l.08-.03c-.02.34.2.4.15.73h-.02c.3.3-.01.6.3.93-.04-.04-.04.03-.06.03.07.17.13.35.3.3.03.13-.03.1-.1.15.07-.02.13.08.16.18l-.04-.04.1.27.12-.1c0 .16-.16.08-.1.2l.1-.03c.03.2-.1.37-.15.6.16.84.67 1.65.66 2.47l-.08.06c-.12.05.24.17.13.22l.08.07c-.02.03-.03.1-.07.05.02.08.04.08.1.13l-.06.1c.02.34.24.58.3.93-.06.45.28 1.2.48 1.6.34.58.03 1.43.4 2.02-.01.03.04.07.05.07l.13.6s.66 2.86 1.16.44l.03.01c-.01-.34-.05-.54-.24-.73.16-.08-.05-.27-.01-.36h.02c-.18-.16.01-.43-.16-.6.02 0 .06 0 .08.04-.06-.13-.14-.3-.04-.35-.1-.32-.18-.8-.4-.97h.03c-.14-.1-.05-.15-.14-.27l.02-.02c-.14-.1-.1-.38-.18-.47h.06l-.08-.26.01.1c-.2.01.06-.23-.1-.4-.02-.18-.46-.27-.42-.47-.1-.07.15.04.06-.07.1-.03.07.05.14-.01-.08-.12.04-.23-.06-.38l.07-.02c-.18-.17 0-.4-.16-.52-.1-.2.18-.2-.02-.38l.08-.1c-.01-.1-.14-.04-.12-.16.06-.01.02-.15.1-.1.04-.26-.26-.45-.17-.8-.14-.04-.1-.2-.2-.24.05-.02-.07-.32.1-.17.01.01.02.04 0 .04h.08c.1-.2-.16-.3-.18-.5-.01.06.01.13-.05.1l-.03-.17.07.02-.03-.25-.07.05c.01-.13.12-.2-.02-.3-.07-.05-.07.14-.13.02.01-.17.03-.43 0-.64-.08.04-.1-.02-.12-.07h.07c-.16-.2.14-.12.01-.32l.06.01-.17-.02c-.2-.16.12-.14-.13-.3.03.08-.15.08-.14-.03l.08.01c-.03-.05-.06-.07-.06-.1.05.03.1-.01.07-.1l.1.04-.17-.13c.04-.14-.1-.32-.01-.4 0 0-.02-.28-.14-.32.08.04.07-.12.16-.1-.1-.05-.2-.24-.15-.34h.01c.01-.33-.24-.5-.2-.8-.08.03-.07-.12-.17-.06-.18-.26.1-.57-.27-.6-.05-.12.04-.17.04-.24l.03.03c-.1-.23-.1-.3-.15-.48-.05-.08-.2-.06-.22-.23.07.04.05-.03.03-.1.02.04.04.04.07-.05-.02-.01-.04-.02-.05-.03-.04-.1-.05-.08-.05-.03-.01 0-.02.01-.03.03.05-.12-.08-.3.02-.33-.1-.3-.26-.48-.37-.72.05-.04.1 0 .15.07l-.06-.17c.08-.02.07.1.1.14.07-.24-.23-.4-.18-.68l-.07-.04h.01a.11.11 0 0 1-.1-.07c.06-.05.16-.04.12-.16.04-.1-.1-.27-.17-.4.01.07-.04.06-.07.04-.02-.06.04-.1 0-.15l.1-.03c-.08.05-.13-.14-.18-.15.06-.05.08.08.14.08l-.1-.37c-.1-.1-.08.05-.18 0-.05-.1-.14-.2-.12-.36l-.07.06c-.12-.2-.14-.33-.1-.5-1.07-1.46-1-.12-1-.12 0 .7.3.97.57 1.7zm-53.05 155.3l-.3-.14c.96.1 1.78-.02 2.62-.05.45-.14-.67-.17.28-.3l2.67-.03c-.1.1-1.05.08-.8.2.16-.06 1.5-.08 1.32-.23l.04.16c.34-.05.6.06 1.04.06.2-.04.37-.1-.12-.13.92-.07 2.2-.24 2.9-.13.9-.01.62.14.87.26.27-.02.67-.1.66-.15l.1.02.37-.1c1.8.2 3.42-.25 4.94-.03-.4.03-1.12-.03-1.13.1l1.28-.04c-.53.04-.95.12-.74.2l5.54-.32c.1.18 1.43.03 2.18.16-.1-.03-.13-.05-.12-.07-.34-.01-.46-.05.26-.1-.01.01.01.02.02.03l.32-.07c.57.07.48.1.2.13.43 0 .9-.02.53.08 1.16.06 1.26-.2 1.9-.26l3.55-.05-.22.03c.48.03.65.2 1.58.16.74-.57 2.42-.02 4.47-.2-.26-.18.8-.1.7-.25 1.98.17 3.54-.18 5.75-.04l-.1.02c.6.14 2.08.03 2.6-.1-.3.14.77.18.38.3.45-.2 2.4-.1 2.4-.1.37.17 1.8 0 2.7.13l1.17-.22-.42.15c.62-.02.74.1.5.15.28.02.42-.03.84-.05l-.2.12c.43.03.52-.05.57-.12.03-.08-.01-.13-.16-.1.33-.2.34-.25.46-.26.1-.02.25-.05.26-.43a.81.81 0 0 0-.22-.23l.08.07c-.01-.1-.03-.43-.01-.55.01-.14.05-.2.08-.28s.07-.14.08-.28c.01-.07 0-.17 0-.28-.01-.03-.02-.07-.04-.1l.12-.06c-.03-.1-.03-.2-.17-.03-.02-.04-.1-.03-.15-.06-.03 0 0-.01-.1-.02l-.87-.06-2.07-.16c-.92.03.35.1-.1.2-.98.18-1.28-.04-2.15-.1l.24.13-1.77-.07.25-.1-1.2-.02c-.34.08.17.07.55.12-1.28-.04-2.34.3-3.64.07l.15-.12c-.01.03.18.04.3.02 1.3-.2-.95-.13-1-.22-.37.15-1.5.02-2 .23-2.27-.3-4.05.1-5.77-.08.45-.1-.56-.08-.52-.2-.76-.1-.57.15-1.25.12l-.62-.17c-1.6.23-1.1-.24-2.64-.14-1 .2-2.32-.2-3.82.03l-.05-.12c-1.15.1-1.74-.14-2.67-.07-.24-.13.23-.07.2-.23-.95.1.25-.26-.4-.12-1.33-.16-2.65.5-3.92.46-1.37.2-2.55-.32-2.8-.01l.7.03-1.88.01-.05-.1c-.77.07-2.58-.1-3.53.08.01-.01-.06-.02-.1-.04-.97.1-1.23-.07-2.1.1l.1-.05c-1.53.26-4.85.16-7.22.2-.07-.17-1.44-.1-2.43-.08.3 0 .34-.08.4-.1-1.37.2-2.87-.22-4.3-.01l.05-.02c-.54-.1-2.2.15-2.45-.14-.8.1-1.57.16-2.43.16-.2 0-.43 0-.66-.01-.16 0-.2-.01-.3-.02l-.3-.03c-.08-.03-.05.05-.06.1v.16l-.05-.07c-.1.2-.06 1.37-.08 2-.08.67.15 1.1.42 1.47.22.27.43.44.63.57.2.07.43.12.66.12H190l2.55-.28c1.06.12 2 .14 3.57.02z"/><path d="M220.4 422.14c-.17.25-.35.24-.44.55-.08.13-.12.28-.16.42.08.12-.08.17-.03.3h-.08c.02.04.03.08-.02.1h-.02c.03.06-.02.1-.01.12h-.02l-.01.05v-.02a.2.2 0 0 1-.07.21l.08.03c-.15.08-.01.2-.17.27l-.02-.01c.13.25-.26.16-.14.4-.01-.03-.04-.01-.06-.02-.01.08-.04.16.1.24-.03.05-.07.02-.13-.01.07.03.07.1.06.13l-.02-.03-.03.12.14.04c-.07.04-.16-.06-.16.01l.1.05c-.06.07-.24.04-.36.08-.2.3-.12.8-.46 1l-.1-.03c-.12-.05.13.17.01.13l.03.06c-.03 0-.06.01-.07-.02-.02.03 0 .04.02.08h-.1c-.12.1-.04.28-.14.4-.23.1-.25.47-.26.68.04.34-.56.4-.5.75-.02 0 .01.04.02.05l-.14.23s-.62 1.1.77.73h.02c.13-.1.18-.17.1-.32.16.06.07-.1.13-.1h.01c-.08-.14.18-.1.1-.24.01.01.05.03.05.05.01-.06.01-.16.1-.12.04-.14.18-.3.08-.46l.02.02c-.07-.1.02-.07 0-.15.01 0 .02 0 .03.01-.07-.1.06-.16.04-.22l.06.03.04-.1-.03.03c-.16-.1.14-.03.07-.16.06-.06-.27-.32-.15-.35-.06-.07.1.1.08.01.1.04.04.05.12.07-.01-.07.13-.04.1-.13l.07.03c-.08-.14.17-.1.08-.22-.01-.1.23.04.14-.1h.1c.03-.03-.1-.08-.03-.1.06.03.07-.03.1.02.14-.05-.03-.26.2-.3-.1-.08 0-.1-.07-.18.05.02.07-.12.14 0 .01.01 0 .02-.02.01l.06.04c.16-.01 0-.16.05-.22-.03.01-.04.04-.08 0l.04-.06.05.04.08-.08-.07-.02c.06-.03.18.01.1-.1-.04-.05-.1 0-.1-.06.08-.04.2-.1.26-.17-.08-.03-.07-.05-.07-.08l.07.03c-.05-.13.16.04.13-.08l.04.03-.13-.1c-.1-.14.16.03.02-.15-.01.04-.15-.06-.1-.1l.06.04c0-.03-.02-.05 0-.06.03.03.1.05.1.02l.07.06-.1-.12c.1-.01.05-.14.15-.1 0 0 .1-.08.01-.16.05.05.1.01.17.06-.06-.06-.07-.17.02-.17l.01.01c.14-.08 0-.26.15-.32-.08-.03-.01-.07-.1-.1-.04-.16.3-.1.02-.3.01-.06.1-.02.13-.04l.01.02c.02-.1.04-.14.08-.2-.01-.05-.15-.13-.08-.17.05.05.05.02.06-.01 0 .02.02.04.07.02-.02-.01-.02-.03-.03-.04.01-.04-.01-.04-.03-.03-.01-.01-.02-.01-.04-.01.1 0 .05-.12.15-.07.04-.13-.02-.27 0-.4.06.01.1.06.1.1l.02-.08c.07.04.02.06.02.1.16-.02-.03-.23.13-.28l-.05-.05h.01c-.03-.01-.06-.06-.06-.08.07.02.14.07.16.02.08-.01.03-.12.02-.2-.02.02-.05 0-.07-.03.01-.03.08-.01.06-.04l.1.04c-.08-.03-.05-.1-.08-.13.07.02.03.07.08.1l.06-.15c-.04-.08-.08-.03-.15-.1.01-.05-.03-.13.05-.16l-.08-.02c-.01-.12.02-.16.13-.18-.28-.96-.76-.56-.76-.56-.3.16-.14.4-.23.74zm5 2.1c-.17.24-.35.24-.42.54-.08.12-.1.28-.16.4.08.12-.08.17-.02.28h-.08c.02.04.03.08-.02.1v-.01c.03.06-.02.1 0 .12l-.02-.01-.01.05-.02-.02c.02.1-.01.16-.06.2l.08.03c-.15.08-.01.2-.17.27h-.02c.14.24-.25.15-.13.4-.02-.03-.04-.01-.06-.02-.01.08-.04.15.12.23-.03.05-.07.02-.13-.01.07.03.07.1.06.13l-.02-.03-.03.12.14.04c-.07.04-.16-.06-.16.01l.1.05c-.06.07-.24.04-.36.08-.2.3-.1.78-.44.98l-.1-.03c-.12-.05.13.17.02.13l.04.06c-.03 0-.06.01-.07-.02-.02.03 0 .04.02.08h-.1c-.12.1-.03.28-.13.4-.23.1-.24.46-.25.67.05.33-.55.4-.48.73-.02 0 .01.04.02.05l-.13.22s-.6 1.1.78.72h.02c.12-.1.18-.17.1-.32.16.06.07-.1.13-.1h.01c-.08-.14.18-.1.1-.23.01.01.05.03.05.05.01-.06.01-.15.1-.1.04-.14.17-.3.07-.45v.02c-.07-.1.02-.07-.01-.14.01 0 .02 0 .03.01-.07-.1.06-.16.04-.22l.06.03.04-.1-.03.03c-.16-.1.14-.03.07-.15.06-.06-.27-.3-.16-.34-.06-.07.1.1.08.01.1.04.04.05.12.07-.02-.07.13-.04.1-.13l.07.03c-.08-.14.16-.1.07-.22-.01-.1.23.04.14-.1l.1.01c.03-.03-.1-.08-.03-.1.06.03.07-.03.1.02.14-.05-.03-.25.18-.3-.1-.08 0-.1-.07-.17.05.02.07-.12.14 0 .01.01 0 .02-.02.01l.06.04c.16-.01 0-.16.05-.22-.03.01-.04.04-.08 0l.04-.06.05.04.08-.08h-.07c.06-.03.18.01.1-.1-.04-.05-.1 0-.1-.06.08-.04.2-.1.26-.17-.08-.03-.07-.05-.07-.08l.07.03c-.05-.13.16.04.13-.08l.04.03-.13-.1c-.1-.14.16.03.02-.15-.01.04-.16-.06-.1-.08l.06.04c0-.03-.03-.05 0-.06.03.03.1.05.1.02l.07.06-.1-.12c.1-.01.05-.13.15-.1 0 0 .1-.08.01-.16.05.05.1.01.17.06-.06-.06-.07-.17.02-.17l.01.01c.14-.08 0-.26.14-.32-.08-.03-.01-.07-.12-.1-.04-.16.3-.1.02-.3.01-.06.1-.02.13-.04v.02a.42.42 0 0 1 .07-.2c-.01-.05-.15-.13-.1-.17.05.05.05.02.06-.01 0 .02.02.03.07.02-.02-.01-.02-.03-.03-.04.01-.04-.01-.04-.03-.03-.01-.01-.02-.01-.04-.01.1 0 .05-.12.15-.07.04-.13-.02-.26-.01-.38.06.01.1.06.1.1l.02-.08c.07.04.02.06.03.1.16-.02-.03-.23.12-.27l-.05-.05h.01c-.03-.01-.06-.06-.06-.08.07.02.14.07.16.02.08-.01.02-.12.01-.2-.02.02-.05 0-.07-.03.01-.02.08-.01.06-.04l.1.04c-.08-.03-.05-.1-.08-.13.07.02.04.06.08.1l.06-.15c-.04-.08-.08-.03-.15-.1.01-.05-.03-.13.05-.15l-.08-.02c-.02-.1.02-.16.12-.18-.3-.94-.77-.55-.77-.55-.3.15-.16.4-.25.72zm-38.87 7.3c.53.2.6.4 1.18.53.25.1.54.18.8.26.17-.07.32.14.5.1l.02.1c.06-.01.13-.01.16.05h-.01c.1-.02.16.05.2.04l-.01.02.1.03h-.03a.65.65 0 0 1 .37.15l.03-.08c.2.2.35.1.5.32l-.01.02c.38-.05.32.37.7.36-.05 0-.01.05-.03.06.13.06.27.13.36-.01.08.06.04.1.01.16.04-.06.13-.03.2.01h-.05l.2.12.05-.14c.07.1-.08.16.04.2l.07-.1c.13.12.08.33.15.5.47.45 1.2.8 1.44 1.43l-.05.08c-.1.1.25.02.18.1h.1c-.01.03 0 .08-.04.07.04.06.05.05.12.06l-.02.1c.12.24.35.36.5.6.05.37.48.84.72 1.14.4.4.16 1.15.52 1.57-.01.02.04.05.05.05l.12.47s.14.57.3.9c.15.3.47.5.82-.56l.03.01c.01-.3-.02-.48-.2-.64.16-.08-.05-.23-.01-.3h.02c-.17-.13 0-.38-.17-.5.02 0 .06-.01.08.03-.06-.1-.15-.26-.06-.3-.13-.27-.24-.68-.47-.78h.03c-.14-.05-.07-.12-.17-.2.01-.01.01-.02.02-.02-.15-.06-.17-.3-.25-.36l.06-.04-.12-.2.03.08c-.17.06.02-.2-.17-.3-.06-.15-.5-.08-.5-.27-.1-.02.15-.02.04-.08.08-.05.08.01.13-.05-.1-.07-.02-.2-.15-.3l.06-.05c-.22-.08-.1-.35-.3-.37-.16-.12.1-.23-.14-.3l.03-.12c-.04-.08-.14.03-.15-.08.05-.03-.03-.13.05-.12-.05-.24-.4-.24-.45-.57-.13.04-.17-.12-.27-.1.03-.04-.2-.2 0-.18.02 0 .03.02.02.04l.07-.04c-.01-.2-.26-.16-.36-.3.02.05.07.1 0 .1l-.1-.1.07-.02-.13-.18-.03.08c-.05-.1.01-.23-.16-.23-.08.01.01.14-.1.1-.07-.13-.2-.34-.32-.48-.04.08-.08.04-.13.02l.04-.06c-.22-.04.04-.17-.17-.23l.05-.03-.14.1c-.23.01.02-.18-.26-.14.07.04-.07.15-.12.07l.06-.04c-.05-.02-.08-.01-.1-.04.05-.01.07-.08 0-.1l.1-.04-.2.02c-.05-.13-.25-.14-.24-.25 0 0-.18-.18-.28-.1.08-.03-.02-.13.05-.18-.1.03-.3 0-.3-.1h.02c-.2-.2-.46-.14-.64-.34-.03.08-.12-.02-.15.1-.27-.02-.3-.4-.54-.14-.1-.03-.1-.13-.14-.17l.03-.01c-.2-.06-.27-.1-.4-.16-.1 0-.16.14-.28.05.07-.04.01-.05-.04-.07.04 0 .05-.01.01-.08-.02.01-.04.02-.05.02-.1-.03-.08-.01-.05.01-.01.01-.01.02 0 .04-.05-.1-.24-.1-.2-.2-.26-.08-.48-.03-.7-.07 0-.06.06-.1.13-.1l-.15-.03c.03-.08.1-.01.15-.01-.13-.2-.4 0-.58-.18l-.06.05v-.01c-.01.03-.07.06-.1.06-.01-.08.05-.15-.05-.18-.06-.1-.24-.04-.36-.03.05.03.02.06-.01.08-.05-.01-.06-.1-.1-.07l.02-.1c0 .1-.16.05-.2.1-.01-.08.1-.04.12-.08l-.32-.07c-.13.04 0 .1-.08.16-.1-.01-.2.03-.3-.05v.1c-.2.02-.3-.02-.4-.13-.77.18-.85.42-.78.58.06.16.3.27.3.27.44.24.76.07 1.4.18zm86.3 15.18l-.3-.14c.96.1 1.78-.02 2.62-.05.45-.14-.67-.17.28-.3l2.67-.03c-.1.1-1.05.08-.8.2.16-.06 1.5-.08 1.32-.23l.04.16c.34-.05.6.06 1.04.06.2-.04.37-.1-.12-.13.92-.07 2.2-.24 2.9-.13.9-.01.62.14.87.26.27-.02.67-.1.66-.15l.1.02.37-.1c1.8.2 3.42-.25 4.94-.03-.4.03-1.12-.03-1.13.1l1.28-.04c-.53.04-.95.12-.74.2l5.54-.32c.1.18 1.43.03 2.18.16-.1-.03-.13-.05-.12-.07-.34-.01-.46-.05.26-.1-.01.01.01.02.02.03l.32-.07c.57.07.48.1.2.13.43 0 .9-.02.53.08 1.16.06 1.26-.2 1.9-.26l3.55-.05-.22.03c.48.03.65.2 1.58.16.74-.57 2.42-.02 4.47-.2-.26-.18.8-.1.7-.25 1.98.17 3.54-.18 5.75-.04l-.1.02c.6.14 2.08.03 2.6-.1-.3.14.77.18.38.3.45-.2 2.4-.1 2.4-.1.37.17 1.8 0 2.7.13l1.17-.22-.42.15c.62-.02.74.1.5.15.28.02.42-.03.84-.05l-.2.12c.43.03.52-.05.57-.12.03-.08-.01-.13-.16-.1.33-.2.34-.25.46-.26.1-.02.25-.05.26-.43a.81.81 0 0 0-.22-.23l.08.07c-.01-.1-.03-.43-.01-.55.01-.14.05-.2.08-.28s.07-.14.08-.28c.01-.07 0-.17 0-.28-.01-.03-.02-.07-.04-.1l.12-.06c-.03-.1-.03-.2-.17-.03-.02-.04-.1-.03-.15-.06-.03 0 0-.01-.1-.02l-.87-.06-2.07-.16c-.92.03.35.1-.1.2-.98.18-1.28-.04-2.15-.1l.24.13-1.77-.07.25-.1-1.2-.02c-.34.08.17.07.55.12-1.28-.04-2.34.3-3.64.07l.15-.12c-.01.03.18.04.3.02 1.3-.2-.95-.13-1-.22-.37.15-1.5.02-2 .23-2.27-.3-4.05.1-5.77-.08.45-.1-.56-.08-.52-.2-.76-.1-.57.15-1.25.12l-.62-.17c-1.6.23-1.1-.24-2.64-.14-1 .2-2.32-.2-3.82.03l-.05-.12c-1.15.1-1.74-.14-2.67-.07-.24-.13.23-.07.2-.23-.95.1.25-.26-.4-.12-1.33-.16-2.65.5-3.92.46-1.37.2-2.55-.32-2.8-.01l.7.03-1.88.01-.05-.1c-.77.07-2.58-.1-3.53.08.01-.01-.06-.02-.1-.04-.97.1-1.23-.07-2.1.1l.1-.05c-1.53.26-4.85.16-7.22.2-.07-.17-1.44-.1-2.43-.08.3 0 .34-.08.4-.1-1.37.2-2.87-.22-4.3-.01l.05-.02c-.54-.1-2.2.15-2.45-.14-.8.1-1.57.16-2.43.16-.2 0-.43 0-.66-.01-.16 0-.2-.01-.3-.02l-.3-.03c-.08-.03-.05.05-.06.1v.16l-.05-.07c-.1.2-.06 1.37-.08 2-.08.67.15 1.1.42 1.47.22.27.43.44.63.57.2.07.43.12.66.12h3.08l2.55-.28c1.05.12 2 .14 3.57.02z"/><path d="M297.07 422.14c-.17.25-.35.24-.44.55-.08.13-.12.28-.16.42.08.12-.08.17-.03.3h-.08c.02.04.03.08-.02.1h-.02c.03.06-.02.1-.01.12h-.02l-.01.05-.02-.02a.2.2 0 0 1-.07.21l.08.03c-.15.08-.01.2-.17.27l-.02-.01c.13.25-.26.16-.14.4-.01-.03-.04-.01-.06-.02-.01.08-.04.16.1.24-.03.05-.07.02-.13-.01.07.03.07.1.06.13v-.03l-.03.12.14.04c-.07.04-.16-.06-.16.01l.1.05c-.06.07-.24.04-.36.08-.2.3-.12.8-.46 1l-.1-.03c-.12-.05.13.17.01.13l.03.06c-.03 0-.06.01-.07-.02-.02.03 0 .04.02.08h-.1c-.12.1-.04.28-.14.4-.23.1-.25.47-.26.68.04.34-.56.4-.5.75-.02 0 .01.04.02.05l-.14.23s-.62 1.1.77.73h.02c.13-.1.18-.17.1-.32.16.06.07-.1.13-.1h.01c-.08-.14.18-.1.1-.24.01.01.05.03.05.05.01-.06.01-.16.1-.12.04-.14.18-.3.08-.46l.02.02c-.07-.1.02-.07 0-.15.01 0 .02 0 .03.01-.07-.1.06-.16.04-.22l.06.03.04-.1-.03.03c-.16-.1.14-.03.07-.16.06-.06-.27-.32-.15-.35-.06-.07.1.1.08.01.1.04.04.05.12.07-.01-.07.13-.04.1-.13l.07.03c-.08-.14.17-.1.08-.22-.01-.1.23.04.14-.1h.1c.03-.03-.1-.08-.03-.1.06.03.07-.03.1.02.14-.05-.03-.26.2-.3-.1-.08 0-.1-.07-.18.05.02.07-.12.14 0 .01.01 0 .02-.02.01l.06.04c.16-.01 0-.16.05-.22-.03.01-.04.04-.08 0l.04-.06.05.04.08-.08-.07-.02c.06-.03.18.01.1-.1-.04-.05-.1 0-.1-.06.08-.04.2-.1.26-.17-.08-.03-.07-.05-.07-.08l.07.03c-.05-.13.16.04.13-.08l.04.03-.13-.1c-.1-.14.16.03.02-.15-.01.04-.15-.06-.1-.1l.06.04c0-.03-.02-.05 0-.06.03.03.1.05.1.02l.07.06-.1-.12c.1-.01.05-.14.15-.1 0 0 .1-.08.01-.16.05.05.1.01.17.06-.06-.06-.07-.17.02-.17l.01.01c.14-.08 0-.26.15-.32-.08-.03-.01-.07-.1-.1-.04-.16.3-.1.02-.3.01-.06.1-.02.13-.04l.01.02c.02-.1.04-.14.08-.2-.01-.05-.15-.13-.08-.17.05.05.05.02.06-.01 0 .02.02.04.07.02-.02-.01-.02-.03-.03-.04.01-.04-.01-.04-.03-.03-.01-.01-.02-.01-.04-.01.1 0 .05-.12.15-.07.04-.13-.02-.27 0-.4.06.01.1.06.1.1l.02-.08c.07.04.02.06.02.1.16-.02-.03-.23.13-.28l-.05-.05h.01c-.03-.01-.06-.06-.06-.08.07.02.14.07.16.02.08-.01.03-.12.02-.2-.02.02-.05 0-.07-.03.01-.03.08-.01.06-.04l.1.04c-.08-.03-.05-.1-.08-.13.07.02.03.07.08.1l.06-.15c-.04-.08-.08-.03-.15-.1.01-.05-.03-.13.05-.16l-.08-.02c-.01-.12.02-.16.13-.18-.28-.96-.76-.56-.76-.56-.3.16-.14.4-.23.74zm5 2.1c-.17.24-.35.24-.42.54-.08.12-.1.28-.16.4.08.12-.08.17-.02.28h-.08c.02.04.03.08-.02.1l-.02-.01c.03.06-.02.1 0 .12l-.02-.01-.01.05-.02-.02c.02.1-.01.16-.06.2l.08.03c-.15.08-.01.2-.17.27h-.02c.14.24-.25.15-.13.4-.02-.03-.04-.01-.06-.02-.01.08-.04.15.12.23-.03.05-.07.02-.13-.01.07.03.07.1.06.13l-.02-.03-.03.12.14.04c-.07.04-.16-.06-.16.01l.1.05c-.06.07-.24.04-.36.08-.2.3-.1.78-.44.98l-.1-.03c-.12-.05.13.17.02.13l.04.06c-.03 0-.06.01-.07-.02-.02.03 0 .04.02.08h-.1c-.12.1-.03.28-.13.4-.23.1-.24.46-.25.67.05.33-.55.4-.48.73-.02 0 .01.04.02.05l-.13.22s-.6 1.1.78.72h.02c.12-.1.18-.17.1-.32.16.06.07-.1.13-.1h.01c-.08-.14.18-.1.1-.23.01.01.05.03.05.05.01-.06.01-.15.1-.1.04-.14.17-.3.07-.45l.02.02c-.07-.1.02-.07-.01-.14.01 0 .02 0 .03.01-.07-.1.06-.16.04-.22l.06.03.04-.1-.03.03c-.16-.1.14-.03.07-.15.06-.06-.27-.3-.16-.34-.06-.07.1.1.08.01.1.04.04.05.12.07-.02-.07.13-.04.1-.13l.07.03c-.08-.14.16-.1.07-.22-.01-.1.23.04.14-.1l.1.01c.03-.03-.1-.08-.03-.1.06.03.07-.03.1.02.14-.05-.03-.25.18-.3-.1-.08 0-.1-.07-.17.05.02.07-.12.14 0 .01.01 0 .02-.02.01l.06.04c.16-.01 0-.16.05-.22-.03.01-.04.04-.08 0l.04-.06.05.04.08-.08h-.07c.06-.03.18.01.1-.1-.04-.05-.1 0-.1-.06.08-.04.2-.1.26-.17-.08-.03-.07-.05-.07-.08l.07.03c-.05-.13.16.04.13-.08l.04.03-.13-.1c-.1-.14.16.03.02-.15-.01.04-.16-.06-.1-.08l.06.04c0-.03-.03-.05 0-.06.03.03.1.05.1.02l.07.06-.1-.12c.1-.01.05-.13.15-.1 0 0 .1-.08.01-.16.05.05.1.01.17.06-.06-.06-.07-.17.02-.17v.01c.14-.08 0-.26.14-.32-.08-.03-.01-.07-.12-.1-.04-.16.3-.1.02-.3.01-.06.1-.02.13-.04l.01.02a.42.42 0 0 1 .07-.2c-.01-.05-.15-.13-.1-.17.05.05.05.02.06-.01 0 .02.02.03.07.02-.02-.01-.02-.03-.03-.04.01-.04-.01-.04-.03-.03-.01-.01-.02-.01-.04-.01.1 0 .05-.12.15-.07.04-.13-.02-.26-.01-.38.06.01.1.06.1.1l.02-.08c.07.04.02.06.03.1.16-.02-.03-.23.12-.27l-.05-.05h.01c-.03-.01-.06-.06-.06-.08.07.02.14.07.16.02.08-.01.02-.12.01-.2-.02.02-.05 0-.07-.03.01-.02.08-.01.06-.04l.1.04c-.08-.03-.05-.1-.08-.13.07.02.04.06.08.1l.06-.15c-.04-.08-.08-.03-.15-.1.01-.05-.03-.13.05-.15l-.08-.02c-.02-.1.02-.16.12-.18-.3-.94-.77-.55-.77-.55-.3.15-.16.4-.25.72zm-38.88 7.3c.53.2.6.4 1.18.53.25.1.54.18.8.26.17-.07.32.14.5.1l.02.1c.06-.01.13-.01.16.05h-.01c.1-.02.16.05.2.04l-.01.02.1.03h-.03a.65.65 0 0 1 .37.15l.03-.08c.2.2.35.1.5.32v.02c.38-.05.32.37.7.36-.05 0-.01.05-.03.06.13.06.27.13.36-.01.08.06.04.1.01.16.04-.06.13-.03.2.01h-.05l.2.12.05-.14c.07.1-.08.16.04.2l.07-.1c.13.12.08.33.15.5.47.45 1.2.8 1.44 1.43l-.05.08c-.1.1.25.02.17.1h.1c-.01.03 0 .08-.04.07.04.06.05.05.12.06l-.02.1c.12.24.35.36.5.6.05.37.48.84.72 1.14.4.4.16 1.15.52 1.57-.01.02.04.05.05.05l.12.47s.14.57.3.9c.15.3.47.5.82-.56l.03.01c.01-.3-.02-.48-.2-.64.16-.08-.05-.23-.01-.3h.02c-.17-.13 0-.38-.17-.5.02 0 .06-.01.08.03-.06-.1-.15-.26-.06-.3-.13-.27-.24-.68-.47-.78h.03c-.14-.05-.07-.12-.17-.2.01-.01.01-.02.02-.02-.15-.06-.17-.3-.25-.36l.06-.04-.12-.2.03.08c-.17.06.02-.2-.17-.3-.06-.15-.5-.08-.5-.27-.1-.02.15-.02.04-.08.08-.05.08.01.13-.05-.1-.07-.02-.2-.15-.3l.06-.05c-.22-.08-.1-.35-.3-.37-.16-.12.1-.23-.14-.3l.03-.12c-.04-.08-.14.03-.15-.08.05-.03-.03-.13.05-.12-.05-.24-.4-.24-.45-.57-.13.04-.17-.12-.27-.1.03-.04-.2-.2 0-.18.02 0 .03.02.02.04l.07-.04c-.01-.2-.26-.16-.36-.3.02.05.07.1 0 .1l-.1-.1.07-.02-.13-.18-.03.08c-.05-.1.01-.23-.16-.23-.08.01.01.14-.1.1-.07-.13-.2-.34-.32-.48-.04.08-.08.04-.13.02l.04-.06c-.22-.04.04-.17-.17-.23l.05-.03-.14.1c-.23.01.02-.18-.26-.14.07.04-.07.15-.12.07l.06-.04c-.05-.02-.08-.01-.1-.04.05-.01.07-.08 0-.1l.1-.04-.2.02c-.05-.13-.26-.14-.24-.25 0 0-.18-.18-.28-.1.08-.03-.02-.13.05-.18-.1.03-.3 0-.3-.1h.02c-.2-.2-.46-.14-.64-.34-.03.08-.12-.02-.15.1-.27-.02-.3-.4-.54-.14-.1-.03-.1-.13-.14-.17l.03-.01c-.2-.06-.27-.1-.4-.16-.1 0-.16.14-.28.05.07-.04.01-.05-.04-.07.04 0 .05-.01.01-.08-.02.01-.04.02-.05.02-.1-.03-.08-.01-.05.01-.01.01-.01.02 0 .04-.05-.1-.24-.1-.2-.2-.26-.08-.48-.03-.7-.07 0-.06.06-.1.13-.1l-.15-.03c.03-.08.1-.01.15-.01-.13-.2-.4 0-.58-.18l-.06.05-.01-.01c-.01.03-.07.06-.1.06-.01-.08.05-.15-.05-.18-.06-.1-.24-.04-.36-.03.05.03.03.06-.01.08-.05-.01-.06-.1-.1-.07l.02-.1c0 .1-.16.05-.2.1-.01-.08.1-.04.12-.08l-.32-.07c-.13.04 0 .1-.08.16-.1-.01-.2.03-.3-.05l.02.1c-.2.02-.3-.02-.4-.13-.77.18-.85.42-.78.58.06.16.3.27.3.27.45.24.76.07 1.4.18zm-5.78-208.83l-.07.26c.02-.01.04-.07.07-.26zm-8.25 66.77v.06-.06zm5.83-56.67v-.08.08z"/><path d="M256.75 219.4l-1.14 8.1-.6 5.32c.03.83-.28 2.24-.3 3.2l-.12.36c0 .33-.03.73-.1 1.05l-.02-.02c-.01.5-.1 1.05-.1 1.3l-.02-.02-.06.6-.02-.1c-.05.87-.16 1.75-.28 2.53l.1-.05-.5 3.8-.02-.02c-.01 1.93-.53 3-.55 4.98 0-.25-.06.1-.08.08-.1.9-.2 1.88-.03 1.9-.08.66-.12.53-.2.6.07.01.03.58-.02 1.1v-.24l-.16 1.48.18-.27c-.14.78-.2.18-.25.93h.12c-.16 1.08-.4 1.7-.63 2.73-.6 4.35-.87 9.06-1.58 13.08l-.1.17c-.14.06.05 1.14-.1 1.28v.48c-.04.13-.1.4-.1.17-.06.43-.04.45-.04.77l-.14.46c-.27 1.7-.3 3.2-.56 5-.43 2.15-.8 6.26-1 8.63-.22 3.34-1.2 7.12-1.4 10.54-.03.1-.03.4-.01.4l-.4 3.1s-1.9 15.04.56 3.74l.02.08c.28-1.7.43-2.76.43-3.95.2-.16.2-1.4.3-1.78v.04c0-1.05.37-2.12.38-3.13.01.04.05.07.03.3.07-.73.15-1.73.26-1.77.2-1.74.54-4.16.5-5.3l.02.08c-.03-.65.1-.82.12-1.54.02-.04.03-.1.04-.08-.02-.7.23-2.02.26-2.58l.07-.03.15-1.38-.08.5c-.16-.2.24-1.03.25-2.04.14-.93-.14-1.94.06-2.9-.03-.47.1.42.1-.28.1-.01.02.33.12.16.04-.68.23-1.1.27-1.95l.08-.03c0-1.1.35-2.05.3-2.8.08-1.13.3-.73.3-1.92l.16-.44c.08-.5-.08-.37.04-.93.06.04.14-.7.16-.36.25-1.25.18-2.58.55-4.2-.08-.38.1-1.2.04-1.48.06-.04.22-1.67.22-.72 0 .08-.02.22-.04.2l.06.12c.25-.93.14-1.73.27-2.66-.06.27-.1.64-.12.4l.12-.87.04.2.2-1.3-.1.17c.12-.63.27-.84.25-1.57-.02-.33-.18.6-.12-.08.16-.84.4-2.1.55-3.18-.1.1-.06-.2-.04-.5l.08-.03c.04-1.16.22-.4.27-1.55l.04.1-.12-.32c-.02-1.05.22-.54.16-1.7-.04.45-.2.2-.1-.36l.05.15c.02-.3.01-.42.05-.62.02.2.1.1.14-.34l.05.3-.03-.87c.16-.65.2-1.7.33-1.97 0 0 .23-1.4.16-1.75.03.3.16-.5.2-.25-.03-.38.04-1.47.18-1.9v.08c.28-1.6.23-2.77.5-4.2-.1.06.05-.7-.1-.53.08-1.5.56-2.7.3-3.28.07-.68.18-.8.24-1.15v.16l.3-2.6c.03-.48-.12-.57.02-1.4.03.28.06-.07.1-.38-.02.2 0 .27.1-.14-.01-.06-.01-.15-.01-.24.01 0 .01-.02.02-.01.04-.53.01-.44-.03-.2-.01-.01-.02.01-.05.08.15-.54.18-1.53.3-1.58.17-1.6.2-2.74.32-4.07.07-.14.08.17.06.56l.1-.94c.08.02-.02.54-.04.84.27-1.1.16-2.32.44-3.6l-.03-.28.02-.08c-.03 0-.04-.3-.03-.5.1-.18.16.03.23-.62.13-.5.15-1.46.2-2.14-.06.36-.08.24-.1.08.04-.32.13-.5.13-.76l.1-.02c-.1.12.01-.86-.01-.98.1-.18 0 .5.04.6l.23-1.95c.02-.7-.1.12-.15-.23.06-.6.07-1.22.2-1.92l-.1.2c.08-1.16.17-1.85.35-2.6.38-8.66-.7-1.92-.7-1.92-.6 3.32-.56 5.1-1 9.12z"/></g><g xmlns="http://www.w3.org/2000/svg" fill="#fff"><path d="M312.72 94.03l-3.06 3.42c.8-2.87-.44-3.32-.44-3.32s-5.8 3.7-7.1 5.5-3.8 4.4-3.4 6.4.5 3.9-.1 6.7-9.7 17.2-9.7 17.2l12.7 13.9 8.52-22.48.88-1.12 4.6-5.9c1.2-1.5 6.3-19.1 6.3-19.1l-9.2-1.2zm-135.86 134.5c3.8 13.8 7.26 22.5 7.26 22.5s.2 6.4 4.3 13c4.1 6.5 5.2 6.9 5.9 7.7s1.6-.7 1.6-.7 1.2 2 2.5 1.8c1.3-.3 1-1.8 1-1.8s1.25 1.14 1.95.74c1.17-1.24.12-3.07-.35-5.58-.38-2.07-1.1-7.96-1.3-9.06-.2-1 1.7 2.46 2.7 3.86s3.03 1.52 2.6.33c-.98-3.58-2.9-7.7-3.3-8.5s-1.6-2.5-2.6-3.7l-.9-1.2s-.53-.74-.73-3.94-1.67-11.43-1.57-16.33c-6.06-.44-22.76-13.04-19.06.86z"/><path d="M318.12 91.33c-1-.4-3.7-.8-4.2.9-.37 1.3 1.33 2.93 3.5 3.64l-1.6-.14c-1.3-.2-4.3.1-4.6 1.9-.23 1.24 1.35 2.3 3.33 2.76l-.83.04c-1.1.1-3.8.6-3.6 2.4.1 1.5 2.7 2.5 5.1 2.1 2.4-.3 4.1-1.1 4-3.1-.07-.7-.62-1.06-1.34-1.27 1.87-.17 3.03-.76 3.34-2.43.2-1.02-.77-1.6-1.95-1.92 1.47.06 2.38-.5 2.85-1.98.6-1.9-2.9-2.5-4-2.9zm-5.4 13.9c-1.1 0-3.5.5-3.3 2.1.2 1.4 2.5 2.3 4.6 2.1 2.2-.3 3.1-1.1 3-2.9-.1-1.9-3.3-1.3-4.3-1.3z"/></g><path xmlns="http://www.w3.org/2000/svg" d="M199.9 263.56h0l-.07-.13z"/><path xmlns="http://www.w3.org/2000/svg" d="M322.42 94.73c.03-.1.08-.2.1-.3.2-.5.1-.9-.1-1.3-.48-1.06-2.16-1.56-3.27-1.86l2.63-6.23c.27-.6.2-1.32-.2-1.87-.38-.52-.96-.8-1.58-.74l-4.4.3-.06.01c-.58.12-1.3.5-1.45.97l-4.64 9.67c-.08-.1-.18-.14-.3-.16l-1.05.7-.58.4-1.2.9-2.83 2.2-1.23 1.06c-.37.34-.72.8-.94 1.07l-1.45 1.77c-.46.6-.92 1.2-1.35 2.03-.22.4-.42.9-.54 1.48-.06.3-.1.63-.06 1 .04.4.1.6.15.9a14.07 14.07 0 0 1 .18 3.25 14.95 14.95 0 0 1-.18 1.64l-.14.8c-.05.27-.14.45-.2.68-.23.96-1.2 2.54-1.7 3.66l-.3.38c-.17.4-.4.83-.64 1.18v-.03c-.26.58-.65 1.18-.78 1.47l-.01-.03-.38.67.04-.13-1.63 2.8.12-.03-2.22 3.64-.58-.34c-.25-.13-.45-.2-.64-.3l-.36-.15c-.14-.05-.3-.1-.45-.1a2.05 2.05 0 0 0-1.1.16c-.2.1-.42.22-.62.42-.1.1-.2.22-.28.35-.06.1-.13.18-.2.28.28-.58-.16.1-.6.7.26-.4.3-.53-.3.2-.05.13-.16.3-.26.48-.01 0-.04.03-.04.01-.7 1.02-.54.86-.2.4 0 .03.04.01.17-.12-.86.96-2.1 2.88-2.34 2.9l-5.46 7.7c-.3.22.1-.4.6-1.13l-1.3 1.75c-.1-.1.7-1.03 1.1-1.6-.88.96-1.66 2.05-2.5 3.17-.84 1.1-1.7 2.3-2.83 3.16a3.31 3.31 0 0 1-.39.44l-.14.1c.04.05-.43.45-.78.57-.18 0-.2-.1-.28-.12-.1-.05-.26.01-.7-.16-.72-.33-2.12-2-2.9-3.33.4.72.2.52-.01.24-.37-.65-.47-1.08-.78-1.57l.1-.14c-.01.34-1-1.68-1.18-1.9-.07-.44.58 1.02.75 1.14l-1.9-4.1c-.76-1.43-.02.33-.46-.32l-1.8-4.1.07.53-1.5-3.43c-.3-1.22-.78-2.75-1.18-3.9.26.85.1.6-.05.24-.25-.75-.28-1.22-.52-1.8l.1-.1c-.15-.06-.75-2-.96-2.2-.03-.23.1.05.28.4l.38.88c-.24-.76-.43-1.23-.58-1.55l-.3-.7-.95-2.2c-.9-1.47.01.34-.5-.32l-1.1-1.97c-.37-.67-.62-.18-1.04-.94l-1.4-1.5c-1.54-2.2-7.25-5.15-9.12-6.1-3.64-2.23-7.27-3.8-9.4-4.3-1.12-.6-2.28-1.06-3.44-1.44a23.81 23.81 0 0 0-4.15-.93 3.84 3.84 0 0 0-.78-.11c-.28-.02-.5-.03-.5-.01-2.42-.3-4.9-.3-7.33.13-3.9-.07-7.77.84-11.27 2.38-3.63 1.6-6.86 3.85-9.72 6.34-2.87 2.5-5.27 5.33-7.57 8l-.5.4c-.36.06-2.17 3.26-2.64 3.57-.3.45-.6.9-.9 1.38-.3.35-.9 1.1-.47.42-.9 1.23-.9 1.27-1.48 2.2l-1.03 1.27c-3.46 4.9-5.88 9.42-8.8 15-1.84 3.32-4.18 8.28-6.02 13.53-1.87 5.23-3.22 10.72-4.02 14.75-1.06 5.7-2 11.87-2.36 18.16-.38 6.28-.17 12.65.73 18.5a6.88 6.88 0 0 0 .12.83c.05.3.1.53.12.53.43 3.6 1.08 7.14 1.8 10.68l.47 2.12c.28 1.33.74 3.16 1.28 5.24 1.1 4.15 2.66 9.22 4 13.04l.96 2.6.4 1.07a1.99 1.99 0 0 0 .82 1.02c.66.4 1.27.32 1.54.22.27-.1.26-.17.1-.2-.2-.02-.7.03-1.25-.38-.16-.1-.28-.24-.38-.4.34.44.95.7 1.56.54l6.9-1.48c0 .01.01.02.01.03-15.33 4.1-2.94 1.8.4 1.17l.43 1.24 1.33 4.06.55 1.65.57 1.6c0-.05 0 .14.01.26l.03.4.1.84a21.98 21.98 0 0 0 .35 1.91c.5 2.44 1.4 4.94 2.47 7.1.6.98 1.52 2.8 2.35 3.86l.22.47c.28.37.6.8.83 1.2l-.03-.01c.43.54.86 1.2 1.1 1.45l-.03-.01.5.67-.1-.1c.76.92 1.64 1.9 2.44 2.65v-.12a7.68 7.68 0 0 0 .27.29c.1.12.27.27.44.36.34.2.74.15 1.05 0 .15-.08.3-.18.42-.27 0 0 .03-.03.04-.05.03-.04.06-.08.1-.13.03 0 .07.07.1.1.1.1.18.2.27.3.35.33.72.74 1.46 1l-.04.01a2.14 2.14 0 0 0 .8.03 1.81 1.81 0 0 0 .69-.3 1.8 1.8 0 0 0 .51-.52c.05-.08.13-.24.14-.26.01-.04.02-.06.03-.1.02-.08.03-.16.02-.22.03.01.13.12.18.15.03.03.04.04.1.07.02.01.22.1.38.15.4.13.94.13 1.27-.2.15-.16.34-.36.4-.53.1-.16.15-.35.2-.53.1-.37.1-.75.04-1.1.05.4.04-.17.05-.14-.08-.7-.28-1.34-.43-1.82-.16-.47-.28-.78-.37-.77-.2-.87-.12-.72-.08-.85-.08.03-.24-.74-.34-1.45l.08.32-.32-2.02-.08.42c-.1-1.08.13-.3-.05-1.32l-.1.03a25.59 25.59 0 0 1-.16-1.9l-.01-.2.01-.1.02-.15c.02-.1.03-.15.05-.2v-.01l-.05-.4c-.02-.03.01-.06.03-.03a.64.64 0 0 1 .1.13l.4.57.32.5.38.56c.28.4.68.8 1.12 1.05.23.13.47.24.73.3.3.1.7.12 1 .05s.62-.26.75-.56c.12-.3.1-.62-.01-.96l-.16-.54-.15-.48-.32-.94-.67-1.84-1.4-3.5-.02-.26c.04-.08-.17-.4-.4-.76-.22-.36-.5-.72-.5-.84l-.4-.53c-.08-.17-.3-.5-.08-.25-.35-.5-.37-.5-.66-.84l-.33-.58c-.35-.5-.73-.93-1.06-1.38l-.5-.66-.08-.1s-.04-.07-.06-.1c-.04-.1-.1-.2-.12-.33-.3-.98-.44-2.1-.5-3.33-.04-1.28-.24-3-.48-4.8l5.7-1.34c.58-.18 1.08-.5 1.47-1.03.38-.52.54-1.23.45-1.82l-.36-2.2-.76-4.84-.87-6.43c1.8-.05 3.7-.14 5.98-.38-.78.1.34.06.28.1 2.87-.2 5.95-.4 5.97-.7 2.1-.13 1.7-.02 2 .07-.02-.12 1.8-.3 3.43-.43l-.75.1c1.56-.12 3.12-.27 4.68-.43l-.94-.15c2.5-.15.66.24 3.03-.06l-.05-.2 2.36-.2a34.35 34.35 0 0 0 2.11-.2c1.38-.14 2.8-.43 4.43-1.16 3.36-1.64 5.95-4.68 7.46-8.03 1.6-3.34 2.37-6.94 2.9-10.47.87-7.1 1.03-14.04 1.36-20.5l.16-.57c.22-.25-.27-3.57-.06-4.05l-.1-1.5c.04-.42.08-1.3.13-.56.01-1.4-.03-1.42-.1-2.42l.13-1.5c.05-5.48-.28-10.13-.4-15.88.08-6.92-.8-19.92-1.5-27.4l-.8-8.18c-.35-3-1.93-5.72-3.78-8-.66-.8-1.38-1.56-2.12-2.3h.02c.24.07 1.28.5 2.68 1.25.4.22.85.47 1.3.75.03.02.05.03.08.05.44.27.9.56 1.36.88l.12.1c.47.32.94.67 1.42 1.04.03.03.07.05.1.08.5.4 1 .82 1.5 1.28 0-.3 2.3 1.83 2.66 2.5l-.07.13c.72 1.26.75 1.53.8 1.8.02.28.1.52.64 1.84l-.17-.2.5.62c.53 1.2.57 1.56.62 1.95s.15.8.67 2.18c-.32-1.12.13-.6.43.8l-.2-.32c.2.76.32 1 .42 1.53-.17-.44-.22-.2.05.93l-.32-.73.7 2.1c.23 1.7.9 4.33.86 5.05 0 0 .58 3.64.9 4.44-.24-.7.07 1.3-.17.75.3.92.88 3.68.93 4.82l-.05-.2c.56 4.14 1.33 7.02 1.7 10.75.12-.2.32 1.78.43 1.27.73 3.82.58 7.06 1.33 8.38.26 1.75.13 2.1.22 3l-.08-.4.87 6.68c.2 1.2.5 1.37.7 3.56-.2-.7-.06.2.03 1-.08-.52-.14-.68-.08.4.05.15.1.38.14.6-.01.01-.01.05-.02.03.2 1.36.2 1.12.14.48.02.03.03-.03.04-.23.04 1.43.47 3.95.3 4.14l1.47 10.42c-.05.4-.22-.4-.37-1.38l.3 2.42c-.14-.01-.23-1.38-.34-2.13.01.36.04.73.07 1.1 0 .03.01.06.01.1.22 2.52.8 5.14.94 8.04 0 .04.01.07.01.1l.13.5.05.17v.2c.05-.02.2.74.28 1.24-.07.5-.27-.01-.1 1.67.01.67.12 1.6.26 2.6l.05.37.88.97.05.52h-.85c.06.24.13.44.2.57-.03.06.2 1.08.38 1.8s.3 1.15-.14.04c-.07-.2-.17-.54-.12-.53l-.18-.24c.37 2.36 1.4 4.3 3.04 6.2-.48-.58-1.02-1.4-.58-.9.44.64.97 1.2 1.52 1.74l-.42-.26a13.25 13.25 0 0 0 2.7 2.1l-.34-.35c.68.47 1.17.76 1.7 1.06.54.26 1.12.52 2.13.64.47.02.04-.08-.24-.18-.26-.13-.45-.15.46 0 .56.14 1.27.18 2.06.07.78-.12 1.73-.62 2.26-1.48.53-.85.63-1.83.54-2.68-.06-.42-.14-.84-.27-1.22l-.1-.3-.06-.22-.12-.43c-.07.25-.26-.33-.47-1.04l.1-.1c-.85-2.63.01-1.04-.77-3.68l-.28-.43c-.82-2.37-.06-1.37-1.02-4 .27 1.06-.15.57-.4-.76l.2.3c-.2-.72-.3-.95-.38-1.44.16.42.22.2-.04-.88l.3.68-.68-1.97c-.23-1.6-.95-4.03-.93-4.7 0 0-.68-3.38-1.03-4.1.17.43.07-.23.05-.6.3-.07.47-.1.14.05 3.03-.74 5.74-2.55 8.98-4.84.27-.36.82-.8 1.32-1.28s.98-.92 1.16-1.2c.16.02 2.83-2.78 1.4-1.07-.12.15-.37.38-.37.34l-.1.28c1.77-1.42 2.78-3 4.26-4.63-.46.46-1.03 1.12-.7.63l1.37-1.52-.2.4c.7-.73 1.35-1.55 2.02-2.33l-.37.25c1.02-1.12 1.46-1.45 2.34-2.9.37-.68-1 1.05-.08-.25 1.2-1.6 3-4.03 4.3-6.22-.24.13.1-.46.44-1.08l.15-.01c1.18-2.44.73-.73 1.9-3.15h0l.07-.5c.9-2.26.86-1.03 1.76-3.6-.46.96-.47.32.16-.82l-.04.35c.3-.66.36-.9.6-1.32-.13.42.06.28.5-.7l-.17.7.67-1.9c.78-1.35 1.64-3.66 2.05-4.18 0 0 1.4-3.03 1.5-3.8-.15.66.6-1.02.52-.48.2-.85 1.06-3.26 1.54-4.18l-.05.2c.1-.24.17-.4.28-.7.12-.35.18-.74.15-1.1a2.99 2.99 0 0 0-.85-1.91c-.12-.12-.24-.23-.37-.32-.13-.1-.3-.2-.37-.24l-.53-.3-1.04-.57c-1.13-.62-2.24-1.23-3.38-1.94l1.1-2.73.16-.18c.16-.05.33-1.4.5-1.56l.16-.6c.08-.15.23-.48.15-.2.2-.52.2-.54.3-.93l.3-.53c.84-2.05 1.36-3.86 2.22-6.03l.37-.86.68-.82.78-1 1.63-2.14 1.6-2.13c.25-.35.5-.65.72-1 .26-.42.4-.77.52-1.1 1.4-4.1 3.3-8.68 4.36-12.93.06-.13.13-.5.1-.5l1.17-3.9.38-1.3c.16-.13-.04-.08-.13-.1zM197.7 247.82c.03.1.06.17.12.28.07.12.12.18.16.24l.26.37c.17.24.35.45.53.63 1.02 1.18.48.94 1.54 2.15l.27.57c.35.57.4.35.7 1-.08-.02.37.88.12.5.64 1.6 1.58 3.15 2.2 5.34.3.42.57 1.53.76 1.85-.01.01.01.08.03.18a16.53 16.53 0 0 0 .08.3c.03.1.04.2-.02.23-.05.03-.02 0-.05-.12-.01-.03-.02-.07 0-.06-.03-.01-.06-.02-.08-.02-.04.1-.07.1-.14.12-.34-.05-.85-.3-1.14-.7.16.26.5.5.25.36-.24-.2-.42-.48-.64-.82l.2.17-.46-.74-.78-1.3.2.47-.97-1.68c-.3-.5-.6-.76-.84-.74-.1.01.02.1.1.18.1.1.15.15-.1.02-.1-.06-.2-.15-.3-.18-.03-.01-.06-.02-.1-.02-.06.01-.1.04-.1.05-.02.02-.04.1-.07.13-.05.1-.1.16-.16.3l-.1.27c-.03.07-.06.2-.02.43l.4 3.1c.06-.15.12.25.2.65l-.07.06c.33 1.56-.08.6.23 2.16l.14.26c.35 1.38-.04.8.38 2.32-.1-.6.1-.33.22.45l-.1-.18c.1.43.17.56.22.85-.1-.25-.14-.1.03.5l-.2-.4.43 1.12c.08.45.23 1 .28 1.46.06.46-.01.8-.1.9.01-.01-.14.34-.2.32-.07.01-.05.03-.2-.02a3.68 3.68 0 0 1-.8-.45c-.05.02-.1.04-.13.06h0c.1-.05.06-.06-.02-.05l-3.76-9.48c-.1-.26-.4-.38-.65-.28s-.38.4-.28.65l3.8 9.57c-.05.04-.1.08-.18.14.04.35-.1.6-.1.6-.03.06-.07.1-.12.14-.08.07-.27.1-.28.08.01 0 .02 0 .02-.01-.18.02-.6-.16-.92-.46-.18-.17-.27-.23-.62-.67-.3-.38-.58-.88-.84-1.25 0 0-.01.01-.01.02l-3.2-7.35c-.1-.25-.4-.37-.66-.26s-.37.4-.26.66l3.48 7.97c-.02.02-.03.05-.05.08-.06.1-.12.15-.2.23a.47.47 0 0 1-.1.1l-.01.01c-.02.01-.03.02-.05.03-.04.02-.08.01-.1-.02l-.08-.1c-.08-.08-.15-.16-.23-.25-.01.12-.7-.62-.6-.37-1.48-1.35-2.15-2.98-2.86-3.38-.55-.76-.56-.96-.82-1.37l.14.18c-.98-1.45-1.28-1.88-1.92-3-.36-.53-.53-.56-1.03-1.6.22.3 0-.1-.18-.5.13.25.18.3-.02-.22-.05-.06-.1-.17-.17-.27 0-.01 0-.03.01-.02-.3-.65-.27-.53-.15-.22-.02-.01-.02.02.01.12-.23-.72-.78-1.94-.7-2.06-.73-2.04-1.2-3.53-1.53-5.3.03-.2.13.2.25.7l-.22-1.26c.08 0 .14.72.23 1.1-.03-.4-.1-.8-.14-1.2-.03-.2-.06-.4-.08-.6l-.04-.3-.03-.38-.27-.63-.23-.58c-.15-.4-.3-.8-.42-1.2l-.2-.33-.03-.1c-.03.02-.2-.35-.3-.6-.02-.26.16-.04-.15-.88-.17-.7-.7-1.9-1.03-2.76.15.48.06.34-.03.14-.15-.42-.16-.7-.3-1l.08-.07c-.01.1-.12-.15-.24-.45a332.12 332.12 0 0 0 14.43-3.05l.65-.15c.2 1.13.65 2.25.7 3.43.15.63-.2-.54-.03.4-.1.04-.1-.44-.16-.18.15.92.01 1.53.2 2.7l-.07.06c.16.75.25 1.47.48 2.16zm112.43-141.3c.5-.6 1.8-.9 2.5-.9h.7c1.5-.1 3.1-.1 3.2.9.1 1.3-.3 2.1-2.6 2.4-1.4.2-2.8-.2-3.6-.8-.2-.1-.5-.4-.5-.8 0-.3.1-.6.3-.8zm6.56 4l.01-.1c-.17.8-.33 1-.6 1.86-.03.04-.06.1-.06.1-.1.42-.34 1.06-.6 1.52-.3.47-.74.96-.93 1.25h-.08l-1.08 1.4.42-.5c0 .3-.92 1-1.6 2.08-.76.94-1.2 2.16-2.05 3.1-.02.03-.03.05-.04.07-.06.22-.04.1-.03-.02.02-.07.04-.13-.05-.03a1.4 1.4 0 0 0-.1.31c-.05 0-.03-.1-.01-.18.03-.1.04-.18-.05-.05-.27.85-.6 1.3-.92 2.35l-.1.01c-.37 1.36-1.03 2.45-1.24 3.37-.46 1.38-.55.83-.95 2.3l-.3.5c-.24.6-.05.48-.35 1.13-.04-.06-.37.83-.28.42-.46 1-.8 2.1-1.24 3.32-.4-.2-1.1-.6-.9-.33-3.1-1.6-5.3-3.54-6.7-3.68-1.4-.78-1.56-1.07-2.25-1.5l.34.17-3.56-2.03c.78-1.27 1.35-2.4 2.2-3.63-.12.03.43-.8.2-.64.9-1.7 1.98-2.92 2.03-3.7.42-.77.58-.87.82-1.25l-.1.2 1.56-2.98c.24-.57.16-.7.62-1.73-.1.35.1-.05.22-.5-.08.27-.08.37.14-.2l.03-.32c.01 0 .01-.02.02-.01.1-.7.07-.57 0-.26-.01-.02-.02.01-.06.1.24-.7.3-2 .4-2.06.08-1.05.02-1.97-.1-2.8-.06-.42-.14-.83-.23-1.24-.1-.43-.16-.73-.12-1.13.1-.16.04.2.12.6-.06-.32-.01-.67.1-1.03.06.03-.1.6-.06.9.08-1.14.74-2.6 1.83-3.84l.16-.3.07-.07c-.03-.02.17-.34.3-.55.2-.15.12.12.63-.55.12-.12.24-.3.38-.46.13-.15.24-.32.4-.5.3-.35.67-.7.98-1-.36.3-.27.16-.13.02.3-.27.55-.36.77-.58l.1.05c-.2.03.8-.73.9-.85.23-.08-.48.43-.53.54 1.32-1 .66-.5 2-1.48.7-.56-.18.02.12-.3l.96-.7c.26-.2.53-.37.77-.5.2.58.5 2.13-.46 4.4-1 2.35-4.7 5.02-4.73 5.05l.37.52-1.24 2.58c-.27.56-.25 1.2.04 1.74s.82.9 1.43 1l4.2.57h.14c.95 0 1.83-.38 2.5-1a6.91 6.91 0 0 0 2.2.38c.3 0 .5 0 .8.1 1.6-.2 3.5-.7 3.3-3.3a1.66 1.66 0 0 0-1-1.43c.7-.17 1.52-.44 2.15-.94-.67 2.1-1.62 4.9-1.93 6.26zm-1.46-5.9c-1.5.2-3.1-.2-4-.9-.3-.2-.6-.5-.6-.9s.1-.6.3-.9c.6-.7 2.1-1 2.9-1h.7c.2-.05.4-.07.64-.08a8.92 8.92 0 0 0 1.16.08c.32 0 .64-.01.97-.02.52.07 1 .2 1.33.42.2.2.3.4.3.6 0 1-.3 2.3-3.7 2.7zm4.3-3.25a1.84 1.84 0 0 0-.41-.65c-.02-.02-.05-.03-.08-.05a4.4 4.4 0 0 0 .82-.28l-.33.98zm.93-2.94v-.05a7.27 7.27 0 0 1-.2.77c-.52.54-1.4.83-2.76.93-.88-.15-1.85-.13-2.62-.1-1.26-.22-2.37-.7-2.95-1.37-.2-.3-.3-.6-.3-.9.2-1.6 3-1.7 4.2-1.5h.5l1.24.13c.1.02.17.05.26.07a22.85 22.85 0 0 0 1.07.15c.8.18 1.5.44 1.83.85.01.02.01.04.02.06-.1.38-.2.75-.3.95zm.6-1.87c-.07-.05-.13-.1-.2-.15.18-.07.32-.16.47-.25l-.26.4zm.57-2.54c-.4 1.3-1.17 1.8-2.64 1.67-.43-.1-.88-.17-1.3-.23-1.4-.34-2.6-1.2-3.16-2.14-.1-.3-.3-.7-.2-1.1.1-.3.3-.5.6-.7a4.3 4.3 0 0 1 1.2-.2c.7 0 1.4.2 1.9.3.2 0 .4.1.7.2.9.3 2.5.7 2.9 1.5.1.2.1.4 0 .7z"/><g xmlns="http://www.w3.org/2000/svg" fill="#fff"><path d="M203.4 228.36l-.02-.3c-.02 0-.02.08.02.3zm14.82-71.4l.03-.06c-.02.04-.03.05-.03.06zM202.8 216.8h0c.01.03.01.05.02.07l-.02-.1z"/><path d="M205.13 231.7l-1.45-9-.86-5.9c-.25-.88-.3-2.5-.5-3.55l.03-.42c-.07-.36-.15-.8-.13-1.17l.02.02c-.1-.55-.1-1.17-.16-1.44l.02.02-.06-.67.04.1c-.14-.96-.18-1.95-.2-2.82l-.08.08-.04-4.23.02.02c-.17-2.13.24-3.34.32-5.5-.01.27.06-.1.08-.08.07-1 .3-2.06.12-2.1.13-.73.16-.58.24-.66-.08-.01 0-.65.13-1.2l-.03.26.32-1.62-.2.3c.23-.85.2-.18.36-1l-.12-.02c.32-1.17.64-1.82 1.05-2.92 1.33-4.66 3.02-9.64 5.2-13.62l.17-.14c.15-.02.4-1.2.57-1.3l.2-.5c.1-.12.25-.4.16-.14.23-.43.2-.45.34-.78l.32-.42c.96-1.67 1.63-3.17 2.67-4.9 1.36-2.03 3.6-6.04 4.95-8.3 1.84-3.24 4.7-6.54 6.68-9.8.1-.1.23-.38.22-.38l2.02-2.84 3.92-5.62c1.46-2.17 1.85-3.17-2.38 1.72l.03-.1c-1.18 1.5-1.9 2.48-2.54 3.64-.26.07-.92 1.27-1.22 1.6l.01-.04c-.56 1.03-1.47 1.9-2 2.9.01-.04-.01-.1.13-.3-.45.7-1.05 1.64-1.17 1.63-1.08 1.63-2.64 3.88-3.2 5.02l.02-.1c-.3.66-.5.8-.88 1.5-.03.03-.07.07-.07.06-.33.7-1.2 1.93-1.5 2.5h-.08l-.8 1.33.32-.5c.05.27-.72.94-1.2 1.97-.56.9-.77 2.03-1.4 2.92-.2.5.1-.47-.23.24-.1-.03.13-.34-.03-.2-.35.68-.7 1.04-1.13 1.9h-.08c-.5 1.14-1.23 1.98-1.5 2.77-.54 1.15-.6.64-1.1 1.9l-.32.4c-.27.5-.08.42-.4.96-.04-.06-.4.7-.3.33-.72 1.24-1.14 2.66-2.04 4.32-.05.43-.48 1.27-.52 1.58-.08.02-.7 1.76-.43.73.02-.1.08-.24.1-.22l-.02-.15c-.5.95-.66 1.84-1.02 2.84.13-.3.26-.7.22-.4l-.34.93v-.2l-.52 1.38.13-.17c-.26.67-.46.87-.6 1.68-.05.37.3-.62.1.1a49.96 49.96 0 0 0-1.14 3.45c.1-.1.03.23-.04.56l-.08.02c-.2 1.3-.3.42-.5 1.7l-.03-.12.08.37c-.1 1.17-.3.58-.35 1.9.1-.5.2-.2.06.4l-.04-.17c-.05.35-.04.47-.1.7 0-.2-.08-.13-.16.38l-.03-.35-.04.98c-.23.72-.23 1.94-.38 2.23l-.1.85c-.06.45-.04.95-.01 1.14-.05-.33-.12.56-.2.3.06.42.04 1.66-.04 2.16l-.01-.1c-.08 1.83.1 3.13.1 4.76.08-.08.07.8.17.57.17 1.68-.02 3.1.35 3.67.07.76-.01.9.01 1.3l-.04-.18.32 2.9c.1.53.27.6.34 1.54-.1-.3-.04.1 0 .44-.04-.23-.07-.3-.05.18.03.06.05.16.07.26 0 0-.01.02-.01.01.1.6.1.48.08.2.01.01.02-.01.03-.1-.01.63.23 1.7.14 1.8.27 1.77.58 3.02.85 4.5-.03.17-.13-.16-.22-.6l.2 1.04c-.08 0-.14-.6-.2-.9.06 1.27.55 2.54.7 4.02l.12.3.01.1c.03-.01.14.3.2.52-.03.22-.16.01-.02.73.03.58.34 1.6.52 2.34-.07-.4 0-.28.05-.1.07.36.04.58.13.85l-.1.05c.06-.16.3.92.35 1.04-.03.22-.17-.54-.24-.62l.46 2.15c.23.75.06-.16.22.2.06.25.13.5.2.76.06.2.1.4.15.6-.13.04-.28.07-.42.1l.25.02-.77.25-.72.2c-.45.12-.85.2-1.28.28-9.12 3.2-1.7 1.44-1.7 1.44 1-.22 1.88-.44 2.7-.67l3.13-.9-.72-2.9a59.21 59.21 0 0 1-.63-2.7zm57.33-91.33v.15c.02 0 .02-.04 0-.15zm8.54 37.1c.01.01.01.02.02.03-.02-.02-.02-.03-.02-.03zm-8.38-31.15h0c-.01-.02-.01-.03-.02-.04l.02.04z"/><path d="M261 138.83c.4 1.97.37 2.53.9 4.55l.72 2.94c.23.42.3 1.24.5 1.75l-.02.22a1.8 1.8 0 0 1 .16.58l-.02-.01c.12.26.16.58.2.7l-.02-.01.1.33-.04-.05c.17.47.28.96.36 1.4l.08-.06c.12.95.37 1.25.45 2.1l-.02-.01c.47 1 .23 1.7.7 2.75-.06-.13-.03.07-.05.06.14.5.28 1.03.44 1 .08.37.02.3-.04.37.07-.02.18.3.25.58l-.06-.13.2.8.1-.2c.06.44-.14.15-.01.56l.1-.03c.12.6.02 1 .07 1.6l1.7 7.26-.06.12c-.12.07.33.58.23.7l.12.25c-.01.08.01.24-.05.12.05.24.07.24.15.4l-.02.28c.16.97.5 1.75.7 2.76.12 1.24.8 3.48 1.17 4.77.6 1.8.6 4.05 1.25 5.9 0 .07.07.2.1.2l.38 1.73s1.87 8.37 1.45 1.78l.04.04c-.15-.96-.27-1.56-.56-2.18.14-.14-.16-.78-.16-1v.02c-.26-.55-.16-1.2-.4-1.74.02.02.07.02.1.15-.1-.4-.28-.94-.2-1-.25-.96-.5-2.32-.8-2.9l.04.04c-.2-.33-.12-.45-.26-.83.01-.02.01-.05.01-.05-.2-.36-.27-1.12-.4-1.42l.06-.04-.2-.76.05.3c-.2-.06-.02-.6-.26-1.13-.1-.52-.6-.97-.65-1.53-.14-.24.2.2.04-.17.1-.03.1.17.15.05-.13-.37-.05-.64-.22-1.1l.07-.04c-.27-.58-.17-1.17-.4-1.54-.2-.6.12-.47-.17-1.1l.04-.28c-.05-.28-.17-.17-.2-.5.07 0-.04-.4.06-.23-.06-.72-.46-1.4-.5-2.35-.17-.17-.2-.65-.33-.78.05-.04-.2-.93.03-.44.02.04.04.12.01.12l.1.05c.01-.56-.3-.94-.4-1.46.01.16.07.36-.02.24l-.1-.5.08.1-.13-.73-.05.12c-.04-.36.06-.5-.14-.9-.1-.17-.02.36-.13-.01l-.26-1.8c-.07.08-.1-.1-.16-.25l.07-.04c-.25-.62.1-.27-.12-.9l.06.04-.2-.13c-.28-.54.08-.34-.26-.93.07.25-.13.16-.17-.16l.1.06c-.05-.17-.1-.22-.1-.34.06.1.1.03.04-.22l.13.15-.24-.45c-.01-.38-.24-.94-.17-1.12 0 0-.13-.8-.28-.96.1.14.03-.3.14-.2-.12-.2-.32-.78-.3-1.04l.02.04c-.12-.9-.46-1.5-.55-2.33-.08.06-.13-.38-.2-.25-.3-.8-.13-1.57-.53-1.8-.1-.37-.02-.47-.05-.67l.04.1-.35-1.43c-.1-.26-.26-.26-.33-.74.1.14.04-.05 0-.23.04.1.07.14.05-.1-.03-.03-.05-.08-.07-.12v-.01c-.1-.3-.1-.23-.07-.1-.01 0-.02.01-.03.06.01-.32-.2-.85-.1-.9l-.7-2.2c.04-.1.12.07.2.27l-.14-.52c.08-.01.1.3.17.45-.02-.65-.42-1.25-.47-2l-.1-.14v-.05c-.03.01-.1-.14-.15-.25.04-.12.16-.03.07-.4 0-.3-.22-.8-.34-1.17.03.2-.02.15-.06.07-.04-.18 0-.3-.06-.43l.1-.04c-.07.1-.2-.45-.25-.5.04-.12.12.27.18.3l-.26-1.08c-.16-.37-.07.1-.2-.08-.1-.34-.24-.65-.27-1.06l-.05.14c-.2-.62-.3-1-.3-1.46-1.76-4.6-1.14-.8-1.14-.8.2 1.96.67 2.88 1.24 5.1zm3 70.57c0 .02.05.03.2.03l-.2-.03z"/><path d="M269.76 216.62c-.12-.15-.42-.43-.66-.67l-.43-.45c-.75-.86-1.14-1.48-1.42-2.33-.3-.9-.62-1.9-.9-3.32l-.1-.68c-.04-.3-.28-.53-.3-.8-.27-.6-.42-.96-.6-1.14l-.02-.1c-.01-.07-.02-.07-.04-.2l-.05-.37-.26-2.6c-.18-1.68.02-1.18.1-1.67-.07-.5-.23-1.25-.28-1.24v-.2l-.18-.7c-.16-3.4-.92-6.43-1.03-9.34.1.74.2 2.12.34 2.13l-.3-2.42c.15 1 .32 1.78.37 1.38l-1.47-10.42c.16-.2-.27-2.7-.3-4.14-.01.2-.02.26-.04.23.06.64.06.88-.14-.48.01.02.02-.02.02-.03-.04-.22-.1-.45-.14-.6-.06-1.08 0-.92.08-.4-.1-.82-.22-1.7-.03-1-.2-2.2-.5-2.35-.7-3.56l-.87-6.68.08.4c-.1-.9.04-1.26-.22-3-.75-1.32-.6-4.56-1.33-8.38-.12.5-.3-1.46-.43-1.27-.37-3.74-1.14-6.6-1.7-10.75l.05.2c-.05-1.14-.63-3.9-.93-4.82.23.55-.07-1.46.17-.75-.33-.8-.9-4.44-.9-4.44.04-.72-.63-3.36-.86-5.05l-.7-2.1.32.73c-.28-1.13-.23-1.37-.05-.93-.1-.52-.2-.77-.42-1.53l.2.32c-.3-1.4-.75-1.92-.43-.8-.52-1.38-.62-1.8-.67-2.18s-.1-.75-.62-1.95l-.5-.62.17.2c-.55-1.32-.62-1.57-.64-1.84-.03-.27-.07-.55-.8-1.8l.07-.13c-.36-.66-2.67-2.8-2.66-2.5-3.68-3.4-8.04-5.28-8.57-5.42H239c.74.73 1.46 1.48 2.12 2.3 1.85 2.3 3.43 5 3.78 8 .33 2.83.52 5.55.8 8.18.72 7.47 1.6 20.47 1.5 27.4.14 5.75.46 10.4.4 15.88l-.13 1.5c.06 1 .1 1.03.1 2.42-.05-.75-.1.14-.13.56l.1 1.5c-.2.5.28 3.8.06 4.05l-.16.57c-.33 6.46-.5 13.4-1.36 20.5-.46 3.03-1.1 6.1-2.28 9.03h.05l-.3.9c.1-.3-.1.1-.1.07-.24.63-.56 1.2-.42 1.3-.24.4-.24.3-.33.32.07.04-.12.4-.32.7l.07-.16c-.18.3-.4.58-.6.87l.24-.08c-.37.43-.22.01-.53.45l.1.07c-.5.6-.96.8-1.55 1.24-1.12 1.03-2.43 2-3.86 2.6-1.4.6-3 .92-4.46 1.13l-.14-.06c-.08-.12-.77.33-.9.23l-.33.12c-.1-.01-.3 0-.14-.05-.3.05-.32.07-.54.15l-.35-.02c-1.25.12-2.28.45-3.6.6-1.6.05-4.55.56-6.26.82-2.4.46-5.25.2-7.7.65-.08-.01-.3.05-.28.06l-2.27.17s-2.75.2-4.45.45-2.35.55 1.88.77l-.05.03c1.25-.03 2.03-.08 2.88-.3.15.16 1.02-.07 1.32-.04l-.03.02c.75-.2 1.57-.02 2.3-.2-.03.02-.04.07-.2.08.53-.07 1.26-.18 1.3-.08 1.27-.14 3.05-.28 3.85-.5l-.05.03c.45-.15.6-.08 1.1-.2.03.01.07.01.06.02.5-.16 1.47-.18 1.88-.26l.03.06 1-.13-.38.03c.1-.2.77.02 1.5-.18.7-.05 1.33-.55 2.05-.55.33-.13-.28.18.22.05.03.1-.23.1-.1.15.5-.1.83-.01 1.43-.15l.04.07c.78-.25 1.52-.13 2.03-.33.8-.18.6.13 1.42-.16l.35.04c.37-.05.24-.17.65-.2-.01.07.52-.04.3.06.94-.1 1.83-.48 3.07-.64.23-.2.86-.28 1.02-.42.05.06 1.22-.44.58-.07-.06.03-.16.07-.16.05l-.06.1c.75-.13 1.25-.54 1.87-.88-.2.08-.45.22-.3.08l.6-.3-.1.12c.3-.15.58-.33.87-.5l-.16.01c.44-.22.64-.24 1.02-.64.16-.2-.43.2-.04-.13.54-.35 1.33-.94 1.9-1.54-.1 0 .04-.16.18-.34l.07.03c.5-.73.34-.14.83-.87v-.2c.34-.72.38-.25.7-1.1-.18.3-.22.05.02-.3l.01.13c.1-.2.12-.3.2-.42-.04.14.06.12.2-.2l-.03.25.2-.64a4.82 4.82 0 0 0 .37-.68c.03-.06.05-.1.07-.16.01-.03.03-.05.04-.05s.02.01.04.02a.1.1 0 0 0 .04.01c.05 0-.01.01.14 0 .3 0 .6-.02.73-.07-.2.07.37.1.2.18.27-.08 1.07-.14 1.4-.06h-.06c1.18.1 2.02-.12 3.08-.01-.05-.1.5-.04.37-.15 1.1-.1 2 .23 2.4-.12.5-.02.6.08.85.1l-.12.02a31.9 31.9 0 0 1 1.9-.02c.35-.03.4-.2 1.02-.15-.2.06.05.05.3.05-.15.01-.2.03.1.08.04-.02.1-.03.17-.04 0 .01.01.01.01.02.4-.02.32-.04.14-.05.01-.01-.01-.02-.06-.04.4.08 1.12-.01 1.17.1 1.17-.03 2-.14 2.97-.18.1.06-.12.1-.4.13l.7-.02c-.01.08-.4.05-.6.06.82.13 1.7-.13 2.65-.01l.2-.06.06.01c0-.03.2-.08.36-.1.14.07-.01.16.47.16.14.04.2.02.35 0 .04.12.08.15.14.4-.02-.15-.01-.15.01-.15.01 0 .03.01.06.08.04.24 0 .38.06.56l-.1.04c.07-.1.2.6.27.68-.04.15-.13-.35-.2-.4.2.95.1.47.3 1.4.2.5.06-.1.2.1.12.44.3.85.4 1.36l.03-.18c.3.8.54 1.26.8 1.8 1.1 1.2 1.97 1.5 2.35 1.63.4-.03.44-.12.27-.3z"/><path d="M242.8 212.95v.1z"/></g></g></svg>